<?xml version="1.0" encoding="utf-8" standalone="no"?>
<!DOCTYPE svg PUBLIC "-//W3C//DTD SVG 1.1//EN"
  "http://www.w3.org/Graphics/SVG/1.1/DTD/svg11.dtd">
<!-- Created with matplotlib (https://matplotlib.org/) -->
<svg height="345.6pt" version="1.1" viewBox="0 0 460.8 345.6" width="460.8pt" xmlns="http://www.w3.org/2000/svg" xmlns:xlink="http://www.w3.org/1999/xlink">
 <metadata>
  <rdf:RDF xmlns:cc="http://creativecommons.org/ns#" xmlns:dc="http://purl.org/dc/elements/1.1/" xmlns:rdf="http://www.w3.org/1999/02/22-rdf-syntax-ns#">
   <cc:Work>
    <dc:type rdf:resource="http://purl.org/dc/dcmitype/StillImage"/>
    <dc:date>2020-08-08T18:16:48.514116</dc:date>
    <dc:format>image/svg+xml</dc:format>
    <dc:creator>
     <cc:Agent>
      <dc:title>Matplotlib v3.3.0, https://matplotlib.org/</dc:title>
     </cc:Agent>
    </dc:creator>
   </cc:Work>
  </rdf:RDF>
 </metadata>
 <defs>
  <style type="text/css">*{stroke-linecap:butt;stroke-linejoin:round;}</style>
 </defs>
 <g id="figure_1">
  <g id="patch_1">
   <path d="M 0 345.6 
L 460.8 345.6 
L 460.8 0 
L 0 0 
z
" style="fill:#ffffff;"/>
  </g>
  <g id="axes_1">
   <g id="patch_2">
    <path d="M 57.6 307.584 
L 414.72 307.584 
L 414.72 41.472 
L 57.6 41.472 
z
" style="fill:#ffffff;"/>
   </g>
   <g id="PolyCollection_1">
    <path clip-path="url(#p6fbd1b70cd)" d="M 73.832727 304.768 
L 73.832727 307.584 
L 87.36 307.584 
L 100.887273 307.584 
L 114.414545 307.584 
L 127.941818 307.584 
L 141.469091 307.584 
L 154.996364 307.584 
L 168.523636 307.584 
L 182.050909 307.584 
L 195.578182 307.584 
L 209.105455 307.584 
L 222.632727 307.584 
L 236.16 307.584 
L 249.687273 307.584 
L 263.214545 307.584 
L 276.741818 307.584 
L 290.269091 307.584 
L 303.796364 307.584 
L 317.323636 307.584 
L 330.850909 307.584 
L 344.378182 307.584 
L 357.905455 307.584 
L 371.432727 307.584 
L 384.96 307.584 
L 398.487273 307.584 
L 398.487273 307.584 
L 398.487273 307.584 
L 384.96 307.584 
L 371.432727 307.584 
L 357.905455 307.584 
L 344.378182 307.584 
L 330.850909 307.584 
L 317.323636 307.584 
L 303.796364 307.584 
L 290.269091 307.584 
L 276.741818 307.584 
L 263.214545 307.584 
L 249.687273 307.584 
L 236.16 307.584 
L 222.632727 307.584 
L 209.105455 299.136 
L 195.578182 299.136 
L 182.050909 299.136 
L 168.523636 299.136 
L 154.996364 299.136 
L 141.469091 299.136 
L 127.941818 299.136 
L 114.414545 299.136 
L 100.887273 299.136 
L 87.36 299.136 
L 73.832727 304.768 
z
" style="fill:#1f77b4;"/>
   </g>
   <g id="PolyCollection_2">
    <path clip-path="url(#p6fbd1b70cd)" d="M 73.832727 301.952 
L 73.832727 304.768 
L 87.36 299.136 
L 100.887273 299.136 
L 114.414545 299.136 
L 127.941818 299.136 
L 141.469091 299.136 
L 154.996364 299.136 
L 168.523636 299.136 
L 182.050909 299.136 
L 195.578182 299.136 
L 209.105455 299.136 
L 222.632727 307.584 
L 236.16 307.584 
L 249.687273 307.584 
L 263.214545 307.584 
L 276.741818 307.584 
L 290.269091 307.584 
L 303.796364 307.584 
L 317.323636 307.584 
L 330.850909 307.584 
L 344.378182 307.584 
L 357.905455 307.584 
L 371.432727 307.584 
L 384.96 307.584 
L 398.487273 307.584 
L 398.487273 307.584 
L 398.487273 307.584 
L 384.96 307.584 
L 371.432727 307.584 
L 357.905455 307.584 
L 344.378182 307.584 
L 330.850909 307.584 
L 317.323636 307.584 
L 303.796364 307.584 
L 290.269091 307.584 
L 276.741818 307.584 
L 263.214545 307.584 
L 249.687273 307.584 
L 236.16 307.584 
L 222.632727 307.584 
L 209.105455 290.688 
L 195.578182 290.688 
L 182.050909 290.688 
L 168.523636 290.688 
L 154.996364 290.688 
L 141.469091 290.688 
L 127.941818 290.688 
L 114.414545 290.688 
L 100.887273 290.688 
L 87.36 290.688 
L 73.832727 301.952 
z
" style="fill:#ff7f0e;"/>
   </g>
   <g id="PolyCollection_3">
    <path clip-path="url(#p6fbd1b70cd)" d="M 73.832727 299.136 
L 73.832727 301.952 
L 87.36 290.688 
L 100.887273 290.688 
L 114.414545 290.688 
L 127.941818 290.688 
L 141.469091 290.688 
L 154.996364 290.688 
L 168.523636 290.688 
L 182.050909 290.688 
L 195.578182 290.688 
L 209.105455 290.688 
L 222.632727 307.584 
L 236.16 307.584 
L 249.687273 307.584 
L 263.214545 307.584 
L 276.741818 307.584 
L 290.269091 307.584 
L 303.796364 307.584 
L 317.323636 307.584 
L 330.850909 307.584 
L 344.378182 307.584 
L 357.905455 307.584 
L 371.432727 307.584 
L 384.96 307.584 
L 398.487273 307.584 
L 398.487273 307.584 
L 398.487273 307.584 
L 384.96 307.584 
L 371.432727 307.584 
L 357.905455 307.584 
L 344.378182 307.584 
L 330.850909 307.584 
L 317.323636 307.584 
L 303.796364 307.584 
L 290.269091 307.584 
L 276.741818 307.584 
L 263.214545 307.584 
L 249.687273 307.584 
L 236.16 307.584 
L 222.632727 307.584 
L 209.105455 282.24 
L 195.578182 282.24 
L 182.050909 282.24 
L 168.523636 282.24 
L 154.996364 282.24 
L 141.469091 282.24 
L 127.941818 282.24 
L 114.414545 282.24 
L 100.887273 282.24 
L 87.36 282.24 
L 73.832727 299.136 
z
" style="fill:#2ca02c;"/>
   </g>
   <g id="PolyCollection_4">
    <path clip-path="url(#p6fbd1b70cd)" d="M 73.832727 296.32 
L 73.832727 299.136 
L 87.36 282.24 
L 100.887273 282.24 
L 114.414545 282.24 
L 127.941818 282.24 
L 141.469091 282.24 
L 154.996364 282.24 
L 168.523636 282.24 
L 182.050909 282.24 
L 195.578182 282.24 
L 209.105455 282.24 
L 222.632727 307.584 
L 236.16 307.584 
L 249.687273 307.584 
L 263.214545 307.584 
L 276.741818 307.584 
L 290.269091 307.584 
L 303.796364 307.584 
L 317.323636 307.584 
L 330.850909 307.584 
L 344.378182 307.584 
L 357.905455 307.584 
L 371.432727 307.584 
L 384.96 307.584 
L 398.487273 307.584 
L 398.487273 307.584 
L 398.487273 307.584 
L 384.96 307.584 
L 371.432727 307.584 
L 357.905455 307.584 
L 344.378182 307.584 
L 330.850909 307.584 
L 317.323636 307.584 
L 303.796364 307.584 
L 290.269091 307.584 
L 276.741818 307.584 
L 263.214545 307.584 
L 249.687273 307.584 
L 236.16 307.584 
L 222.632727 307.584 
L 209.105455 273.792 
L 195.578182 273.792 
L 182.050909 273.792 
L 168.523636 273.792 
L 154.996364 273.792 
L 141.469091 273.792 
L 127.941818 273.792 
L 114.414545 273.792 
L 100.887273 273.792 
L 87.36 273.792 
L 73.832727 296.32 
z
" style="fill:#d62728;"/>
   </g>
   <g id="PolyCollection_5">
    <path clip-path="url(#p6fbd1b70cd)" d="M 73.832727 293.504 
L 73.832727 296.32 
L 87.36 273.792 
L 100.887273 273.792 
L 114.414545 273.792 
L 127.941818 273.792 
L 141.469091 273.792 
L 154.996364 273.792 
L 168.523636 273.792 
L 182.050909 273.792 
L 195.578182 273.792 
L 209.105455 273.792 
L 222.632727 307.584 
L 236.16 307.584 
L 249.687273 307.584 
L 263.214545 307.584 
L 276.741818 307.584 
L 290.269091 307.584 
L 303.796364 307.584 
L 317.323636 307.584 
L 330.850909 307.584 
L 344.378182 307.584 
L 357.905455 307.584 
L 371.432727 307.584 
L 384.96 307.584 
L 398.487273 307.584 
L 398.487273 307.584 
L 398.487273 307.584 
L 384.96 307.584 
L 371.432727 307.584 
L 357.905455 307.584 
L 344.378182 307.584 
L 330.850909 307.584 
L 317.323636 307.584 
L 303.796364 307.584 
L 290.269091 307.584 
L 276.741818 307.584 
L 263.214545 307.584 
L 249.687273 307.584 
L 236.16 307.584 
L 222.632727 307.584 
L 209.105455 265.344 
L 195.578182 265.344 
L 182.050909 265.344 
L 168.523636 265.344 
L 154.996364 265.344 
L 141.469091 265.344 
L 127.941818 265.344 
L 114.414545 265.344 
L 100.887273 265.344 
L 87.36 265.344 
L 73.832727 293.504 
z
" style="fill:#9467bd;"/>
   </g>
   <g id="PolyCollection_6">
    <path clip-path="url(#p6fbd1b70cd)" d="M 73.832727 290.688 
L 73.832727 293.504 
L 87.36 265.344 
L 100.887273 265.344 
L 114.414545 265.344 
L 127.941818 265.344 
L 141.469091 265.344 
L 154.996364 265.344 
L 168.523636 265.344 
L 182.050909 265.344 
L 195.578182 265.344 
L 209.105455 265.344 
L 222.632727 307.584 
L 236.16 307.584 
L 249.687273 307.584 
L 263.214545 307.584 
L 276.741818 307.584 
L 290.269091 307.584 
L 303.796364 307.584 
L 317.323636 307.584 
L 330.850909 307.584 
L 344.378182 307.584 
L 357.905455 307.584 
L 371.432727 307.584 
L 384.96 307.584 
L 398.487273 307.584 
L 398.487273 307.584 
L 398.487273 307.584 
L 384.96 307.584 
L 371.432727 307.584 
L 357.905455 307.584 
L 344.378182 307.584 
L 330.850909 307.584 
L 317.323636 307.584 
L 303.796364 307.584 
L 290.269091 307.584 
L 276.741818 307.584 
L 263.214545 307.584 
L 249.687273 307.584 
L 236.16 307.584 
L 222.632727 307.584 
L 209.105455 256.896 
L 195.578182 256.896 
L 182.050909 256.896 
L 168.523636 256.896 
L 154.996364 256.896 
L 141.469091 256.896 
L 127.941818 256.896 
L 114.414545 256.896 
L 100.887273 256.896 
L 87.36 256.896 
L 73.832727 290.688 
z
" style="fill:#8c564b;"/>
   </g>
   <g id="PolyCollection_7">
    <path clip-path="url(#p6fbd1b70cd)" d="M 73.832727 287.872 
L 73.832727 290.688 
L 87.36 256.896 
L 100.887273 256.896 
L 114.414545 256.896 
L 127.941818 256.896 
L 141.469091 256.896 
L 154.996364 256.896 
L 168.523636 256.896 
L 182.050909 256.896 
L 195.578182 256.896 
L 209.105455 256.896 
L 222.632727 307.584 
L 236.16 307.584 
L 249.687273 307.584 
L 263.214545 307.584 
L 276.741818 307.584 
L 290.269091 307.584 
L 303.796364 307.584 
L 317.323636 307.584 
L 330.850909 307.584 
L 344.378182 307.584 
L 357.905455 307.584 
L 371.432727 307.584 
L 384.96 307.584 
L 398.487273 307.584 
L 398.487273 307.584 
L 398.487273 307.584 
L 384.96 307.584 
L 371.432727 307.584 
L 357.905455 307.584 
L 344.378182 307.584 
L 330.850909 307.584 
L 317.323636 307.584 
L 303.796364 307.584 
L 290.269091 307.584 
L 276.741818 307.584 
L 263.214545 307.584 
L 249.687273 307.584 
L 236.16 307.584 
L 222.632727 307.584 
L 209.105455 248.448 
L 195.578182 248.448 
L 182.050909 248.448 
L 168.523636 248.448 
L 154.996364 248.448 
L 141.469091 248.448 
L 127.941818 248.448 
L 114.414545 248.448 
L 100.887273 248.448 
L 87.36 248.448 
L 73.832727 287.872 
z
" style="fill:#e377c2;"/>
   </g>
   <g id="PolyCollection_8">
    <path clip-path="url(#p6fbd1b70cd)" d="M 73.832727 285.056 
L 73.832727 287.872 
L 87.36 248.448 
L 100.887273 248.448 
L 114.414545 248.448 
L 127.941818 248.448 
L 141.469091 248.448 
L 154.996364 248.448 
L 168.523636 248.448 
L 182.050909 248.448 
L 195.578182 248.448 
L 209.105455 248.448 
L 222.632727 307.584 
L 236.16 307.584 
L 249.687273 307.584 
L 263.214545 307.584 
L 276.741818 307.584 
L 290.269091 307.584 
L 303.796364 307.584 
L 317.323636 307.584 
L 330.850909 307.584 
L 344.378182 307.584 
L 357.905455 307.584 
L 371.432727 307.584 
L 384.96 307.584 
L 398.487273 307.584 
L 398.487273 307.584 
L 398.487273 307.584 
L 384.96 307.584 
L 371.432727 307.584 
L 357.905455 307.584 
L 344.378182 307.584 
L 330.850909 307.584 
L 317.323636 307.584 
L 303.796364 307.584 
L 290.269091 307.584 
L 276.741818 307.584 
L 263.214545 307.584 
L 249.687273 307.584 
L 236.16 307.584 
L 222.632727 307.584 
L 209.105455 240 
L 195.578182 240 
L 182.050909 240 
L 168.523636 240 
L 154.996364 240 
L 141.469091 240 
L 127.941818 240 
L 114.414545 240 
L 100.887273 240 
L 87.36 240 
L 73.832727 285.056 
z
" style="fill:#7f7f7f;"/>
   </g>
   <g id="PolyCollection_9">
    <path clip-path="url(#p6fbd1b70cd)" d="M 73.832727 282.24 
L 73.832727 285.056 
L 87.36 240 
L 100.887273 240 
L 114.414545 240 
L 127.941818 240 
L 141.469091 240 
L 154.996364 240 
L 168.523636 240 
L 182.050909 240 
L 195.578182 240 
L 209.105455 240 
L 222.632727 307.584 
L 236.16 307.584 
L 249.687273 307.584 
L 263.214545 307.584 
L 276.741818 307.584 
L 290.269091 307.584 
L 303.796364 307.584 
L 317.323636 307.584 
L 330.850909 307.584 
L 344.378182 307.584 
L 357.905455 307.584 
L 371.432727 307.584 
L 384.96 307.584 
L 398.487273 307.584 
L 398.487273 307.584 
L 398.487273 307.584 
L 384.96 307.584 
L 371.432727 307.584 
L 357.905455 307.584 
L 344.378182 307.584 
L 330.850909 307.584 
L 317.323636 307.584 
L 303.796364 307.584 
L 290.269091 307.584 
L 276.741818 307.584 
L 263.214545 307.584 
L 249.687273 307.584 
L 236.16 307.584 
L 222.632727 307.584 
L 209.105455 231.552 
L 195.578182 231.552 
L 182.050909 231.552 
L 168.523636 231.552 
L 154.996364 231.552 
L 141.469091 231.552 
L 127.941818 231.552 
L 114.414545 231.552 
L 100.887273 231.552 
L 87.36 231.552 
L 73.832727 282.24 
z
" style="fill:#bcbd22;"/>
   </g>
   <g id="PolyCollection_10">
    <path clip-path="url(#p6fbd1b70cd)" d="M 73.832727 279.424 
L 73.832727 282.24 
L 87.36 231.552 
L 100.887273 231.552 
L 114.414545 231.552 
L 127.941818 231.552 
L 141.469091 231.552 
L 154.996364 231.552 
L 168.523636 231.552 
L 182.050909 231.552 
L 195.578182 231.552 
L 209.105455 231.552 
L 222.632727 307.584 
L 236.16 307.584 
L 249.687273 307.584 
L 263.214545 307.584 
L 276.741818 307.584 
L 290.269091 307.584 
L 303.796364 307.584 
L 317.323636 307.584 
L 330.850909 307.584 
L 344.378182 307.584 
L 357.905455 307.584 
L 371.432727 307.584 
L 384.96 307.584 
L 398.487273 307.584 
L 398.487273 307.584 
L 398.487273 307.584 
L 384.96 307.584 
L 371.432727 307.584 
L 357.905455 307.584 
L 344.378182 307.584 
L 330.850909 307.584 
L 317.323636 307.584 
L 303.796364 307.584 
L 290.269091 307.584 
L 276.741818 307.584 
L 263.214545 307.584 
L 249.687273 307.584 
L 236.16 307.584 
L 222.632727 307.584 
L 209.105455 223.104 
L 195.578182 223.104 
L 182.050909 223.104 
L 168.523636 223.104 
L 154.996364 223.104 
L 141.469091 223.104 
L 127.941818 223.104 
L 114.414545 223.104 
L 100.887273 223.104 
L 87.36 223.104 
L 73.832727 279.424 
z
" style="fill:#17becf;"/>
   </g>
   <g id="PolyCollection_11">
    <path clip-path="url(#p6fbd1b70cd)" d="M 73.832727 276.608 
L 73.832727 279.424 
L 87.36 223.104 
L 100.887273 223.104 
L 114.414545 223.104 
L 127.941818 223.104 
L 141.469091 223.104 
L 154.996364 223.104 
L 168.523636 223.104 
L 182.050909 223.104 
L 195.578182 223.104 
L 209.105455 223.104 
L 222.632727 307.584 
L 236.16 307.584 
L 249.687273 307.584 
L 263.214545 307.584 
L 276.741818 307.584 
L 290.269091 307.584 
L 303.796364 307.584 
L 317.323636 307.584 
L 330.850909 307.584 
L 344.378182 307.584 
L 357.905455 307.584 
L 371.432727 307.584 
L 384.96 307.584 
L 398.487273 307.584 
L 398.487273 307.584 
L 398.487273 307.584 
L 384.96 307.584 
L 371.432727 307.584 
L 357.905455 307.584 
L 344.378182 307.584 
L 330.850909 307.584 
L 317.323636 307.584 
L 303.796364 307.584 
L 290.269091 307.584 
L 276.741818 307.584 
L 263.214545 307.584 
L 249.687273 307.584 
L 236.16 307.584 
L 222.632727 307.584 
L 209.105455 214.656 
L 195.578182 214.656 
L 182.050909 214.656 
L 168.523636 214.656 
L 154.996364 214.656 
L 141.469091 214.656 
L 127.941818 214.656 
L 114.414545 214.656 
L 100.887273 214.656 
L 87.36 214.656 
L 73.832727 276.608 
z
" style="fill:#1f77b4;"/>
   </g>
   <g id="PolyCollection_12">
    <path clip-path="url(#p6fbd1b70cd)" d="M 73.832727 273.792 
L 73.832727 276.608 
L 87.36 214.656 
L 100.887273 214.656 
L 114.414545 214.656 
L 127.941818 214.656 
L 141.469091 214.656 
L 154.996364 214.656 
L 168.523636 214.656 
L 182.050909 214.656 
L 195.578182 214.656 
L 209.105455 214.656 
L 222.632727 307.584 
L 236.16 307.584 
L 249.687273 307.584 
L 263.214545 307.584 
L 276.741818 307.584 
L 290.269091 307.584 
L 303.796364 307.584 
L 317.323636 307.584 
L 330.850909 307.584 
L 344.378182 307.584 
L 357.905455 307.584 
L 371.432727 307.584 
L 384.96 307.584 
L 398.487273 307.584 
L 398.487273 307.584 
L 398.487273 307.584 
L 384.96 307.584 
L 371.432727 307.584 
L 357.905455 307.584 
L 344.378182 307.584 
L 330.850909 307.584 
L 317.323636 307.584 
L 303.796364 307.584 
L 290.269091 307.584 
L 276.741818 307.584 
L 263.214545 307.584 
L 249.687273 307.584 
L 236.16 307.584 
L 222.632727 307.584 
L 209.105455 206.208 
L 195.578182 206.208 
L 182.050909 206.208 
L 168.523636 206.208 
L 154.996364 206.208 
L 141.469091 206.208 
L 127.941818 206.208 
L 114.414545 206.208 
L 100.887273 206.208 
L 87.36 206.208 
L 73.832727 273.792 
z
" style="fill:#ff7f0e;"/>
   </g>
   <g id="PolyCollection_13">
    <path clip-path="url(#p6fbd1b70cd)" d="M 73.832727 270.976 
L 73.832727 273.792 
L 87.36 206.208 
L 100.887273 206.208 
L 114.414545 206.208 
L 127.941818 206.208 
L 141.469091 206.208 
L 154.996364 206.208 
L 168.523636 206.208 
L 182.050909 206.208 
L 195.578182 206.208 
L 209.105455 206.208 
L 222.632727 307.584 
L 236.16 307.584 
L 249.687273 307.584 
L 263.214545 307.584 
L 276.741818 307.584 
L 290.269091 307.584 
L 303.796364 307.584 
L 317.323636 307.584 
L 330.850909 307.584 
L 344.378182 307.584 
L 357.905455 307.584 
L 371.432727 307.584 
L 384.96 307.584 
L 398.487273 307.584 
L 398.487273 307.584 
L 398.487273 307.584 
L 384.96 307.584 
L 371.432727 307.584 
L 357.905455 307.584 
L 344.378182 307.584 
L 330.850909 307.584 
L 317.323636 307.584 
L 303.796364 307.584 
L 290.269091 307.584 
L 276.741818 307.584 
L 263.214545 307.584 
L 249.687273 307.584 
L 236.16 307.584 
L 222.632727 307.584 
L 209.105455 197.76 
L 195.578182 197.76 
L 182.050909 197.76 
L 168.523636 197.76 
L 154.996364 197.76 
L 141.469091 197.76 
L 127.941818 197.76 
L 114.414545 197.76 
L 100.887273 197.76 
L 87.36 197.76 
L 73.832727 270.976 
z
" style="fill:#2ca02c;"/>
   </g>
   <g id="PolyCollection_14">
    <path clip-path="url(#p6fbd1b70cd)" d="M 73.832727 268.16 
L 73.832727 270.976 
L 87.36 197.76 
L 100.887273 197.76 
L 114.414545 197.76 
L 127.941818 197.76 
L 141.469091 197.76 
L 154.996364 197.76 
L 168.523636 197.76 
L 182.050909 197.76 
L 195.578182 197.76 
L 209.105455 197.76 
L 222.632727 307.584 
L 236.16 307.584 
L 249.687273 307.584 
L 263.214545 307.584 
L 276.741818 307.584 
L 290.269091 307.584 
L 303.796364 307.584 
L 317.323636 307.584 
L 330.850909 307.584 
L 344.378182 307.584 
L 357.905455 307.584 
L 371.432727 307.584 
L 384.96 307.584 
L 398.487273 307.584 
L 398.487273 307.584 
L 398.487273 307.584 
L 384.96 307.584 
L 371.432727 307.584 
L 357.905455 307.584 
L 344.378182 307.584 
L 330.850909 307.584 
L 317.323636 307.584 
L 303.796364 307.584 
L 290.269091 307.584 
L 276.741818 307.584 
L 263.214545 307.584 
L 249.687273 307.584 
L 236.16 307.584 
L 222.632727 307.584 
L 209.105455 189.312 
L 195.578182 189.312 
L 182.050909 189.312 
L 168.523636 189.312 
L 154.996364 189.312 
L 141.469091 189.312 
L 127.941818 189.312 
L 114.414545 189.312 
L 100.887273 189.312 
L 87.36 189.312 
L 73.832727 268.16 
z
" style="fill:#d62728;"/>
   </g>
   <g id="PolyCollection_15">
    <path clip-path="url(#p6fbd1b70cd)" d="M 73.832727 265.344 
L 73.832727 268.16 
L 87.36 189.312 
L 100.887273 189.312 
L 114.414545 189.312 
L 127.941818 189.312 
L 141.469091 189.312 
L 154.996364 189.312 
L 168.523636 189.312 
L 182.050909 189.312 
L 195.578182 189.312 
L 209.105455 189.312 
L 222.632727 307.584 
L 236.16 307.584 
L 249.687273 307.584 
L 263.214545 307.584 
L 276.741818 307.584 
L 290.269091 307.584 
L 303.796364 307.584 
L 317.323636 307.584 
L 330.850909 307.584 
L 344.378182 307.584 
L 357.905455 307.584 
L 371.432727 307.584 
L 384.96 307.584 
L 398.487273 307.584 
L 398.487273 307.584 
L 398.487273 307.584 
L 384.96 307.584 
L 371.432727 307.584 
L 357.905455 307.584 
L 344.378182 307.584 
L 330.850909 307.584 
L 317.323636 307.584 
L 303.796364 307.584 
L 290.269091 307.584 
L 276.741818 307.584 
L 263.214545 307.584 
L 249.687273 307.584 
L 236.16 307.584 
L 222.632727 307.584 
L 209.105455 180.864 
L 195.578182 180.864 
L 182.050909 180.864 
L 168.523636 180.864 
L 154.996364 180.864 
L 141.469091 180.864 
L 127.941818 180.864 
L 114.414545 180.864 
L 100.887273 180.864 
L 87.36 180.864 
L 73.832727 265.344 
z
" style="fill:#9467bd;"/>
   </g>
   <g id="PolyCollection_16">
    <path clip-path="url(#p6fbd1b70cd)" d="M 73.832727 262.528 
L 73.832727 265.344 
L 87.36 180.864 
L 100.887273 180.864 
L 114.414545 180.864 
L 127.941818 180.864 
L 141.469091 180.864 
L 154.996364 180.864 
L 168.523636 180.864 
L 182.050909 180.864 
L 195.578182 180.864 
L 209.105455 180.864 
L 222.632727 307.584 
L 236.16 307.584 
L 249.687273 307.584 
L 263.214545 307.584 
L 276.741818 307.584 
L 290.269091 307.584 
L 303.796364 307.584 
L 317.323636 307.584 
L 330.850909 307.584 
L 344.378182 307.584 
L 357.905455 307.584 
L 371.432727 307.584 
L 384.96 307.584 
L 398.487273 307.584 
L 398.487273 307.584 
L 398.487273 307.584 
L 384.96 307.584 
L 371.432727 307.584 
L 357.905455 307.584 
L 344.378182 307.584 
L 330.850909 307.584 
L 317.323636 307.584 
L 303.796364 307.584 
L 290.269091 307.584 
L 276.741818 307.584 
L 263.214545 307.584 
L 249.687273 307.584 
L 236.16 307.584 
L 222.632727 307.584 
L 209.105455 172.416 
L 195.578182 172.416 
L 182.050909 172.416 
L 168.523636 172.416 
L 154.996364 172.416 
L 141.469091 172.416 
L 127.941818 172.416 
L 114.414545 172.416 
L 100.887273 172.416 
L 87.36 172.416 
L 73.832727 262.528 
z
" style="fill:#8c564b;"/>
   </g>
   <g id="PolyCollection_17">
    <path clip-path="url(#p6fbd1b70cd)" d="M 73.832727 259.712 
L 73.832727 262.528 
L 87.36 172.416 
L 100.887273 172.416 
L 114.414545 172.416 
L 127.941818 172.416 
L 141.469091 172.416 
L 154.996364 172.416 
L 168.523636 172.416 
L 182.050909 172.416 
L 195.578182 172.416 
L 209.105455 172.416 
L 222.632727 307.584 
L 236.16 307.584 
L 249.687273 307.584 
L 263.214545 307.584 
L 276.741818 307.584 
L 290.269091 307.584 
L 303.796364 307.584 
L 317.323636 307.584 
L 330.850909 307.584 
L 344.378182 307.584 
L 357.905455 307.584 
L 371.432727 307.584 
L 384.96 307.584 
L 398.487273 307.584 
L 398.487273 307.584 
L 398.487273 307.584 
L 384.96 307.584 
L 371.432727 307.584 
L 357.905455 307.584 
L 344.378182 307.584 
L 330.850909 307.584 
L 317.323636 307.584 
L 303.796364 307.584 
L 290.269091 307.584 
L 276.741818 307.584 
L 263.214545 307.584 
L 249.687273 307.584 
L 236.16 307.584 
L 222.632727 307.584 
L 209.105455 163.968 
L 195.578182 163.968 
L 182.050909 163.968 
L 168.523636 163.968 
L 154.996364 163.968 
L 141.469091 163.968 
L 127.941818 163.968 
L 114.414545 163.968 
L 100.887273 163.968 
L 87.36 163.968 
L 73.832727 259.712 
z
" style="fill:#e377c2;"/>
   </g>
   <g id="PolyCollection_18">
    <path clip-path="url(#p6fbd1b70cd)" d="M 73.832727 256.896 
L 73.832727 259.712 
L 87.36 163.968 
L 100.887273 163.968 
L 114.414545 163.968 
L 127.941818 163.968 
L 141.469091 163.968 
L 154.996364 163.968 
L 168.523636 163.968 
L 182.050909 163.968 
L 195.578182 163.968 
L 209.105455 163.968 
L 222.632727 307.584 
L 236.16 307.584 
L 249.687273 307.584 
L 263.214545 307.584 
L 276.741818 307.584 
L 290.269091 307.584 
L 303.796364 307.584 
L 317.323636 307.584 
L 330.850909 307.584 
L 344.378182 307.584 
L 357.905455 307.584 
L 371.432727 307.584 
L 384.96 307.584 
L 398.487273 307.584 
L 398.487273 307.584 
L 398.487273 307.584 
L 384.96 307.584 
L 371.432727 307.584 
L 357.905455 307.584 
L 344.378182 307.584 
L 330.850909 307.584 
L 317.323636 307.584 
L 303.796364 307.584 
L 290.269091 307.584 
L 276.741818 307.584 
L 263.214545 307.584 
L 249.687273 307.584 
L 236.16 307.584 
L 222.632727 307.584 
L 209.105455 155.52 
L 195.578182 155.52 
L 182.050909 155.52 
L 168.523636 155.52 
L 154.996364 155.52 
L 141.469091 155.52 
L 127.941818 155.52 
L 114.414545 155.52 
L 100.887273 155.52 
L 87.36 155.52 
L 73.832727 256.896 
z
" style="fill:#7f7f7f;"/>
   </g>
   <g id="PolyCollection_19">
    <path clip-path="url(#p6fbd1b70cd)" d="M 73.832727 254.08 
L 73.832727 256.896 
L 87.36 155.52 
L 100.887273 155.52 
L 114.414545 155.52 
L 127.941818 155.52 
L 141.469091 155.52 
L 154.996364 155.52 
L 168.523636 155.52 
L 182.050909 155.52 
L 195.578182 155.52 
L 209.105455 155.52 
L 222.632727 307.584 
L 236.16 307.584 
L 249.687273 307.584 
L 263.214545 307.584 
L 276.741818 307.584 
L 290.269091 307.584 
L 303.796364 307.584 
L 317.323636 307.584 
L 330.850909 307.584 
L 344.378182 307.584 
L 357.905455 307.584 
L 371.432727 307.584 
L 384.96 307.584 
L 398.487273 307.584 
L 398.487273 307.584 
L 398.487273 307.584 
L 384.96 307.584 
L 371.432727 307.584 
L 357.905455 307.584 
L 344.378182 307.584 
L 330.850909 307.584 
L 317.323636 307.584 
L 303.796364 307.584 
L 290.269091 307.584 
L 276.741818 307.584 
L 263.214545 307.584 
L 249.687273 307.584 
L 236.16 307.584 
L 222.632727 307.584 
L 209.105455 147.072 
L 195.578182 147.072 
L 182.050909 147.072 
L 168.523636 147.072 
L 154.996364 147.072 
L 141.469091 147.072 
L 127.941818 147.072 
L 114.414545 147.072 
L 100.887273 147.072 
L 87.36 147.072 
L 73.832727 254.08 
z
" style="fill:#bcbd22;"/>
   </g>
   <g id="PolyCollection_20">
    <path clip-path="url(#p6fbd1b70cd)" d="M 73.832727 251.264 
L 73.832727 254.08 
L 87.36 147.072 
L 100.887273 147.072 
L 114.414545 147.072 
L 127.941818 147.072 
L 141.469091 147.072 
L 154.996364 147.072 
L 168.523636 147.072 
L 182.050909 147.072 
L 195.578182 147.072 
L 209.105455 147.072 
L 222.632727 307.584 
L 236.16 307.584 
L 249.687273 307.584 
L 263.214545 307.584 
L 276.741818 307.584 
L 290.269091 307.584 
L 303.796364 307.584 
L 317.323636 307.584 
L 330.850909 307.584 
L 344.378182 307.584 
L 357.905455 307.584 
L 371.432727 307.584 
L 384.96 307.584 
L 398.487273 307.584 
L 398.487273 307.584 
L 398.487273 307.584 
L 384.96 307.584 
L 371.432727 307.584 
L 357.905455 307.584 
L 344.378182 307.584 
L 330.850909 307.584 
L 317.323636 307.584 
L 303.796364 307.584 
L 290.269091 307.584 
L 276.741818 307.584 
L 263.214545 307.584 
L 249.687273 307.584 
L 236.16 307.584 
L 222.632727 307.584 
L 209.105455 138.624 
L 195.578182 138.624 
L 182.050909 138.624 
L 168.523636 138.624 
L 154.996364 138.624 
L 141.469091 138.624 
L 127.941818 138.624 
L 114.414545 138.624 
L 100.887273 138.624 
L 87.36 138.624 
L 73.832727 251.264 
z
" style="fill:#17becf;"/>
   </g>
   <g id="PolyCollection_21">
    <path clip-path="url(#p6fbd1b70cd)" d="M 73.832727 248.448 
L 73.832727 251.264 
L 87.36 138.624 
L 100.887273 138.624 
L 114.414545 138.624 
L 127.941818 138.624 
L 141.469091 138.624 
L 154.996364 138.624 
L 168.523636 138.624 
L 182.050909 138.624 
L 195.578182 138.624 
L 209.105455 138.624 
L 222.632727 307.584 
L 236.16 307.584 
L 249.687273 307.584 
L 263.214545 307.584 
L 276.741818 307.584 
L 290.269091 307.584 
L 303.796364 307.584 
L 317.323636 307.584 
L 330.850909 307.584 
L 344.378182 307.584 
L 357.905455 307.584 
L 371.432727 307.584 
L 384.96 307.584 
L 398.487273 307.584 
L 398.487273 307.584 
L 398.487273 307.584 
L 384.96 307.584 
L 371.432727 307.584 
L 357.905455 307.584 
L 344.378182 307.584 
L 330.850909 307.584 
L 317.323636 307.584 
L 303.796364 307.584 
L 290.269091 307.584 
L 276.741818 307.584 
L 263.214545 307.584 
L 249.687273 307.584 
L 236.16 307.584 
L 222.632727 307.584 
L 209.105455 130.176 
L 195.578182 130.176 
L 182.050909 130.176 
L 168.523636 130.176 
L 154.996364 130.176 
L 141.469091 130.176 
L 127.941818 130.176 
L 114.414545 130.176 
L 100.887273 130.176 
L 87.36 130.176 
L 73.832727 248.448 
z
" style="fill:#1f77b4;"/>
   </g>
   <g id="PolyCollection_22">
    <path clip-path="url(#p6fbd1b70cd)" d="M 73.832727 245.632 
L 73.832727 248.448 
L 87.36 130.176 
L 100.887273 130.176 
L 114.414545 130.176 
L 127.941818 130.176 
L 141.469091 130.176 
L 154.996364 130.176 
L 168.523636 130.176 
L 182.050909 130.176 
L 195.578182 130.176 
L 209.105455 130.176 
L 222.632727 307.584 
L 236.16 307.584 
L 249.687273 307.584 
L 263.214545 307.584 
L 276.741818 307.584 
L 290.269091 307.584 
L 303.796364 307.584 
L 317.323636 307.584 
L 330.850909 307.584 
L 344.378182 307.584 
L 357.905455 307.584 
L 371.432727 307.584 
L 384.96 307.584 
L 398.487273 307.584 
L 398.487273 307.584 
L 398.487273 307.584 
L 384.96 307.584 
L 371.432727 307.584 
L 357.905455 307.584 
L 344.378182 307.584 
L 330.850909 307.584 
L 317.323636 307.584 
L 303.796364 307.584 
L 290.269091 307.584 
L 276.741818 307.584 
L 263.214545 307.584 
L 249.687273 307.584 
L 236.16 307.584 
L 222.632727 307.584 
L 209.105455 121.728 
L 195.578182 121.728 
L 182.050909 121.728 
L 168.523636 121.728 
L 154.996364 121.728 
L 141.469091 121.728 
L 127.941818 121.728 
L 114.414545 121.728 
L 100.887273 121.728 
L 87.36 121.728 
L 73.832727 245.632 
z
" style="fill:#ff7f0e;"/>
   </g>
   <g id="PolyCollection_23">
    <path clip-path="url(#p6fbd1b70cd)" d="M 73.832727 242.816 
L 73.832727 245.632 
L 87.36 121.728 
L 100.887273 121.728 
L 114.414545 121.728 
L 127.941818 121.728 
L 141.469091 121.728 
L 154.996364 121.728 
L 168.523636 121.728 
L 182.050909 121.728 
L 195.578182 121.728 
L 209.105455 121.728 
L 222.632727 307.584 
L 236.16 307.584 
L 249.687273 307.584 
L 263.214545 307.584 
L 276.741818 307.584 
L 290.269091 307.584 
L 303.796364 307.584 
L 317.323636 307.584 
L 330.850909 307.584 
L 344.378182 307.584 
L 357.905455 307.584 
L 371.432727 307.584 
L 384.96 307.584 
L 398.487273 307.584 
L 398.487273 307.584 
L 398.487273 307.584 
L 384.96 307.584 
L 371.432727 307.584 
L 357.905455 307.584 
L 344.378182 307.584 
L 330.850909 307.584 
L 317.323636 307.584 
L 303.796364 307.584 
L 290.269091 307.584 
L 276.741818 307.584 
L 263.214545 307.584 
L 249.687273 307.584 
L 236.16 307.584 
L 222.632727 307.584 
L 209.105455 113.28 
L 195.578182 113.28 
L 182.050909 113.28 
L 168.523636 113.28 
L 154.996364 113.28 
L 141.469091 113.28 
L 127.941818 113.28 
L 114.414545 113.28 
L 100.887273 113.28 
L 87.36 113.28 
L 73.832727 242.816 
z
" style="fill:#2ca02c;"/>
   </g>
   <g id="PolyCollection_24">
    <path clip-path="url(#p6fbd1b70cd)" d="M 73.832727 240 
L 73.832727 242.816 
L 87.36 113.28 
L 100.887273 113.28 
L 114.414545 113.28 
L 127.941818 113.28 
L 141.469091 113.28 
L 154.996364 113.28 
L 168.523636 113.28 
L 182.050909 113.28 
L 195.578182 113.28 
L 209.105455 113.28 
L 222.632727 307.584 
L 236.16 307.584 
L 249.687273 307.584 
L 263.214545 307.584 
L 276.741818 307.584 
L 290.269091 307.584 
L 303.796364 307.584 
L 317.323636 307.584 
L 330.850909 307.584 
L 344.378182 307.584 
L 357.905455 307.584 
L 371.432727 307.584 
L 384.96 307.584 
L 398.487273 307.584 
L 398.487273 307.584 
L 398.487273 307.584 
L 384.96 307.584 
L 371.432727 307.584 
L 357.905455 307.584 
L 344.378182 307.584 
L 330.850909 307.584 
L 317.323636 307.584 
L 303.796364 307.584 
L 290.269091 307.584 
L 276.741818 307.584 
L 263.214545 307.584 
L 249.687273 307.584 
L 236.16 307.584 
L 222.632727 307.584 
L 209.105455 104.832 
L 195.578182 104.832 
L 182.050909 104.832 
L 168.523636 104.832 
L 154.996364 104.832 
L 141.469091 104.832 
L 127.941818 104.832 
L 114.414545 104.832 
L 100.887273 104.832 
L 87.36 104.832 
L 73.832727 240 
z
" style="fill:#d62728;"/>
   </g>
   <g id="PolyCollection_25">
    <path clip-path="url(#p6fbd1b70cd)" d="M 73.832727 237.184 
L 73.832727 240 
L 87.36 104.832 
L 100.887273 104.832 
L 114.414545 104.832 
L 127.941818 104.832 
L 141.469091 104.832 
L 154.996364 104.832 
L 168.523636 104.832 
L 182.050909 104.832 
L 195.578182 104.832 
L 209.105455 104.832 
L 222.632727 307.584 
L 236.16 307.584 
L 249.687273 307.584 
L 263.214545 307.584 
L 276.741818 307.584 
L 290.269091 307.584 
L 303.796364 307.584 
L 317.323636 307.584 
L 330.850909 307.584 
L 344.378182 307.584 
L 357.905455 307.584 
L 371.432727 307.584 
L 384.96 307.584 
L 398.487273 307.584 
L 398.487273 307.584 
L 398.487273 307.584 
L 384.96 307.584 
L 371.432727 307.584 
L 357.905455 307.584 
L 344.378182 307.584 
L 330.850909 307.584 
L 317.323636 307.584 
L 303.796364 307.584 
L 290.269091 307.584 
L 276.741818 307.584 
L 263.214545 307.584 
L 249.687273 307.584 
L 236.16 307.584 
L 222.632727 307.584 
L 209.105455 96.384 
L 195.578182 96.384 
L 182.050909 96.384 
L 168.523636 96.384 
L 154.996364 96.384 
L 141.469091 96.384 
L 127.941818 96.384 
L 114.414545 96.384 
L 100.887273 96.384 
L 87.36 96.384 
L 73.832727 237.184 
z
" style="fill:#9467bd;"/>
   </g>
   <g id="PolyCollection_26">
    <path clip-path="url(#p6fbd1b70cd)" d="M 73.832727 234.368 
L 73.832727 237.184 
L 87.36 96.384 
L 100.887273 96.384 
L 114.414545 96.384 
L 127.941818 96.384 
L 141.469091 96.384 
L 154.996364 96.384 
L 168.523636 96.384 
L 182.050909 96.384 
L 195.578182 96.384 
L 209.105455 96.384 
L 222.632727 307.584 
L 236.16 307.584 
L 249.687273 307.584 
L 263.214545 307.584 
L 276.741818 307.584 
L 290.269091 307.584 
L 303.796364 307.584 
L 317.323636 307.584 
L 330.850909 307.584 
L 344.378182 307.584 
L 357.905455 307.584 
L 371.432727 307.584 
L 384.96 307.584 
L 398.487273 307.584 
L 398.487273 307.584 
L 398.487273 307.584 
L 384.96 307.584 
L 371.432727 307.584 
L 357.905455 307.584 
L 344.378182 307.584 
L 330.850909 307.584 
L 317.323636 307.584 
L 303.796364 307.584 
L 290.269091 307.584 
L 276.741818 307.584 
L 263.214545 307.584 
L 249.687273 307.584 
L 236.16 307.584 
L 222.632727 307.584 
L 209.105455 87.936 
L 195.578182 87.936 
L 182.050909 87.936 
L 168.523636 87.936 
L 154.996364 87.936 
L 141.469091 87.936 
L 127.941818 87.936 
L 114.414545 87.936 
L 100.887273 87.936 
L 87.36 87.936 
L 73.832727 234.368 
z
" style="fill:#8c564b;"/>
   </g>
   <g id="PolyCollection_27">
    <path clip-path="url(#p6fbd1b70cd)" d="M 73.832727 231.552 
L 73.832727 234.368 
L 87.36 87.936 
L 100.887273 87.936 
L 114.414545 87.936 
L 127.941818 87.936 
L 141.469091 87.936 
L 154.996364 87.936 
L 168.523636 87.936 
L 182.050909 87.936 
L 195.578182 87.936 
L 209.105455 87.936 
L 222.632727 307.584 
L 236.16 307.584 
L 249.687273 307.584 
L 263.214545 307.584 
L 276.741818 307.584 
L 290.269091 307.584 
L 303.796364 307.584 
L 317.323636 307.584 
L 330.850909 307.584 
L 344.378182 307.584 
L 357.905455 307.584 
L 371.432727 307.584 
L 384.96 307.584 
L 398.487273 307.584 
L 398.487273 307.584 
L 398.487273 307.584 
L 384.96 307.584 
L 371.432727 307.584 
L 357.905455 307.584 
L 344.378182 307.584 
L 330.850909 307.584 
L 317.323636 307.584 
L 303.796364 307.584 
L 290.269091 307.584 
L 276.741818 307.584 
L 263.214545 307.584 
L 249.687273 307.584 
L 236.16 307.584 
L 222.632727 307.584 
L 209.105455 79.488 
L 195.578182 79.488 
L 182.050909 79.488 
L 168.523636 79.488 
L 154.996364 79.488 
L 141.469091 79.488 
L 127.941818 79.488 
L 114.414545 79.488 
L 100.887273 79.488 
L 87.36 79.488 
L 73.832727 231.552 
z
" style="fill:#e377c2;"/>
   </g>
   <g id="PolyCollection_28">
    <path clip-path="url(#p6fbd1b70cd)" d="M 73.832727 228.736 
L 73.832727 231.552 
L 87.36 79.488 
L 100.887273 79.488 
L 114.414545 79.488 
L 127.941818 79.488 
L 141.469091 79.488 
L 154.996364 79.488 
L 168.523636 79.488 
L 182.050909 79.488 
L 195.578182 79.488 
L 209.105455 79.488 
L 222.632727 307.584 
L 236.16 307.584 
L 249.687273 307.584 
L 263.214545 307.584 
L 276.741818 307.584 
L 290.269091 307.584 
L 303.796364 307.584 
L 317.323636 307.584 
L 330.850909 307.584 
L 344.378182 307.584 
L 357.905455 307.584 
L 371.432727 307.584 
L 384.96 307.584 
L 398.487273 307.584 
L 398.487273 307.584 
L 398.487273 307.584 
L 384.96 307.584 
L 371.432727 307.584 
L 357.905455 307.584 
L 344.378182 307.584 
L 330.850909 307.584 
L 317.323636 307.584 
L 303.796364 307.584 
L 290.269091 307.584 
L 276.741818 307.584 
L 263.214545 307.584 
L 249.687273 307.584 
L 236.16 307.584 
L 222.632727 307.584 
L 209.105455 71.04 
L 195.578182 71.04 
L 182.050909 71.04 
L 168.523636 71.04 
L 154.996364 71.04 
L 141.469091 71.04 
L 127.941818 71.04 
L 114.414545 71.04 
L 100.887273 71.04 
L 87.36 71.04 
L 73.832727 228.736 
z
" style="fill:#7f7f7f;"/>
   </g>
   <g id="PolyCollection_29">
    <path clip-path="url(#p6fbd1b70cd)" d="M 73.832727 225.92 
L 73.832727 228.736 
L 87.36 71.04 
L 100.887273 71.04 
L 114.414545 71.04 
L 127.941818 71.04 
L 141.469091 71.04 
L 154.996364 71.04 
L 168.523636 71.04 
L 182.050909 71.04 
L 195.578182 71.04 
L 209.105455 71.04 
L 222.632727 307.584 
L 236.16 307.584 
L 249.687273 307.584 
L 263.214545 307.584 
L 276.741818 307.584 
L 290.269091 307.584 
L 303.796364 307.584 
L 317.323636 307.584 
L 330.850909 307.584 
L 344.378182 307.584 
L 357.905455 307.584 
L 371.432727 307.584 
L 384.96 307.584 
L 398.487273 307.584 
L 398.487273 307.584 
L 398.487273 307.584 
L 384.96 307.584 
L 371.432727 307.584 
L 357.905455 307.584 
L 344.378182 307.584 
L 330.850909 307.584 
L 317.323636 307.584 
L 303.796364 307.584 
L 290.269091 307.584 
L 276.741818 307.584 
L 263.214545 307.584 
L 249.687273 307.584 
L 236.16 307.584 
L 222.632727 307.584 
L 209.105455 62.592 
L 195.578182 62.592 
L 182.050909 62.592 
L 168.523636 62.592 
L 154.996364 62.592 
L 141.469091 62.592 
L 127.941818 62.592 
L 114.414545 62.592 
L 100.887273 62.592 
L 87.36 62.592 
L 73.832727 225.92 
z
" style="fill:#bcbd22;"/>
   </g>
   <g id="PolyCollection_30">
    <path clip-path="url(#p6fbd1b70cd)" d="M 73.832727 223.104 
L 73.832727 225.92 
L 87.36 62.592 
L 100.887273 62.592 
L 114.414545 62.592 
L 127.941818 62.592 
L 141.469091 62.592 
L 154.996364 62.592 
L 168.523636 62.592 
L 182.050909 62.592 
L 195.578182 62.592 
L 209.105455 62.592 
L 222.632727 307.584 
L 236.16 307.584 
L 249.687273 307.584 
L 263.214545 307.584 
L 276.741818 307.584 
L 290.269091 307.584 
L 303.796364 307.584 
L 317.323636 307.584 
L 330.850909 307.584 
L 344.378182 307.584 
L 357.905455 307.584 
L 371.432727 307.584 
L 384.96 307.584 
L 398.487273 307.584 
L 398.487273 307.584 
L 398.487273 307.584 
L 384.96 307.584 
L 371.432727 307.584 
L 357.905455 307.584 
L 344.378182 307.584 
L 330.850909 307.584 
L 317.323636 307.584 
L 303.796364 307.584 
L 290.269091 307.584 
L 276.741818 307.584 
L 263.214545 307.584 
L 249.687273 307.584 
L 236.16 307.584 
L 222.632727 307.584 
L 209.105455 54.144 
L 195.578182 54.144 
L 182.050909 54.144 
L 168.523636 54.144 
L 154.996364 54.144 
L 141.469091 54.144 
L 127.941818 54.144 
L 114.414545 54.144 
L 100.887273 54.144 
L 87.36 54.144 
L 73.832727 223.104 
z
" style="fill:#17becf;"/>
   </g>
   <g id="PolyCollection_31">
    <path clip-path="url(#p6fbd1b70cd)" d="M 73.832727 223.104 
L 73.832727 223.104 
L 87.36 54.144 
L 100.887273 54.144 
L 114.414545 54.144 
L 127.941818 54.144 
L 141.469091 54.144 
L 154.996364 54.144 
L 168.523636 54.144 
L 182.050909 54.144 
L 195.578182 54.144 
L 209.105455 54.144 
L 222.632727 307.584 
L 236.16 307.584 
L 249.687273 307.584 
L 263.214545 307.584 
L 276.741818 307.584 
L 290.269091 307.584 
L 303.796364 307.584 
L 317.323636 307.584 
L 330.850909 307.584 
L 344.378182 307.584 
L 357.905455 307.584 
L 371.432727 307.584 
L 384.96 307.584 
L 398.487273 307.584 
L 398.487273 307.584 
L 398.487273 307.584 
L 384.96 307.584 
L 371.432727 307.584 
L 357.905455 299.136 
L 344.378182 299.136 
L 330.850909 299.136 
L 317.323636 299.136 
L 303.796364 299.136 
L 290.269091 299.136 
L 276.741818 299.136 
L 263.214545 299.136 
L 249.687273 299.136 
L 236.16 299.136 
L 222.632727 304.768 
L 209.105455 54.144 
L 195.578182 54.144 
L 182.050909 54.144 
L 168.523636 54.144 
L 154.996364 54.144 
L 141.469091 54.144 
L 127.941818 54.144 
L 114.414545 54.144 
L 100.887273 54.144 
L 87.36 54.144 
L 73.832727 223.104 
z
" style="fill:#1f77b4;"/>
   </g>
   <g id="PolyCollection_32">
    <path clip-path="url(#p6fbd1b70cd)" d="M 73.832727 223.104 
L 73.832727 223.104 
L 87.36 54.144 
L 100.887273 54.144 
L 114.414545 54.144 
L 127.941818 54.144 
L 141.469091 54.144 
L 154.996364 54.144 
L 168.523636 54.144 
L 182.050909 54.144 
L 195.578182 54.144 
L 209.105455 54.144 
L 222.632727 304.768 
L 236.16 299.136 
L 249.687273 299.136 
L 263.214545 299.136 
L 276.741818 299.136 
L 290.269091 299.136 
L 303.796364 299.136 
L 317.323636 299.136 
L 330.850909 299.136 
L 344.378182 299.136 
L 357.905455 299.136 
L 371.432727 307.584 
L 384.96 307.584 
L 398.487273 307.584 
L 398.487273 307.584 
L 398.487273 307.584 
L 384.96 307.584 
L 371.432727 307.584 
L 357.905455 290.688 
L 344.378182 290.688 
L 330.850909 290.688 
L 317.323636 290.688 
L 303.796364 290.688 
L 290.269091 290.688 
L 276.741818 290.688 
L 263.214545 290.688 
L 249.687273 290.688 
L 236.16 290.688 
L 222.632727 301.952 
L 209.105455 54.144 
L 195.578182 54.144 
L 182.050909 54.144 
L 168.523636 54.144 
L 154.996364 54.144 
L 141.469091 54.144 
L 127.941818 54.144 
L 114.414545 54.144 
L 100.887273 54.144 
L 87.36 54.144 
L 73.832727 223.104 
z
" style="fill:#ff7f0e;"/>
   </g>
   <g id="PolyCollection_33">
    <path clip-path="url(#p6fbd1b70cd)" d="M 73.832727 223.104 
L 73.832727 223.104 
L 87.36 54.144 
L 100.887273 54.144 
L 114.414545 54.144 
L 127.941818 54.144 
L 141.469091 54.144 
L 154.996364 54.144 
L 168.523636 54.144 
L 182.050909 54.144 
L 195.578182 54.144 
L 209.105455 54.144 
L 222.632727 301.952 
L 236.16 290.688 
L 249.687273 290.688 
L 263.214545 290.688 
L 276.741818 290.688 
L 290.269091 290.688 
L 303.796364 290.688 
L 317.323636 290.688 
L 330.850909 290.688 
L 344.378182 290.688 
L 357.905455 290.688 
L 371.432727 307.584 
L 384.96 307.584 
L 398.487273 307.584 
L 398.487273 307.584 
L 398.487273 307.584 
L 384.96 307.584 
L 371.432727 307.584 
L 357.905455 282.24 
L 344.378182 282.24 
L 330.850909 282.24 
L 317.323636 282.24 
L 303.796364 282.24 
L 290.269091 282.24 
L 276.741818 282.24 
L 263.214545 282.24 
L 249.687273 282.24 
L 236.16 282.24 
L 222.632727 299.136 
L 209.105455 54.144 
L 195.578182 54.144 
L 182.050909 54.144 
L 168.523636 54.144 
L 154.996364 54.144 
L 141.469091 54.144 
L 127.941818 54.144 
L 114.414545 54.144 
L 100.887273 54.144 
L 87.36 54.144 
L 73.832727 223.104 
z
" style="fill:#2ca02c;"/>
   </g>
   <g id="PolyCollection_34">
    <path clip-path="url(#p6fbd1b70cd)" d="M 73.832727 223.104 
L 73.832727 223.104 
L 87.36 54.144 
L 100.887273 54.144 
L 114.414545 54.144 
L 127.941818 54.144 
L 141.469091 54.144 
L 154.996364 54.144 
L 168.523636 54.144 
L 182.050909 54.144 
L 195.578182 54.144 
L 209.105455 54.144 
L 222.632727 299.136 
L 236.16 282.24 
L 249.687273 282.24 
L 263.214545 282.24 
L 276.741818 282.24 
L 290.269091 282.24 
L 303.796364 282.24 
L 317.323636 282.24 
L 330.850909 282.24 
L 344.378182 282.24 
L 357.905455 282.24 
L 371.432727 307.584 
L 384.96 307.584 
L 398.487273 307.584 
L 398.487273 307.584 
L 398.487273 307.584 
L 384.96 307.584 
L 371.432727 307.584 
L 357.905455 273.792 
L 344.378182 273.792 
L 330.850909 273.792 
L 317.323636 273.792 
L 303.796364 273.792 
L 290.269091 273.792 
L 276.741818 273.792 
L 263.214545 273.792 
L 249.687273 273.792 
L 236.16 273.792 
L 222.632727 296.32 
L 209.105455 54.144 
L 195.578182 54.144 
L 182.050909 54.144 
L 168.523636 54.144 
L 154.996364 54.144 
L 141.469091 54.144 
L 127.941818 54.144 
L 114.414545 54.144 
L 100.887273 54.144 
L 87.36 54.144 
L 73.832727 223.104 
z
" style="fill:#d62728;"/>
   </g>
   <g id="PolyCollection_35">
    <path clip-path="url(#p6fbd1b70cd)" d="M 73.832727 223.104 
L 73.832727 223.104 
L 87.36 54.144 
L 100.887273 54.144 
L 114.414545 54.144 
L 127.941818 54.144 
L 141.469091 54.144 
L 154.996364 54.144 
L 168.523636 54.144 
L 182.050909 54.144 
L 195.578182 54.144 
L 209.105455 54.144 
L 222.632727 296.32 
L 236.16 273.792 
L 249.687273 273.792 
L 263.214545 273.792 
L 276.741818 273.792 
L 290.269091 273.792 
L 303.796364 273.792 
L 317.323636 273.792 
L 330.850909 273.792 
L 344.378182 273.792 
L 357.905455 273.792 
L 371.432727 307.584 
L 384.96 307.584 
L 398.487273 307.584 
L 398.487273 270.976 
L 398.487273 270.976 
L 384.96 268.16 
L 371.432727 265.344 
L 357.905455 265.344 
L 344.378182 265.344 
L 330.850909 265.344 
L 317.323636 265.344 
L 303.796364 265.344 
L 290.269091 265.344 
L 276.741818 265.344 
L 263.214545 265.344 
L 249.687273 265.344 
L 236.16 265.344 
L 222.632727 293.504 
L 209.105455 54.144 
L 195.578182 54.144 
L 182.050909 54.144 
L 168.523636 54.144 
L 154.996364 54.144 
L 141.469091 54.144 
L 127.941818 54.144 
L 114.414545 54.144 
L 100.887273 54.144 
L 87.36 54.144 
L 73.832727 223.104 
z
" style="fill:#9467bd;"/>
   </g>
   <g id="PolyCollection_36">
    <path clip-path="url(#p6fbd1b70cd)" d="M 73.832727 223.104 
L 73.832727 223.104 
L 87.36 54.144 
L 100.887273 54.144 
L 114.414545 54.144 
L 127.941818 54.144 
L 141.469091 54.144 
L 154.996364 54.144 
L 168.523636 54.144 
L 182.050909 54.144 
L 195.578182 54.144 
L 209.105455 54.144 
L 222.632727 293.504 
L 236.16 265.344 
L 249.687273 265.344 
L 263.214545 265.344 
L 276.741818 265.344 
L 290.269091 265.344 
L 303.796364 265.344 
L 317.323636 265.344 
L 330.850909 265.344 
L 344.378182 265.344 
L 357.905455 265.344 
L 371.432727 265.344 
L 384.96 268.16 
L 398.487273 270.976 
L 398.487273 270.976 
L 398.487273 270.976 
L 384.96 268.16 
L 371.432727 265.344 
L 357.905455 256.896 
L 344.378182 256.896 
L 330.850909 256.896 
L 317.323636 256.896 
L 303.796364 256.896 
L 290.269091 256.896 
L 276.741818 256.896 
L 263.214545 256.896 
L 249.687273 256.896 
L 236.16 256.896 
L 222.632727 290.688 
L 209.105455 54.144 
L 195.578182 54.144 
L 182.050909 54.144 
L 168.523636 54.144 
L 154.996364 54.144 
L 141.469091 54.144 
L 127.941818 54.144 
L 114.414545 54.144 
L 100.887273 54.144 
L 87.36 54.144 
L 73.832727 223.104 
z
" style="fill:#8c564b;"/>
   </g>
   <g id="PolyCollection_37">
    <path clip-path="url(#p6fbd1b70cd)" d="M 73.832727 223.104 
L 73.832727 223.104 
L 87.36 54.144 
L 100.887273 54.144 
L 114.414545 54.144 
L 127.941818 54.144 
L 141.469091 54.144 
L 154.996364 54.144 
L 168.523636 54.144 
L 182.050909 54.144 
L 195.578182 54.144 
L 209.105455 54.144 
L 222.632727 290.688 
L 236.16 256.896 
L 249.687273 256.896 
L 263.214545 256.896 
L 276.741818 256.896 
L 290.269091 256.896 
L 303.796364 256.896 
L 317.323636 256.896 
L 330.850909 256.896 
L 344.378182 256.896 
L 357.905455 256.896 
L 371.432727 265.344 
L 384.96 268.16 
L 398.487273 270.976 
L 398.487273 270.976 
L 398.487273 270.976 
L 384.96 268.16 
L 371.432727 265.344 
L 357.905455 248.448 
L 344.378182 248.448 
L 330.850909 248.448 
L 317.323636 248.448 
L 303.796364 248.448 
L 290.269091 248.448 
L 276.741818 248.448 
L 263.214545 248.448 
L 249.687273 248.448 
L 236.16 248.448 
L 222.632727 287.872 
L 209.105455 54.144 
L 195.578182 54.144 
L 182.050909 54.144 
L 168.523636 54.144 
L 154.996364 54.144 
L 141.469091 54.144 
L 127.941818 54.144 
L 114.414545 54.144 
L 100.887273 54.144 
L 87.36 54.144 
L 73.832727 223.104 
z
" style="fill:#e377c2;"/>
   </g>
   <g id="PolyCollection_38">
    <path clip-path="url(#p6fbd1b70cd)" d="M 73.832727 223.104 
L 73.832727 223.104 
L 87.36 54.144 
L 100.887273 54.144 
L 114.414545 54.144 
L 127.941818 54.144 
L 141.469091 54.144 
L 154.996364 54.144 
L 168.523636 54.144 
L 182.050909 54.144 
L 195.578182 54.144 
L 209.105455 54.144 
L 222.632727 287.872 
L 236.16 248.448 
L 249.687273 248.448 
L 263.214545 248.448 
L 276.741818 248.448 
L 290.269091 248.448 
L 303.796364 248.448 
L 317.323636 248.448 
L 330.850909 248.448 
L 344.378182 248.448 
L 357.905455 248.448 
L 371.432727 265.344 
L 384.96 268.16 
L 398.487273 270.976 
L 398.487273 270.976 
L 398.487273 270.976 
L 384.96 268.16 
L 371.432727 265.344 
L 357.905455 240 
L 344.378182 240 
L 330.850909 240 
L 317.323636 240 
L 303.796364 240 
L 290.269091 240 
L 276.741818 240 
L 263.214545 240 
L 249.687273 240 
L 236.16 240 
L 222.632727 285.056 
L 209.105455 54.144 
L 195.578182 54.144 
L 182.050909 54.144 
L 168.523636 54.144 
L 154.996364 54.144 
L 141.469091 54.144 
L 127.941818 54.144 
L 114.414545 54.144 
L 100.887273 54.144 
L 87.36 54.144 
L 73.832727 223.104 
z
" style="fill:#7f7f7f;"/>
   </g>
   <g id="PolyCollection_39">
    <path clip-path="url(#p6fbd1b70cd)" d="M 73.832727 223.104 
L 73.832727 223.104 
L 87.36 54.144 
L 100.887273 54.144 
L 114.414545 54.144 
L 127.941818 54.144 
L 141.469091 54.144 
L 154.996364 54.144 
L 168.523636 54.144 
L 182.050909 54.144 
L 195.578182 54.144 
L 209.105455 54.144 
L 222.632727 285.056 
L 236.16 240 
L 249.687273 240 
L 263.214545 240 
L 276.741818 240 
L 290.269091 240 
L 303.796364 240 
L 317.323636 240 
L 330.850909 240 
L 344.378182 240 
L 357.905455 240 
L 371.432727 265.344 
L 384.96 268.16 
L 398.487273 270.976 
L 398.487273 270.976 
L 398.487273 270.976 
L 384.96 268.16 
L 371.432727 265.344 
L 357.905455 231.552 
L 344.378182 231.552 
L 330.850909 231.552 
L 317.323636 231.552 
L 303.796364 231.552 
L 290.269091 231.552 
L 276.741818 231.552 
L 263.214545 231.552 
L 249.687273 231.552 
L 236.16 231.552 
L 222.632727 282.24 
L 209.105455 54.144 
L 195.578182 54.144 
L 182.050909 54.144 
L 168.523636 54.144 
L 154.996364 54.144 
L 141.469091 54.144 
L 127.941818 54.144 
L 114.414545 54.144 
L 100.887273 54.144 
L 87.36 54.144 
L 73.832727 223.104 
z
" style="fill:#bcbd22;"/>
   </g>
   <g id="PolyCollection_40">
    <path clip-path="url(#p6fbd1b70cd)" d="M 73.832727 223.104 
L 73.832727 223.104 
L 87.36 54.144 
L 100.887273 54.144 
L 114.414545 54.144 
L 127.941818 54.144 
L 141.469091 54.144 
L 154.996364 54.144 
L 168.523636 54.144 
L 182.050909 54.144 
L 195.578182 54.144 
L 209.105455 54.144 
L 222.632727 282.24 
L 236.16 231.552 
L 249.687273 231.552 
L 263.214545 231.552 
L 276.741818 231.552 
L 290.269091 231.552 
L 303.796364 231.552 
L 317.323636 231.552 
L 330.850909 231.552 
L 344.378182 231.552 
L 357.905455 231.552 
L 371.432727 265.344 
L 384.96 268.16 
L 398.487273 270.976 
L 398.487273 270.976 
L 398.487273 270.976 
L 384.96 268.16 
L 371.432727 265.344 
L 357.905455 223.104 
L 344.378182 223.104 
L 330.850909 223.104 
L 317.323636 223.104 
L 303.796364 223.104 
L 290.269091 223.104 
L 276.741818 223.104 
L 263.214545 223.104 
L 249.687273 223.104 
L 236.16 223.104 
L 222.632727 279.424 
L 209.105455 54.144 
L 195.578182 54.144 
L 182.050909 54.144 
L 168.523636 54.144 
L 154.996364 54.144 
L 141.469091 54.144 
L 127.941818 54.144 
L 114.414545 54.144 
L 100.887273 54.144 
L 87.36 54.144 
L 73.832727 223.104 
z
" style="fill:#17becf;"/>
   </g>
   <g id="PolyCollection_41">
    <path clip-path="url(#p6fbd1b70cd)" d="M 73.832727 223.104 
L 73.832727 223.104 
L 87.36 54.144 
L 100.887273 54.144 
L 114.414545 54.144 
L 127.941818 54.144 
L 141.469091 54.144 
L 154.996364 54.144 
L 168.523636 54.144 
L 182.050909 54.144 
L 195.578182 54.144 
L 209.105455 54.144 
L 222.632727 279.424 
L 236.16 223.104 
L 249.687273 223.104 
L 263.214545 223.104 
L 276.741818 223.104 
L 290.269091 223.104 
L 303.796364 223.104 
L 317.323636 223.104 
L 330.850909 223.104 
L 344.378182 223.104 
L 357.905455 223.104 
L 371.432727 265.344 
L 384.96 268.16 
L 398.487273 270.976 
L 398.487273 270.976 
L 398.487273 270.976 
L 384.96 268.16 
L 371.432727 265.344 
L 357.905455 214.656 
L 344.378182 214.656 
L 330.850909 214.656 
L 317.323636 214.656 
L 303.796364 214.656 
L 290.269091 214.656 
L 276.741818 214.656 
L 263.214545 214.656 
L 249.687273 214.656 
L 236.16 214.656 
L 222.632727 276.608 
L 209.105455 54.144 
L 195.578182 54.144 
L 182.050909 54.144 
L 168.523636 54.144 
L 154.996364 54.144 
L 141.469091 54.144 
L 127.941818 54.144 
L 114.414545 54.144 
L 100.887273 54.144 
L 87.36 54.144 
L 73.832727 223.104 
z
" style="fill:#1f77b4;"/>
   </g>
   <g id="PolyCollection_42">
    <path clip-path="url(#p6fbd1b70cd)" d="M 73.832727 223.104 
L 73.832727 223.104 
L 87.36 54.144 
L 100.887273 54.144 
L 114.414545 54.144 
L 127.941818 54.144 
L 141.469091 54.144 
L 154.996364 54.144 
L 168.523636 54.144 
L 182.050909 54.144 
L 195.578182 54.144 
L 209.105455 54.144 
L 222.632727 276.608 
L 236.16 214.656 
L 249.687273 214.656 
L 263.214545 214.656 
L 276.741818 214.656 
L 290.269091 214.656 
L 303.796364 214.656 
L 317.323636 214.656 
L 330.850909 214.656 
L 344.378182 214.656 
L 357.905455 214.656 
L 371.432727 265.344 
L 384.96 268.16 
L 398.487273 270.976 
L 398.487273 270.976 
L 398.487273 270.976 
L 384.96 268.16 
L 371.432727 265.344 
L 357.905455 206.208 
L 344.378182 206.208 
L 330.850909 206.208 
L 317.323636 206.208 
L 303.796364 206.208 
L 290.269091 206.208 
L 276.741818 206.208 
L 263.214545 206.208 
L 249.687273 206.208 
L 236.16 206.208 
L 222.632727 273.792 
L 209.105455 54.144 
L 195.578182 54.144 
L 182.050909 54.144 
L 168.523636 54.144 
L 154.996364 54.144 
L 141.469091 54.144 
L 127.941818 54.144 
L 114.414545 54.144 
L 100.887273 54.144 
L 87.36 54.144 
L 73.832727 223.104 
z
" style="fill:#ff7f0e;"/>
   </g>
   <g id="PolyCollection_43">
    <path clip-path="url(#p6fbd1b70cd)" d="M 73.832727 223.104 
L 73.832727 223.104 
L 87.36 54.144 
L 100.887273 54.144 
L 114.414545 54.144 
L 127.941818 54.144 
L 141.469091 54.144 
L 154.996364 54.144 
L 168.523636 54.144 
L 182.050909 54.144 
L 195.578182 54.144 
L 209.105455 54.144 
L 222.632727 273.792 
L 236.16 206.208 
L 249.687273 206.208 
L 263.214545 206.208 
L 276.741818 206.208 
L 290.269091 206.208 
L 303.796364 206.208 
L 317.323636 206.208 
L 330.850909 206.208 
L 344.378182 206.208 
L 357.905455 206.208 
L 371.432727 265.344 
L 384.96 268.16 
L 398.487273 270.976 
L 398.487273 270.976 
L 398.487273 270.976 
L 384.96 268.16 
L 371.432727 265.344 
L 357.905455 197.76 
L 344.378182 197.76 
L 330.850909 197.76 
L 317.323636 197.76 
L 303.796364 197.76 
L 290.269091 197.76 
L 276.741818 197.76 
L 263.214545 197.76 
L 249.687273 197.76 
L 236.16 197.76 
L 222.632727 270.976 
L 209.105455 54.144 
L 195.578182 54.144 
L 182.050909 54.144 
L 168.523636 54.144 
L 154.996364 54.144 
L 141.469091 54.144 
L 127.941818 54.144 
L 114.414545 54.144 
L 100.887273 54.144 
L 87.36 54.144 
L 73.832727 223.104 
z
" style="fill:#2ca02c;"/>
   </g>
   <g id="PolyCollection_44">
    <path clip-path="url(#p6fbd1b70cd)" d="M 73.832727 223.104 
L 73.832727 223.104 
L 87.36 54.144 
L 100.887273 54.144 
L 114.414545 54.144 
L 127.941818 54.144 
L 141.469091 54.144 
L 154.996364 54.144 
L 168.523636 54.144 
L 182.050909 54.144 
L 195.578182 54.144 
L 209.105455 54.144 
L 222.632727 270.976 
L 236.16 197.76 
L 249.687273 197.76 
L 263.214545 197.76 
L 276.741818 197.76 
L 290.269091 197.76 
L 303.796364 197.76 
L 317.323636 197.76 
L 330.850909 197.76 
L 344.378182 197.76 
L 357.905455 197.76 
L 371.432727 265.344 
L 384.96 268.16 
L 398.487273 270.976 
L 398.487273 270.976 
L 398.487273 270.976 
L 384.96 268.16 
L 371.432727 265.344 
L 357.905455 189.312 
L 344.378182 189.312 
L 330.850909 189.312 
L 317.323636 189.312 
L 303.796364 189.312 
L 290.269091 189.312 
L 276.741818 189.312 
L 263.214545 189.312 
L 249.687273 189.312 
L 236.16 189.312 
L 222.632727 268.16 
L 209.105455 54.144 
L 195.578182 54.144 
L 182.050909 54.144 
L 168.523636 54.144 
L 154.996364 54.144 
L 141.469091 54.144 
L 127.941818 54.144 
L 114.414545 54.144 
L 100.887273 54.144 
L 87.36 54.144 
L 73.832727 223.104 
z
" style="fill:#d62728;"/>
   </g>
   <g id="PolyCollection_45">
    <path clip-path="url(#p6fbd1b70cd)" d="M 73.832727 223.104 
L 73.832727 223.104 
L 87.36 54.144 
L 100.887273 54.144 
L 114.414545 54.144 
L 127.941818 54.144 
L 141.469091 54.144 
L 154.996364 54.144 
L 168.523636 54.144 
L 182.050909 54.144 
L 195.578182 54.144 
L 209.105455 54.144 
L 222.632727 268.16 
L 236.16 189.312 
L 249.687273 189.312 
L 263.214545 189.312 
L 276.741818 189.312 
L 290.269091 189.312 
L 303.796364 189.312 
L 317.323636 189.312 
L 330.850909 189.312 
L 344.378182 189.312 
L 357.905455 189.312 
L 371.432727 265.344 
L 384.96 268.16 
L 398.487273 270.976 
L 398.487273 270.976 
L 398.487273 270.976 
L 384.96 268.16 
L 371.432727 265.344 
L 357.905455 180.864 
L 344.378182 180.864 
L 330.850909 180.864 
L 317.323636 180.864 
L 303.796364 180.864 
L 290.269091 180.864 
L 276.741818 180.864 
L 263.214545 180.864 
L 249.687273 180.864 
L 236.16 180.864 
L 222.632727 265.344 
L 209.105455 54.144 
L 195.578182 54.144 
L 182.050909 54.144 
L 168.523636 54.144 
L 154.996364 54.144 
L 141.469091 54.144 
L 127.941818 54.144 
L 114.414545 54.144 
L 100.887273 54.144 
L 87.36 54.144 
L 73.832727 223.104 
z
" style="fill:#9467bd;"/>
   </g>
   <g id="PolyCollection_46">
    <path clip-path="url(#p6fbd1b70cd)" d="M 73.832727 223.104 
L 73.832727 223.104 
L 87.36 54.144 
L 100.887273 54.144 
L 114.414545 54.144 
L 127.941818 54.144 
L 141.469091 54.144 
L 154.996364 54.144 
L 168.523636 54.144 
L 182.050909 54.144 
L 195.578182 54.144 
L 209.105455 54.144 
L 222.632727 265.344 
L 236.16 180.864 
L 249.687273 180.864 
L 263.214545 180.864 
L 276.741818 180.864 
L 290.269091 180.864 
L 303.796364 180.864 
L 317.323636 180.864 
L 330.850909 180.864 
L 344.378182 180.864 
L 357.905455 180.864 
L 371.432727 265.344 
L 384.96 268.16 
L 398.487273 270.976 
L 398.487273 270.976 
L 398.487273 270.976 
L 384.96 268.16 
L 371.432727 265.344 
L 357.905455 172.416 
L 344.378182 172.416 
L 330.850909 172.416 
L 317.323636 172.416 
L 303.796364 172.416 
L 290.269091 172.416 
L 276.741818 172.416 
L 263.214545 172.416 
L 249.687273 172.416 
L 236.16 172.416 
L 222.632727 262.528 
L 209.105455 54.144 
L 195.578182 54.144 
L 182.050909 54.144 
L 168.523636 54.144 
L 154.996364 54.144 
L 141.469091 54.144 
L 127.941818 54.144 
L 114.414545 54.144 
L 100.887273 54.144 
L 87.36 54.144 
L 73.832727 223.104 
z
" style="fill:#8c564b;"/>
   </g>
   <g id="PolyCollection_47">
    <path clip-path="url(#p6fbd1b70cd)" d="M 73.832727 223.104 
L 73.832727 223.104 
L 87.36 54.144 
L 100.887273 54.144 
L 114.414545 54.144 
L 127.941818 54.144 
L 141.469091 54.144 
L 154.996364 54.144 
L 168.523636 54.144 
L 182.050909 54.144 
L 195.578182 54.144 
L 209.105455 54.144 
L 222.632727 262.528 
L 236.16 172.416 
L 249.687273 172.416 
L 263.214545 172.416 
L 276.741818 172.416 
L 290.269091 172.416 
L 303.796364 172.416 
L 317.323636 172.416 
L 330.850909 172.416 
L 344.378182 172.416 
L 357.905455 172.416 
L 371.432727 265.344 
L 384.96 268.16 
L 398.487273 270.976 
L 398.487273 270.976 
L 398.487273 270.976 
L 384.96 268.16 
L 371.432727 265.344 
L 357.905455 163.968 
L 344.378182 163.968 
L 330.850909 163.968 
L 317.323636 163.968 
L 303.796364 163.968 
L 290.269091 163.968 
L 276.741818 163.968 
L 263.214545 163.968 
L 249.687273 163.968 
L 236.16 163.968 
L 222.632727 259.712 
L 209.105455 54.144 
L 195.578182 54.144 
L 182.050909 54.144 
L 168.523636 54.144 
L 154.996364 54.144 
L 141.469091 54.144 
L 127.941818 54.144 
L 114.414545 54.144 
L 100.887273 54.144 
L 87.36 54.144 
L 73.832727 223.104 
z
" style="fill:#e377c2;"/>
   </g>
   <g id="PolyCollection_48">
    <path clip-path="url(#p6fbd1b70cd)" d="M 73.832727 223.104 
L 73.832727 223.104 
L 87.36 54.144 
L 100.887273 54.144 
L 114.414545 54.144 
L 127.941818 54.144 
L 141.469091 54.144 
L 154.996364 54.144 
L 168.523636 54.144 
L 182.050909 54.144 
L 195.578182 54.144 
L 209.105455 54.144 
L 222.632727 259.712 
L 236.16 163.968 
L 249.687273 163.968 
L 263.214545 163.968 
L 276.741818 163.968 
L 290.269091 163.968 
L 303.796364 163.968 
L 317.323636 163.968 
L 330.850909 163.968 
L 344.378182 163.968 
L 357.905455 163.968 
L 371.432727 265.344 
L 384.96 268.16 
L 398.487273 270.976 
L 398.487273 270.976 
L 398.487273 270.976 
L 384.96 268.16 
L 371.432727 265.344 
L 357.905455 155.52 
L 344.378182 155.52 
L 330.850909 155.52 
L 317.323636 155.52 
L 303.796364 155.52 
L 290.269091 155.52 
L 276.741818 155.52 
L 263.214545 155.52 
L 249.687273 155.52 
L 236.16 155.52 
L 222.632727 256.896 
L 209.105455 54.144 
L 195.578182 54.144 
L 182.050909 54.144 
L 168.523636 54.144 
L 154.996364 54.144 
L 141.469091 54.144 
L 127.941818 54.144 
L 114.414545 54.144 
L 100.887273 54.144 
L 87.36 54.144 
L 73.832727 223.104 
z
" style="fill:#7f7f7f;"/>
   </g>
   <g id="PolyCollection_49">
    <path clip-path="url(#p6fbd1b70cd)" d="M 73.832727 223.104 
L 73.832727 223.104 
L 87.36 54.144 
L 100.887273 54.144 
L 114.414545 54.144 
L 127.941818 54.144 
L 141.469091 54.144 
L 154.996364 54.144 
L 168.523636 54.144 
L 182.050909 54.144 
L 195.578182 54.144 
L 209.105455 54.144 
L 222.632727 256.896 
L 236.16 155.52 
L 249.687273 155.52 
L 263.214545 155.52 
L 276.741818 155.52 
L 290.269091 155.52 
L 303.796364 155.52 
L 317.323636 155.52 
L 330.850909 155.52 
L 344.378182 155.52 
L 357.905455 155.52 
L 371.432727 265.344 
L 384.96 268.16 
L 398.487273 270.976 
L 398.487273 270.976 
L 398.487273 270.976 
L 384.96 268.16 
L 371.432727 265.344 
L 357.905455 147.072 
L 344.378182 147.072 
L 330.850909 147.072 
L 317.323636 147.072 
L 303.796364 147.072 
L 290.269091 147.072 
L 276.741818 147.072 
L 263.214545 147.072 
L 249.687273 147.072 
L 236.16 147.072 
L 222.632727 254.08 
L 209.105455 54.144 
L 195.578182 54.144 
L 182.050909 54.144 
L 168.523636 54.144 
L 154.996364 54.144 
L 141.469091 54.144 
L 127.941818 54.144 
L 114.414545 54.144 
L 100.887273 54.144 
L 87.36 54.144 
L 73.832727 223.104 
z
" style="fill:#bcbd22;"/>
   </g>
   <g id="PolyCollection_50">
    <path clip-path="url(#p6fbd1b70cd)" d="M 73.832727 223.104 
L 73.832727 223.104 
L 87.36 54.144 
L 100.887273 54.144 
L 114.414545 54.144 
L 127.941818 54.144 
L 141.469091 54.144 
L 154.996364 54.144 
L 168.523636 54.144 
L 182.050909 54.144 
L 195.578182 54.144 
L 209.105455 54.144 
L 222.632727 254.08 
L 236.16 147.072 
L 249.687273 147.072 
L 263.214545 147.072 
L 276.741818 147.072 
L 290.269091 147.072 
L 303.796364 147.072 
L 317.323636 147.072 
L 330.850909 147.072 
L 344.378182 147.072 
L 357.905455 147.072 
L 371.432727 265.344 
L 384.96 268.16 
L 398.487273 270.976 
L 398.487273 270.976 
L 398.487273 270.976 
L 384.96 268.16 
L 371.432727 265.344 
L 357.905455 138.624 
L 344.378182 138.624 
L 330.850909 138.624 
L 317.323636 138.624 
L 303.796364 138.624 
L 290.269091 138.624 
L 276.741818 138.624 
L 263.214545 138.624 
L 249.687273 138.624 
L 236.16 138.624 
L 222.632727 251.264 
L 209.105455 54.144 
L 195.578182 54.144 
L 182.050909 54.144 
L 168.523636 54.144 
L 154.996364 54.144 
L 141.469091 54.144 
L 127.941818 54.144 
L 114.414545 54.144 
L 100.887273 54.144 
L 87.36 54.144 
L 73.832727 223.104 
z
" style="fill:#17becf;"/>
   </g>
   <g id="PolyCollection_51">
    <path clip-path="url(#p6fbd1b70cd)" d="M 73.832727 223.104 
L 73.832727 223.104 
L 87.36 54.144 
L 100.887273 54.144 
L 114.414545 54.144 
L 127.941818 54.144 
L 141.469091 54.144 
L 154.996364 54.144 
L 168.523636 54.144 
L 182.050909 54.144 
L 195.578182 54.144 
L 209.105455 54.144 
L 222.632727 251.264 
L 236.16 138.624 
L 249.687273 138.624 
L 263.214545 138.624 
L 276.741818 138.624 
L 290.269091 138.624 
L 303.796364 138.624 
L 317.323636 138.624 
L 330.850909 138.624 
L 344.378182 138.624 
L 357.905455 138.624 
L 371.432727 265.344 
L 384.96 268.16 
L 398.487273 270.976 
L 398.487273 270.976 
L 398.487273 270.976 
L 384.96 268.16 
L 371.432727 265.344 
L 357.905455 130.176 
L 344.378182 130.176 
L 330.850909 130.176 
L 317.323636 130.176 
L 303.796364 130.176 
L 290.269091 130.176 
L 276.741818 130.176 
L 263.214545 130.176 
L 249.687273 130.176 
L 236.16 130.176 
L 222.632727 248.448 
L 209.105455 54.144 
L 195.578182 54.144 
L 182.050909 54.144 
L 168.523636 54.144 
L 154.996364 54.144 
L 141.469091 54.144 
L 127.941818 54.144 
L 114.414545 54.144 
L 100.887273 54.144 
L 87.36 54.144 
L 73.832727 223.104 
z
" style="fill:#1f77b4;"/>
   </g>
   <g id="PolyCollection_52">
    <path clip-path="url(#p6fbd1b70cd)" d="M 73.832727 223.104 
L 73.832727 223.104 
L 87.36 54.144 
L 100.887273 54.144 
L 114.414545 54.144 
L 127.941818 54.144 
L 141.469091 54.144 
L 154.996364 54.144 
L 168.523636 54.144 
L 182.050909 54.144 
L 195.578182 54.144 
L 209.105455 54.144 
L 222.632727 248.448 
L 236.16 130.176 
L 249.687273 130.176 
L 263.214545 130.176 
L 276.741818 130.176 
L 290.269091 130.176 
L 303.796364 130.176 
L 317.323636 130.176 
L 330.850909 130.176 
L 344.378182 130.176 
L 357.905455 130.176 
L 371.432727 265.344 
L 384.96 268.16 
L 398.487273 270.976 
L 398.487273 270.976 
L 398.487273 270.976 
L 384.96 268.16 
L 371.432727 265.344 
L 357.905455 121.728 
L 344.378182 121.728 
L 330.850909 121.728 
L 317.323636 121.728 
L 303.796364 121.728 
L 290.269091 121.728 
L 276.741818 121.728 
L 263.214545 121.728 
L 249.687273 121.728 
L 236.16 121.728 
L 222.632727 245.632 
L 209.105455 54.144 
L 195.578182 54.144 
L 182.050909 54.144 
L 168.523636 54.144 
L 154.996364 54.144 
L 141.469091 54.144 
L 127.941818 54.144 
L 114.414545 54.144 
L 100.887273 54.144 
L 87.36 54.144 
L 73.832727 223.104 
z
" style="fill:#ff7f0e;"/>
   </g>
   <g id="PolyCollection_53">
    <path clip-path="url(#p6fbd1b70cd)" d="M 73.832727 223.104 
L 73.832727 223.104 
L 87.36 54.144 
L 100.887273 54.144 
L 114.414545 54.144 
L 127.941818 54.144 
L 141.469091 54.144 
L 154.996364 54.144 
L 168.523636 54.144 
L 182.050909 54.144 
L 195.578182 54.144 
L 209.105455 54.144 
L 222.632727 245.632 
L 236.16 121.728 
L 249.687273 121.728 
L 263.214545 121.728 
L 276.741818 121.728 
L 290.269091 121.728 
L 303.796364 121.728 
L 317.323636 121.728 
L 330.850909 121.728 
L 344.378182 121.728 
L 357.905455 121.728 
L 371.432727 265.344 
L 384.96 268.16 
L 398.487273 270.976 
L 398.487273 270.976 
L 398.487273 270.976 
L 384.96 268.16 
L 371.432727 265.344 
L 357.905455 113.28 
L 344.378182 113.28 
L 330.850909 113.28 
L 317.323636 113.28 
L 303.796364 113.28 
L 290.269091 113.28 
L 276.741818 113.28 
L 263.214545 113.28 
L 249.687273 113.28 
L 236.16 113.28 
L 222.632727 242.816 
L 209.105455 54.144 
L 195.578182 54.144 
L 182.050909 54.144 
L 168.523636 54.144 
L 154.996364 54.144 
L 141.469091 54.144 
L 127.941818 54.144 
L 114.414545 54.144 
L 100.887273 54.144 
L 87.36 54.144 
L 73.832727 223.104 
z
" style="fill:#2ca02c;"/>
   </g>
   <g id="PolyCollection_54">
    <path clip-path="url(#p6fbd1b70cd)" d="M 73.832727 223.104 
L 73.832727 223.104 
L 87.36 54.144 
L 100.887273 54.144 
L 114.414545 54.144 
L 127.941818 54.144 
L 141.469091 54.144 
L 154.996364 54.144 
L 168.523636 54.144 
L 182.050909 54.144 
L 195.578182 54.144 
L 209.105455 54.144 
L 222.632727 242.816 
L 236.16 113.28 
L 249.687273 113.28 
L 263.214545 113.28 
L 276.741818 113.28 
L 290.269091 113.28 
L 303.796364 113.28 
L 317.323636 113.28 
L 330.850909 113.28 
L 344.378182 113.28 
L 357.905455 113.28 
L 371.432727 265.344 
L 384.96 268.16 
L 398.487273 270.976 
L 398.487273 223.104 
L 398.487273 223.104 
L 384.96 223.104 
L 371.432727 223.104 
L 357.905455 104.832 
L 344.378182 104.832 
L 330.850909 104.832 
L 317.323636 104.832 
L 303.796364 104.832 
L 290.269091 104.832 
L 276.741818 104.832 
L 263.214545 104.832 
L 249.687273 104.832 
L 236.16 104.832 
L 222.632727 240 
L 209.105455 54.144 
L 195.578182 54.144 
L 182.050909 54.144 
L 168.523636 54.144 
L 154.996364 54.144 
L 141.469091 54.144 
L 127.941818 54.144 
L 114.414545 54.144 
L 100.887273 54.144 
L 87.36 54.144 
L 73.832727 223.104 
z
" style="fill:#d62728;"/>
   </g>
   <g id="PolyCollection_55">
    <path clip-path="url(#p6fbd1b70cd)" d="M 73.832727 223.104 
L 73.832727 223.104 
L 87.36 54.144 
L 100.887273 54.144 
L 114.414545 54.144 
L 127.941818 54.144 
L 141.469091 54.144 
L 154.996364 54.144 
L 168.523636 54.144 
L 182.050909 54.144 
L 195.578182 54.144 
L 209.105455 54.144 
L 222.632727 240 
L 236.16 104.832 
L 249.687273 104.832 
L 263.214545 104.832 
L 276.741818 104.832 
L 290.269091 104.832 
L 303.796364 104.832 
L 317.323636 104.832 
L 330.850909 104.832 
L 344.378182 104.832 
L 357.905455 104.832 
L 371.432727 223.104 
L 384.96 223.104 
L 398.487273 223.104 
L 398.487273 223.104 
L 398.487273 223.104 
L 384.96 223.104 
L 371.432727 223.104 
L 357.905455 96.384 
L 344.378182 96.384 
L 330.850909 96.384 
L 317.323636 96.384 
L 303.796364 96.384 
L 290.269091 96.384 
L 276.741818 96.384 
L 263.214545 96.384 
L 249.687273 96.384 
L 236.16 96.384 
L 222.632727 237.184 
L 209.105455 54.144 
L 195.578182 54.144 
L 182.050909 54.144 
L 168.523636 54.144 
L 154.996364 54.144 
L 141.469091 54.144 
L 127.941818 54.144 
L 114.414545 54.144 
L 100.887273 54.144 
L 87.36 54.144 
L 73.832727 223.104 
z
" style="fill:#9467bd;"/>
   </g>
   <g id="PolyCollection_56">
    <path clip-path="url(#p6fbd1b70cd)" d="M 73.832727 223.104 
L 73.832727 223.104 
L 87.36 54.144 
L 100.887273 54.144 
L 114.414545 54.144 
L 127.941818 54.144 
L 141.469091 54.144 
L 154.996364 54.144 
L 168.523636 54.144 
L 182.050909 54.144 
L 195.578182 54.144 
L 209.105455 54.144 
L 222.632727 237.184 
L 236.16 96.384 
L 249.687273 96.384 
L 263.214545 96.384 
L 276.741818 96.384 
L 290.269091 96.384 
L 303.796364 96.384 
L 317.323636 96.384 
L 330.850909 96.384 
L 344.378182 96.384 
L 357.905455 96.384 
L 371.432727 223.104 
L 384.96 223.104 
L 398.487273 223.104 
L 398.487273 223.104 
L 398.487273 223.104 
L 384.96 223.104 
L 371.432727 223.104 
L 357.905455 87.936 
L 344.378182 87.936 
L 330.850909 87.936 
L 317.323636 87.936 
L 303.796364 87.936 
L 290.269091 87.936 
L 276.741818 87.936 
L 263.214545 87.936 
L 249.687273 87.936 
L 236.16 87.936 
L 222.632727 234.368 
L 209.105455 54.144 
L 195.578182 54.144 
L 182.050909 54.144 
L 168.523636 54.144 
L 154.996364 54.144 
L 141.469091 54.144 
L 127.941818 54.144 
L 114.414545 54.144 
L 100.887273 54.144 
L 87.36 54.144 
L 73.832727 223.104 
z
" style="fill:#8c564b;"/>
   </g>
   <g id="PolyCollection_57">
    <path clip-path="url(#p6fbd1b70cd)" d="M 73.832727 223.104 
L 73.832727 223.104 
L 87.36 54.144 
L 100.887273 54.144 
L 114.414545 54.144 
L 127.941818 54.144 
L 141.469091 54.144 
L 154.996364 54.144 
L 168.523636 54.144 
L 182.050909 54.144 
L 195.578182 54.144 
L 209.105455 54.144 
L 222.632727 234.368 
L 236.16 87.936 
L 249.687273 87.936 
L 263.214545 87.936 
L 276.741818 87.936 
L 290.269091 87.936 
L 303.796364 87.936 
L 317.323636 87.936 
L 330.850909 87.936 
L 344.378182 87.936 
L 357.905455 87.936 
L 371.432727 223.104 
L 384.96 223.104 
L 398.487273 223.104 
L 398.487273 223.104 
L 398.487273 223.104 
L 384.96 223.104 
L 371.432727 223.104 
L 357.905455 79.488 
L 344.378182 79.488 
L 330.850909 79.488 
L 317.323636 79.488 
L 303.796364 79.488 
L 290.269091 79.488 
L 276.741818 79.488 
L 263.214545 79.488 
L 249.687273 79.488 
L 236.16 79.488 
L 222.632727 231.552 
L 209.105455 54.144 
L 195.578182 54.144 
L 182.050909 54.144 
L 168.523636 54.144 
L 154.996364 54.144 
L 141.469091 54.144 
L 127.941818 54.144 
L 114.414545 54.144 
L 100.887273 54.144 
L 87.36 54.144 
L 73.832727 223.104 
z
" style="fill:#e377c2;"/>
   </g>
   <g id="PolyCollection_58">
    <path clip-path="url(#p6fbd1b70cd)" d="M 73.832727 223.104 
L 73.832727 223.104 
L 87.36 54.144 
L 100.887273 54.144 
L 114.414545 54.144 
L 127.941818 54.144 
L 141.469091 54.144 
L 154.996364 54.144 
L 168.523636 54.144 
L 182.050909 54.144 
L 195.578182 54.144 
L 209.105455 54.144 
L 222.632727 231.552 
L 236.16 79.488 
L 249.687273 79.488 
L 263.214545 79.488 
L 276.741818 79.488 
L 290.269091 79.488 
L 303.796364 79.488 
L 317.323636 79.488 
L 330.850909 79.488 
L 344.378182 79.488 
L 357.905455 79.488 
L 371.432727 223.104 
L 384.96 223.104 
L 398.487273 223.104 
L 398.487273 223.104 
L 398.487273 223.104 
L 384.96 223.104 
L 371.432727 223.104 
L 357.905455 71.04 
L 344.378182 71.04 
L 330.850909 71.04 
L 317.323636 71.04 
L 303.796364 71.04 
L 290.269091 71.04 
L 276.741818 71.04 
L 263.214545 71.04 
L 249.687273 71.04 
L 236.16 71.04 
L 222.632727 228.736 
L 209.105455 54.144 
L 195.578182 54.144 
L 182.050909 54.144 
L 168.523636 54.144 
L 154.996364 54.144 
L 141.469091 54.144 
L 127.941818 54.144 
L 114.414545 54.144 
L 100.887273 54.144 
L 87.36 54.144 
L 73.832727 223.104 
z
" style="fill:#7f7f7f;"/>
   </g>
   <g id="PolyCollection_59">
    <path clip-path="url(#p6fbd1b70cd)" d="M 73.832727 223.104 
L 73.832727 223.104 
L 87.36 54.144 
L 100.887273 54.144 
L 114.414545 54.144 
L 127.941818 54.144 
L 141.469091 54.144 
L 154.996364 54.144 
L 168.523636 54.144 
L 182.050909 54.144 
L 195.578182 54.144 
L 209.105455 54.144 
L 222.632727 228.736 
L 236.16 71.04 
L 249.687273 71.04 
L 263.214545 71.04 
L 276.741818 71.04 
L 290.269091 71.04 
L 303.796364 71.04 
L 317.323636 71.04 
L 330.850909 71.04 
L 344.378182 71.04 
L 357.905455 71.04 
L 371.432727 223.104 
L 384.96 223.104 
L 398.487273 223.104 
L 398.487273 223.104 
L 398.487273 223.104 
L 384.96 223.104 
L 371.432727 223.104 
L 357.905455 62.592 
L 344.378182 62.592 
L 330.850909 62.592 
L 317.323636 62.592 
L 303.796364 62.592 
L 290.269091 62.592 
L 276.741818 62.592 
L 263.214545 62.592 
L 249.687273 62.592 
L 236.16 62.592 
L 222.632727 225.92 
L 209.105455 54.144 
L 195.578182 54.144 
L 182.050909 54.144 
L 168.523636 54.144 
L 154.996364 54.144 
L 141.469091 54.144 
L 127.941818 54.144 
L 114.414545 54.144 
L 100.887273 54.144 
L 87.36 54.144 
L 73.832727 223.104 
z
" style="fill:#bcbd22;"/>
   </g>
   <g id="PolyCollection_60">
    <path clip-path="url(#p6fbd1b70cd)" d="M 73.832727 223.104 
L 73.832727 223.104 
L 87.36 54.144 
L 100.887273 54.144 
L 114.414545 54.144 
L 127.941818 54.144 
L 141.469091 54.144 
L 154.996364 54.144 
L 168.523636 54.144 
L 182.050909 54.144 
L 195.578182 54.144 
L 209.105455 54.144 
L 222.632727 225.92 
L 236.16 62.592 
L 249.687273 62.592 
L 263.214545 62.592 
L 276.741818 62.592 
L 290.269091 62.592 
L 303.796364 62.592 
L 317.323636 62.592 
L 330.850909 62.592 
L 344.378182 62.592 
L 357.905455 62.592 
L 371.432727 223.104 
L 384.96 223.104 
L 398.487273 223.104 
L 398.487273 223.104 
L 398.487273 223.104 
L 384.96 223.104 
L 371.432727 223.104 
L 357.905455 54.144 
L 344.378182 54.144 
L 330.850909 54.144 
L 317.323636 54.144 
L 303.796364 54.144 
L 290.269091 54.144 
L 276.741818 54.144 
L 263.214545 54.144 
L 249.687273 54.144 
L 236.16 54.144 
L 222.632727 223.104 
L 209.105455 54.144 
L 195.578182 54.144 
L 182.050909 54.144 
L 168.523636 54.144 
L 154.996364 54.144 
L 141.469091 54.144 
L 127.941818 54.144 
L 114.414545 54.144 
L 100.887273 54.144 
L 87.36 54.144 
L 73.832727 223.104 
z
" style="fill:#17becf;"/>
   </g>
   <g id="matplotlib.axis_1">
    <g id="xtick_1">
     <g id="line2d_1">
      <defs>
       <path d="M 0 0 
L 0 3.5 
" id="m76019842bf" style="stroke:#000000;stroke-width:0.8;"/>
      </defs>
      <g>
       <use style="stroke:#000000;stroke-width:0.8;" x="73.832727" xlink:href="#m76019842bf" y="307.584"/>
      </g>
     </g>
     <g id="text_1">
      <!-- 0 -->
      <g transform="translate(70.651477 322.182437)scale(0.1 -0.1)">
       <defs>
        <path d="M 31.78125 66.40625 
Q 24.171875 66.40625 20.328125 58.90625 
Q 16.5 51.421875 16.5 36.375 
Q 16.5 21.390625 20.328125 13.890625 
Q 24.171875 6.390625 31.78125 6.390625 
Q 39.453125 6.390625 43.28125 13.890625 
Q 47.125 21.390625 47.125 36.375 
Q 47.125 51.421875 43.28125 58.90625 
Q 39.453125 66.40625 31.78125 66.40625 
z
M 31.78125 74.21875 
Q 44.046875 74.21875 50.515625 64.515625 
Q 56.984375 54.828125 56.984375 36.375 
Q 56.984375 17.96875 50.515625 8.265625 
Q 44.046875 -1.421875 31.78125 -1.421875 
Q 19.53125 -1.421875 13.0625 8.265625 
Q 6.59375 17.96875 6.59375 36.375 
Q 6.59375 54.828125 13.0625 64.515625 
Q 19.53125 74.21875 31.78125 74.21875 
z
" id="DejaVuSans-48"/>
       </defs>
       <use xlink:href="#DejaVuSans-48"/>
      </g>
     </g>
    </g>
    <g id="xtick_2">
     <g id="line2d_2">
      <g>
       <use style="stroke:#000000;stroke-width:0.8;" x="141.469091" xlink:href="#m76019842bf" y="307.584"/>
      </g>
     </g>
     <g id="text_2">
      <!-- 5 -->
      <g transform="translate(138.287841 322.182437)scale(0.1 -0.1)">
       <defs>
        <path d="M 10.796875 72.90625 
L 49.515625 72.90625 
L 49.515625 64.59375 
L 19.828125 64.59375 
L 19.828125 46.734375 
Q 21.96875 47.46875 24.109375 47.828125 
Q 26.265625 48.1875 28.421875 48.1875 
Q 40.625 48.1875 47.75 41.5 
Q 54.890625 34.8125 54.890625 23.390625 
Q 54.890625 11.625 47.5625 5.09375 
Q 40.234375 -1.421875 26.90625 -1.421875 
Q 22.3125 -1.421875 17.546875 -0.640625 
Q 12.796875 0.140625 7.71875 1.703125 
L 7.71875 11.625 
Q 12.109375 9.234375 16.796875 8.0625 
Q 21.484375 6.890625 26.703125 6.890625 
Q 35.15625 6.890625 40.078125 11.328125 
Q 45.015625 15.765625 45.015625 23.390625 
Q 45.015625 31 40.078125 35.4375 
Q 35.15625 39.890625 26.703125 39.890625 
Q 22.75 39.890625 18.8125 39.015625 
Q 14.890625 38.140625 10.796875 36.28125 
z
" id="DejaVuSans-53"/>
       </defs>
       <use xlink:href="#DejaVuSans-53"/>
      </g>
     </g>
    </g>
    <g id="xtick_3">
     <g id="line2d_3">
      <g>
       <use style="stroke:#000000;stroke-width:0.8;" x="209.105455" xlink:href="#m76019842bf" y="307.584"/>
      </g>
     </g>
     <g id="text_3">
      <!-- 10 -->
      <g transform="translate(202.742955 322.182437)scale(0.1 -0.1)">
       <defs>
        <path d="M 12.40625 8.296875 
L 28.515625 8.296875 
L 28.515625 63.921875 
L 10.984375 60.40625 
L 10.984375 69.390625 
L 28.421875 72.90625 
L 38.28125 72.90625 
L 38.28125 8.296875 
L 54.390625 8.296875 
L 54.390625 0 
L 12.40625 0 
z
" id="DejaVuSans-49"/>
       </defs>
       <use xlink:href="#DejaVuSans-49"/>
       <use x="63.623047" xlink:href="#DejaVuSans-48"/>
      </g>
     </g>
    </g>
    <g id="xtick_4">
     <g id="line2d_4">
      <g>
       <use style="stroke:#000000;stroke-width:0.8;" x="276.741818" xlink:href="#m76019842bf" y="307.584"/>
      </g>
     </g>
     <g id="text_4">
      <!-- 15 -->
      <g transform="translate(270.379318 322.182437)scale(0.1 -0.1)">
       <use xlink:href="#DejaVuSans-49"/>
       <use x="63.623047" xlink:href="#DejaVuSans-53"/>
      </g>
     </g>
    </g>
    <g id="xtick_5">
     <g id="line2d_5">
      <g>
       <use style="stroke:#000000;stroke-width:0.8;" x="344.378182" xlink:href="#m76019842bf" y="307.584"/>
      </g>
     </g>
     <g id="text_5">
      <!-- 20 -->
      <g transform="translate(338.015682 322.182437)scale(0.1 -0.1)">
       <defs>
        <path d="M 19.1875 8.296875 
L 53.609375 8.296875 
L 53.609375 0 
L 7.328125 0 
L 7.328125 8.296875 
Q 12.9375 14.109375 22.625 23.890625 
Q 32.328125 33.6875 34.8125 36.53125 
Q 39.546875 41.84375 41.421875 45.53125 
Q 43.3125 49.21875 43.3125 52.78125 
Q 43.3125 58.59375 39.234375 62.25 
Q 35.15625 65.921875 28.609375 65.921875 
Q 23.96875 65.921875 18.8125 64.3125 
Q 13.671875 62.703125 7.8125 59.421875 
L 7.8125 69.390625 
Q 13.765625 71.78125 18.9375 73 
Q 24.125 74.21875 28.421875 74.21875 
Q 39.75 74.21875 46.484375 68.546875 
Q 53.21875 62.890625 53.21875 53.421875 
Q 53.21875 48.921875 51.53125 44.890625 
Q 49.859375 40.875 45.40625 35.40625 
Q 44.1875 33.984375 37.640625 27.21875 
Q 31.109375 20.453125 19.1875 8.296875 
z
" id="DejaVuSans-50"/>
       </defs>
       <use xlink:href="#DejaVuSans-50"/>
       <use x="63.623047" xlink:href="#DejaVuSans-48"/>
      </g>
     </g>
    </g>
    <g id="xtick_6">
     <g id="line2d_6">
      <g>
       <use style="stroke:#000000;stroke-width:0.8;" x="412.014545" xlink:href="#m76019842bf" y="307.584"/>
      </g>
     </g>
     <g id="text_6">
      <!-- 25 -->
      <g transform="translate(405.652045 322.182437)scale(0.1 -0.1)">
       <use xlink:href="#DejaVuSans-50"/>
       <use x="63.623047" xlink:href="#DejaVuSans-53"/>
      </g>
     </g>
    </g>
    <g id="text_7">
     <!-- Generations -->
     <g transform="translate(205.662344 335.860562)scale(0.1 -0.1)">
      <defs>
       <path d="M 59.515625 10.40625 
L 59.515625 29.984375 
L 43.40625 29.984375 
L 43.40625 38.09375 
L 69.28125 38.09375 
L 69.28125 6.78125 
Q 63.578125 2.734375 56.6875 0.65625 
Q 49.8125 -1.421875 42 -1.421875 
Q 24.90625 -1.421875 15.25 8.5625 
Q 5.609375 18.5625 5.609375 36.375 
Q 5.609375 54.25 15.25 64.234375 
Q 24.90625 74.21875 42 74.21875 
Q 49.125 74.21875 55.546875 72.453125 
Q 61.96875 70.703125 67.390625 67.28125 
L 67.390625 56.78125 
Q 61.921875 61.421875 55.765625 63.765625 
Q 49.609375 66.109375 42.828125 66.109375 
Q 29.4375 66.109375 22.71875 58.640625 
Q 16.015625 51.171875 16.015625 36.375 
Q 16.015625 21.625 22.71875 14.15625 
Q 29.4375 6.6875 42.828125 6.6875 
Q 48.046875 6.6875 52.140625 7.59375 
Q 56.25 8.5 59.515625 10.40625 
z
" id="DejaVuSans-71"/>
       <path d="M 56.203125 29.59375 
L 56.203125 25.203125 
L 14.890625 25.203125 
Q 15.484375 15.921875 20.484375 11.0625 
Q 25.484375 6.203125 34.421875 6.203125 
Q 39.59375 6.203125 44.453125 7.46875 
Q 49.3125 8.734375 54.109375 11.28125 
L 54.109375 2.78125 
Q 49.265625 0.734375 44.1875 -0.34375 
Q 39.109375 -1.421875 33.890625 -1.421875 
Q 20.796875 -1.421875 13.15625 6.1875 
Q 5.515625 13.8125 5.515625 26.8125 
Q 5.515625 40.234375 12.765625 48.109375 
Q 20.015625 56 32.328125 56 
Q 43.359375 56 49.78125 48.890625 
Q 56.203125 41.796875 56.203125 29.59375 
z
M 47.21875 32.234375 
Q 47.125 39.59375 43.09375 43.984375 
Q 39.0625 48.390625 32.421875 48.390625 
Q 24.90625 48.390625 20.390625 44.140625 
Q 15.875 39.890625 15.1875 32.171875 
z
" id="DejaVuSans-101"/>
       <path d="M 54.890625 33.015625 
L 54.890625 0 
L 45.90625 0 
L 45.90625 32.71875 
Q 45.90625 40.484375 42.875 44.328125 
Q 39.84375 48.1875 33.796875 48.1875 
Q 26.515625 48.1875 22.3125 43.546875 
Q 18.109375 38.921875 18.109375 30.90625 
L 18.109375 0 
L 9.078125 0 
L 9.078125 54.6875 
L 18.109375 54.6875 
L 18.109375 46.1875 
Q 21.34375 51.125 25.703125 53.5625 
Q 30.078125 56 35.796875 56 
Q 45.21875 56 50.046875 50.171875 
Q 54.890625 44.34375 54.890625 33.015625 
z
" id="DejaVuSans-110"/>
       <path d="M 41.109375 46.296875 
Q 39.59375 47.171875 37.8125 47.578125 
Q 36.03125 48 33.890625 48 
Q 26.265625 48 22.1875 43.046875 
Q 18.109375 38.09375 18.109375 28.8125 
L 18.109375 0 
L 9.078125 0 
L 9.078125 54.6875 
L 18.109375 54.6875 
L 18.109375 46.1875 
Q 20.953125 51.171875 25.484375 53.578125 
Q 30.03125 56 36.53125 56 
Q 37.453125 56 38.578125 55.875 
Q 39.703125 55.765625 41.0625 55.515625 
z
" id="DejaVuSans-114"/>
       <path d="M 34.28125 27.484375 
Q 23.390625 27.484375 19.1875 25 
Q 14.984375 22.515625 14.984375 16.5 
Q 14.984375 11.71875 18.140625 8.90625 
Q 21.296875 6.109375 26.703125 6.109375 
Q 34.1875 6.109375 38.703125 11.40625 
Q 43.21875 16.703125 43.21875 25.484375 
L 43.21875 27.484375 
z
M 52.203125 31.203125 
L 52.203125 0 
L 43.21875 0 
L 43.21875 8.296875 
Q 40.140625 3.328125 35.546875 0.953125 
Q 30.953125 -1.421875 24.3125 -1.421875 
Q 15.921875 -1.421875 10.953125 3.296875 
Q 6 8.015625 6 15.921875 
Q 6 25.140625 12.171875 29.828125 
Q 18.359375 34.515625 30.609375 34.515625 
L 43.21875 34.515625 
L 43.21875 35.40625 
Q 43.21875 41.609375 39.140625 45 
Q 35.0625 48.390625 27.6875 48.390625 
Q 23 48.390625 18.546875 47.265625 
Q 14.109375 46.140625 10.015625 43.890625 
L 10.015625 52.203125 
Q 14.9375 54.109375 19.578125 55.046875 
Q 24.21875 56 28.609375 56 
Q 40.484375 56 46.34375 49.84375 
Q 52.203125 43.703125 52.203125 31.203125 
z
" id="DejaVuSans-97"/>
       <path d="M 18.3125 70.21875 
L 18.3125 54.6875 
L 36.8125 54.6875 
L 36.8125 47.703125 
L 18.3125 47.703125 
L 18.3125 18.015625 
Q 18.3125 11.328125 20.140625 9.421875 
Q 21.96875 7.515625 27.59375 7.515625 
L 36.8125 7.515625 
L 36.8125 0 
L 27.59375 0 
Q 17.1875 0 13.234375 3.875 
Q 9.28125 7.765625 9.28125 18.015625 
L 9.28125 47.703125 
L 2.6875 47.703125 
L 2.6875 54.6875 
L 9.28125 54.6875 
L 9.28125 70.21875 
z
" id="DejaVuSans-116"/>
       <path d="M 9.421875 54.6875 
L 18.40625 54.6875 
L 18.40625 0 
L 9.421875 0 
z
M 9.421875 75.984375 
L 18.40625 75.984375 
L 18.40625 64.59375 
L 9.421875 64.59375 
z
" id="DejaVuSans-105"/>
       <path d="M 30.609375 48.390625 
Q 23.390625 48.390625 19.1875 42.75 
Q 14.984375 37.109375 14.984375 27.296875 
Q 14.984375 17.484375 19.15625 11.84375 
Q 23.34375 6.203125 30.609375 6.203125 
Q 37.796875 6.203125 41.984375 11.859375 
Q 46.1875 17.53125 46.1875 27.296875 
Q 46.1875 37.015625 41.984375 42.703125 
Q 37.796875 48.390625 30.609375 48.390625 
z
M 30.609375 56 
Q 42.328125 56 49.015625 48.375 
Q 55.71875 40.765625 55.71875 27.296875 
Q 55.71875 13.875 49.015625 6.21875 
Q 42.328125 -1.421875 30.609375 -1.421875 
Q 18.84375 -1.421875 12.171875 6.21875 
Q 5.515625 13.875 5.515625 27.296875 
Q 5.515625 40.765625 12.171875 48.375 
Q 18.84375 56 30.609375 56 
z
" id="DejaVuSans-111"/>
       <path d="M 44.28125 53.078125 
L 44.28125 44.578125 
Q 40.484375 46.53125 36.375 47.5 
Q 32.28125 48.484375 27.875 48.484375 
Q 21.1875 48.484375 17.84375 46.4375 
Q 14.5 44.390625 14.5 40.28125 
Q 14.5 37.15625 16.890625 35.375 
Q 19.28125 33.59375 26.515625 31.984375 
L 29.59375 31.296875 
Q 39.15625 29.25 43.1875 25.515625 
Q 47.21875 21.78125 47.21875 15.09375 
Q 47.21875 7.46875 41.1875 3.015625 
Q 35.15625 -1.421875 24.609375 -1.421875 
Q 20.21875 -1.421875 15.453125 -0.5625 
Q 10.6875 0.296875 5.421875 2 
L 5.421875 11.28125 
Q 10.40625 8.6875 15.234375 7.390625 
Q 20.0625 6.109375 24.8125 6.109375 
Q 31.15625 6.109375 34.5625 8.28125 
Q 37.984375 10.453125 37.984375 14.40625 
Q 37.984375 18.0625 35.515625 20.015625 
Q 33.0625 21.96875 24.703125 23.78125 
L 21.578125 24.515625 
Q 13.234375 26.265625 9.515625 29.90625 
Q 5.8125 33.546875 5.8125 39.890625 
Q 5.8125 47.609375 11.28125 51.796875 
Q 16.75 56 26.8125 56 
Q 31.78125 56 36.171875 55.265625 
Q 40.578125 54.546875 44.28125 53.078125 
z
" id="DejaVuSans-115"/>
      </defs>
      <use xlink:href="#DejaVuSans-71"/>
      <use x="77.490234" xlink:href="#DejaVuSans-101"/>
      <use x="139.013672" xlink:href="#DejaVuSans-110"/>
      <use x="202.392578" xlink:href="#DejaVuSans-101"/>
      <use x="263.916016" xlink:href="#DejaVuSans-114"/>
      <use x="305.029297" xlink:href="#DejaVuSans-97"/>
      <use x="366.308594" xlink:href="#DejaVuSans-116"/>
      <use x="405.517578" xlink:href="#DejaVuSans-105"/>
      <use x="433.300781" xlink:href="#DejaVuSans-111"/>
      <use x="494.482422" xlink:href="#DejaVuSans-110"/>
      <use x="557.861328" xlink:href="#DejaVuSans-115"/>
     </g>
    </g>
   </g>
   <g id="matplotlib.axis_2">
    <g id="ytick_1">
     <g id="line2d_7">
      <defs>
       <path d="M 0 0 
L -3.5 0 
" id="m0f501c1208" style="stroke:#000000;stroke-width:0.8;"/>
      </defs>
      <g>
       <use style="stroke:#000000;stroke-width:0.8;" x="57.6" xlink:href="#m0f501c1208" y="307.584"/>
      </g>
     </g>
     <g id="text_8">
      <!-- 0 -->
      <g transform="translate(44.2375 311.383219)scale(0.1 -0.1)">
       <use xlink:href="#DejaVuSans-48"/>
      </g>
     </g>
    </g>
    <g id="ytick_2">
     <g id="line2d_8">
      <g>
       <use style="stroke:#000000;stroke-width:0.8;" x="57.6" xlink:href="#m0f501c1208" y="251.264"/>
      </g>
     </g>
     <g id="text_9">
      <!-- 20 -->
      <g transform="translate(37.875 255.063219)scale(0.1 -0.1)">
       <use xlink:href="#DejaVuSans-50"/>
       <use x="63.623047" xlink:href="#DejaVuSans-48"/>
      </g>
     </g>
    </g>
    <g id="ytick_3">
     <g id="line2d_9">
      <g>
       <use style="stroke:#000000;stroke-width:0.8;" x="57.6" xlink:href="#m0f501c1208" y="194.944"/>
      </g>
     </g>
     <g id="text_10">
      <!-- 40 -->
      <g transform="translate(37.875 198.743219)scale(0.1 -0.1)">
       <defs>
        <path d="M 37.796875 64.3125 
L 12.890625 25.390625 
L 37.796875 25.390625 
z
M 35.203125 72.90625 
L 47.609375 72.90625 
L 47.609375 25.390625 
L 58.015625 25.390625 
L 58.015625 17.1875 
L 47.609375 17.1875 
L 47.609375 0 
L 37.796875 0 
L 37.796875 17.1875 
L 4.890625 17.1875 
L 4.890625 26.703125 
z
" id="DejaVuSans-52"/>
       </defs>
       <use xlink:href="#DejaVuSans-52"/>
       <use x="63.623047" xlink:href="#DejaVuSans-48"/>
      </g>
     </g>
    </g>
    <g id="ytick_4">
     <g id="line2d_10">
      <g>
       <use style="stroke:#000000;stroke-width:0.8;" x="57.6" xlink:href="#m0f501c1208" y="138.624"/>
      </g>
     </g>
     <g id="text_11">
      <!-- 60 -->
      <g transform="translate(37.875 142.423219)scale(0.1 -0.1)">
       <defs>
        <path d="M 33.015625 40.375 
Q 26.375 40.375 22.484375 35.828125 
Q 18.609375 31.296875 18.609375 23.390625 
Q 18.609375 15.53125 22.484375 10.953125 
Q 26.375 6.390625 33.015625 6.390625 
Q 39.65625 6.390625 43.53125 10.953125 
Q 47.40625 15.53125 47.40625 23.390625 
Q 47.40625 31.296875 43.53125 35.828125 
Q 39.65625 40.375 33.015625 40.375 
z
M 52.59375 71.296875 
L 52.59375 62.3125 
Q 48.875 64.0625 45.09375 64.984375 
Q 41.3125 65.921875 37.59375 65.921875 
Q 27.828125 65.921875 22.671875 59.328125 
Q 17.53125 52.734375 16.796875 39.40625 
Q 19.671875 43.65625 24.015625 45.921875 
Q 28.375 48.1875 33.59375 48.1875 
Q 44.578125 48.1875 50.953125 41.515625 
Q 57.328125 34.859375 57.328125 23.390625 
Q 57.328125 12.15625 50.6875 5.359375 
Q 44.046875 -1.421875 33.015625 -1.421875 
Q 20.359375 -1.421875 13.671875 8.265625 
Q 6.984375 17.96875 6.984375 36.375 
Q 6.984375 53.65625 15.1875 63.9375 
Q 23.390625 74.21875 37.203125 74.21875 
Q 40.921875 74.21875 44.703125 73.484375 
Q 48.484375 72.75 52.59375 71.296875 
z
" id="DejaVuSans-54"/>
       </defs>
       <use xlink:href="#DejaVuSans-54"/>
       <use x="63.623047" xlink:href="#DejaVuSans-48"/>
      </g>
     </g>
    </g>
    <g id="ytick_5">
     <g id="line2d_11">
      <g>
       <use style="stroke:#000000;stroke-width:0.8;" x="57.6" xlink:href="#m0f501c1208" y="82.304"/>
      </g>
     </g>
     <g id="text_12">
      <!-- 80 -->
      <g transform="translate(37.875 86.103219)scale(0.1 -0.1)">
       <defs>
        <path d="M 31.78125 34.625 
Q 24.75 34.625 20.71875 30.859375 
Q 16.703125 27.09375 16.703125 20.515625 
Q 16.703125 13.921875 20.71875 10.15625 
Q 24.75 6.390625 31.78125 6.390625 
Q 38.8125 6.390625 42.859375 10.171875 
Q 46.921875 13.96875 46.921875 20.515625 
Q 46.921875 27.09375 42.890625 30.859375 
Q 38.875 34.625 31.78125 34.625 
z
M 21.921875 38.8125 
Q 15.578125 40.375 12.03125 44.71875 
Q 8.5 49.078125 8.5 55.328125 
Q 8.5 64.0625 14.71875 69.140625 
Q 20.953125 74.21875 31.78125 74.21875 
Q 42.671875 74.21875 48.875 69.140625 
Q 55.078125 64.0625 55.078125 55.328125 
Q 55.078125 49.078125 51.53125 44.71875 
Q 48 40.375 41.703125 38.8125 
Q 48.828125 37.15625 52.796875 32.3125 
Q 56.78125 27.484375 56.78125 20.515625 
Q 56.78125 9.90625 50.3125 4.234375 
Q 43.84375 -1.421875 31.78125 -1.421875 
Q 19.734375 -1.421875 13.25 4.234375 
Q 6.78125 9.90625 6.78125 20.515625 
Q 6.78125 27.484375 10.78125 32.3125 
Q 14.796875 37.15625 21.921875 38.8125 
z
M 18.3125 54.390625 
Q 18.3125 48.734375 21.84375 45.5625 
Q 25.390625 42.390625 31.78125 42.390625 
Q 38.140625 42.390625 41.71875 45.5625 
Q 45.3125 48.734375 45.3125 54.390625 
Q 45.3125 60.0625 41.71875 63.234375 
Q 38.140625 66.40625 31.78125 66.40625 
Q 25.390625 66.40625 21.84375 63.234375 
Q 18.3125 60.0625 18.3125 54.390625 
z
" id="DejaVuSans-56"/>
       </defs>
       <use xlink:href="#DejaVuSans-56"/>
       <use x="63.623047" xlink:href="#DejaVuSans-48"/>
      </g>
     </g>
    </g>
    <g id="text_13">
     <!-- Size per Species -->
     <g transform="translate(31.795312 215.520969)rotate(-90)scale(0.1 -0.1)">
      <defs>
       <path d="M 53.515625 70.515625 
L 53.515625 60.890625 
Q 47.90625 63.578125 42.921875 64.890625 
Q 37.9375 66.21875 33.296875 66.21875 
Q 25.25 66.21875 20.875 63.09375 
Q 16.5 59.96875 16.5 54.203125 
Q 16.5 49.359375 19.40625 46.890625 
Q 22.3125 44.4375 30.421875 42.921875 
L 36.375 41.703125 
Q 47.40625 39.59375 52.65625 34.296875 
Q 57.90625 29 57.90625 20.125 
Q 57.90625 9.515625 50.796875 4.046875 
Q 43.703125 -1.421875 29.984375 -1.421875 
Q 24.8125 -1.421875 18.96875 -0.25 
Q 13.140625 0.921875 6.890625 3.21875 
L 6.890625 13.375 
Q 12.890625 10.015625 18.65625 8.296875 
Q 24.421875 6.59375 29.984375 6.59375 
Q 38.421875 6.59375 43.015625 9.90625 
Q 47.609375 13.234375 47.609375 19.390625 
Q 47.609375 24.75 44.3125 27.78125 
Q 41.015625 30.8125 33.5 32.328125 
L 27.484375 33.5 
Q 16.453125 35.6875 11.515625 40.375 
Q 6.59375 45.0625 6.59375 53.421875 
Q 6.59375 63.09375 13.40625 68.65625 
Q 20.21875 74.21875 32.171875 74.21875 
Q 37.3125 74.21875 42.625 73.28125 
Q 47.953125 72.359375 53.515625 70.515625 
z
" id="DejaVuSans-83"/>
       <path d="M 5.515625 54.6875 
L 48.1875 54.6875 
L 48.1875 46.484375 
L 14.40625 7.171875 
L 48.1875 7.171875 
L 48.1875 0 
L 4.296875 0 
L 4.296875 8.203125 
L 38.09375 47.515625 
L 5.515625 47.515625 
z
" id="DejaVuSans-122"/>
       <path id="DejaVuSans-32"/>
       <path d="M 18.109375 8.203125 
L 18.109375 -20.796875 
L 9.078125 -20.796875 
L 9.078125 54.6875 
L 18.109375 54.6875 
L 18.109375 46.390625 
Q 20.953125 51.265625 25.265625 53.625 
Q 29.59375 56 35.59375 56 
Q 45.5625 56 51.78125 48.09375 
Q 58.015625 40.1875 58.015625 27.296875 
Q 58.015625 14.40625 51.78125 6.484375 
Q 45.5625 -1.421875 35.59375 -1.421875 
Q 29.59375 -1.421875 25.265625 0.953125 
Q 20.953125 3.328125 18.109375 8.203125 
z
M 48.6875 27.296875 
Q 48.6875 37.203125 44.609375 42.84375 
Q 40.53125 48.484375 33.40625 48.484375 
Q 26.265625 48.484375 22.1875 42.84375 
Q 18.109375 37.203125 18.109375 27.296875 
Q 18.109375 17.390625 22.1875 11.75 
Q 26.265625 6.109375 33.40625 6.109375 
Q 40.53125 6.109375 44.609375 11.75 
Q 48.6875 17.390625 48.6875 27.296875 
z
" id="DejaVuSans-112"/>
       <path d="M 48.78125 52.59375 
L 48.78125 44.1875 
Q 44.96875 46.296875 41.140625 47.34375 
Q 37.3125 48.390625 33.40625 48.390625 
Q 24.65625 48.390625 19.8125 42.84375 
Q 14.984375 37.3125 14.984375 27.296875 
Q 14.984375 17.28125 19.8125 11.734375 
Q 24.65625 6.203125 33.40625 6.203125 
Q 37.3125 6.203125 41.140625 7.25 
Q 44.96875 8.296875 48.78125 10.40625 
L 48.78125 2.09375 
Q 45.015625 0.34375 40.984375 -0.53125 
Q 36.96875 -1.421875 32.421875 -1.421875 
Q 20.0625 -1.421875 12.78125 6.34375 
Q 5.515625 14.109375 5.515625 27.296875 
Q 5.515625 40.671875 12.859375 48.328125 
Q 20.21875 56 33.015625 56 
Q 37.15625 56 41.109375 55.140625 
Q 45.0625 54.296875 48.78125 52.59375 
z
" id="DejaVuSans-99"/>
      </defs>
      <use xlink:href="#DejaVuSans-83"/>
      <use x="63.476562" xlink:href="#DejaVuSans-105"/>
      <use x="91.259766" xlink:href="#DejaVuSans-122"/>
      <use x="143.75" xlink:href="#DejaVuSans-101"/>
      <use x="205.273438" xlink:href="#DejaVuSans-32"/>
      <use x="237.060547" xlink:href="#DejaVuSans-112"/>
      <use x="300.537109" xlink:href="#DejaVuSans-101"/>
      <use x="362.060547" xlink:href="#DejaVuSans-114"/>
      <use x="403.173828" xlink:href="#DejaVuSans-32"/>
      <use x="434.960938" xlink:href="#DejaVuSans-83"/>
      <use x="498.4375" xlink:href="#DejaVuSans-112"/>
      <use x="561.914062" xlink:href="#DejaVuSans-101"/>
      <use x="623.4375" xlink:href="#DejaVuSans-99"/>
      <use x="678.417969" xlink:href="#DejaVuSans-105"/>
      <use x="706.201172" xlink:href="#DejaVuSans-101"/>
      <use x="767.724609" xlink:href="#DejaVuSans-115"/>
     </g>
    </g>
   </g>
   <g id="patch_3">
    <path d="M 57.6 307.584 
L 57.6 41.472 
" style="fill:none;stroke:#000000;stroke-linecap:square;stroke-linejoin:miter;stroke-width:0.8;"/>
   </g>
   <g id="patch_4">
    <path d="M 414.72 307.584 
L 414.72 41.472 
" style="fill:none;stroke:#000000;stroke-linecap:square;stroke-linejoin:miter;stroke-width:0.8;"/>
   </g>
   <g id="patch_5">
    <path d="M 57.6 307.584 
L 414.72 307.584 
" style="fill:none;stroke:#000000;stroke-linecap:square;stroke-linejoin:miter;stroke-width:0.8;"/>
   </g>
   <g id="patch_6">
    <path d="M 57.6 41.472 
L 414.72 41.472 
" style="fill:none;stroke:#000000;stroke-linecap:square;stroke-linejoin:miter;stroke-width:0.8;"/>
   </g>
   <g id="text_14">
    <!-- Speciation -->
    <g transform="translate(204.714375 35.472)scale(0.12 -0.12)">
     <use xlink:href="#DejaVuSans-83"/>
     <use x="63.476562" xlink:href="#DejaVuSans-112"/>
     <use x="126.953125" xlink:href="#DejaVuSans-101"/>
     <use x="188.476562" xlink:href="#DejaVuSans-99"/>
     <use x="243.457031" xlink:href="#DejaVuSans-105"/>
     <use x="271.240234" xlink:href="#DejaVuSans-97"/>
     <use x="332.519531" xlink:href="#DejaVuSans-116"/>
     <use x="371.728516" xlink:href="#DejaVuSans-105"/>
     <use x="399.511719" xlink:href="#DejaVuSans-111"/>
     <use x="460.693359" xlink:href="#DejaVuSans-110"/>
    </g>
   </g>
  </g>
 </g>
 <defs>
  <clipPath id="p6fbd1b70cd">
   <rect height="266.112" width="357.12" x="57.6" y="41.472"/>
  </clipPath>
 </defs>
</svg>
