<?xml version="1.0" encoding="utf-8" standalone="no"?>
<!DOCTYPE svg PUBLIC "-//W3C//DTD SVG 1.1//EN"
  "http://www.w3.org/Graphics/SVG/1.1/DTD/svg11.dtd">
<!-- Created with matplotlib (https://matplotlib.org/) -->
<svg height="345.6pt" version="1.1" viewBox="0 0 460.8 345.6" width="460.8pt" xmlns="http://www.w3.org/2000/svg" xmlns:xlink="http://www.w3.org/1999/xlink">
 <metadata>
  <rdf:RDF xmlns:cc="http://creativecommons.org/ns#" xmlns:dc="http://purl.org/dc/elements/1.1/" xmlns:rdf="http://www.w3.org/1999/02/22-rdf-syntax-ns#">
   <cc:Work>
    <dc:type rdf:resource="http://purl.org/dc/dcmitype/StillImage"/>
    <dc:date>2020-08-09T06:14:36.548421</dc:date>
    <dc:format>image/svg+xml</dc:format>
    <dc:creator>
     <cc:Agent>
      <dc:title>Matplotlib v3.3.0, https://matplotlib.org/</dc:title>
     </cc:Agent>
    </dc:creator>
   </cc:Work>
  </rdf:RDF>
 </metadata>
 <defs>
  <style type="text/css">*{stroke-linecap:butt;stroke-linejoin:round;}</style>
 </defs>
 <g id="figure_1">
  <g id="patch_1">
   <path d="M 0 345.6 
L 460.8 345.6 
L 460.8 0 
L 0 0 
z
" style="fill:#ffffff;"/>
  </g>
  <g id="axes_1">
   <g id="patch_2">
    <path d="M 57.6 307.584 
L 414.72 307.584 
L 414.72 41.472 
L 57.6 41.472 
z
" style="fill:#ffffff;"/>
   </g>
   <g id="PolyCollection_1">
    <path clip-path="url(#p4b751bfe82)" d="M 73.832727 307.07712 
L 73.832727 307.584 
L 109.905455 307.584 
L 145.978182 307.584 
L 182.050909 307.584 
L 218.123636 307.584 
L 254.196364 307.584 
L 290.269091 307.584 
L 326.341818 307.584 
L 362.414545 307.584 
L 398.487273 307.584 
L 398.487273 305.0496 
L 398.487273 305.0496 
L 362.414545 305.0496 
L 326.341818 305.0496 
L 290.269091 305.0496 
L 254.196364 305.0496 
L 218.123636 305.0496 
L 182.050909 305.0496 
L 145.978182 305.0496 
L 109.905455 305.0496 
L 73.832727 307.07712 
z
" style="fill:#1f77b4;"/>
   </g>
   <g id="PolyCollection_2">
    <path clip-path="url(#p4b751bfe82)" d="M 73.832727 306.57024 
L 73.832727 307.07712 
L 109.905455 305.0496 
L 145.978182 305.0496 
L 182.050909 305.0496 
L 218.123636 305.0496 
L 254.196364 305.0496 
L 290.269091 305.0496 
L 326.341818 305.0496 
L 362.414545 305.0496 
L 398.487273 305.0496 
L 398.487273 302.5152 
L 398.487273 302.5152 
L 362.414545 302.5152 
L 326.341818 302.5152 
L 290.269091 302.5152 
L 254.196364 302.5152 
L 218.123636 302.5152 
L 182.050909 302.5152 
L 145.978182 302.5152 
L 109.905455 302.5152 
L 73.832727 306.57024 
z
" style="fill:#ff7f0e;"/>
   </g>
   <g id="PolyCollection_3">
    <path clip-path="url(#p4b751bfe82)" d="M 73.832727 306.06336 
L 73.832727 306.57024 
L 109.905455 302.5152 
L 145.978182 302.5152 
L 182.050909 302.5152 
L 218.123636 302.5152 
L 254.196364 302.5152 
L 290.269091 302.5152 
L 326.341818 302.5152 
L 362.414545 302.5152 
L 398.487273 302.5152 
L 398.487273 299.9808 
L 398.487273 299.9808 
L 362.414545 299.9808 
L 326.341818 299.9808 
L 290.269091 299.9808 
L 254.196364 299.9808 
L 218.123636 299.9808 
L 182.050909 299.9808 
L 145.978182 299.9808 
L 109.905455 299.9808 
L 73.832727 306.06336 
z
" style="fill:#2ca02c;"/>
   </g>
   <g id="PolyCollection_4">
    <path clip-path="url(#p4b751bfe82)" d="M 73.832727 305.55648 
L 73.832727 306.06336 
L 109.905455 299.9808 
L 145.978182 299.9808 
L 182.050909 299.9808 
L 218.123636 299.9808 
L 254.196364 299.9808 
L 290.269091 299.9808 
L 326.341818 299.9808 
L 362.414545 299.9808 
L 398.487273 299.9808 
L 398.487273 297.4464 
L 398.487273 297.4464 
L 362.414545 297.4464 
L 326.341818 297.4464 
L 290.269091 297.4464 
L 254.196364 297.4464 
L 218.123636 297.4464 
L 182.050909 297.4464 
L 145.978182 297.4464 
L 109.905455 297.4464 
L 73.832727 305.55648 
z
" style="fill:#d62728;"/>
   </g>
   <g id="PolyCollection_5">
    <path clip-path="url(#p4b751bfe82)" d="M 73.832727 305.0496 
L 73.832727 305.55648 
L 109.905455 297.4464 
L 145.978182 297.4464 
L 182.050909 297.4464 
L 218.123636 297.4464 
L 254.196364 297.4464 
L 290.269091 297.4464 
L 326.341818 297.4464 
L 362.414545 297.4464 
L 398.487273 297.4464 
L 398.487273 294.912 
L 398.487273 294.912 
L 362.414545 294.912 
L 326.341818 294.912 
L 290.269091 294.912 
L 254.196364 294.912 
L 218.123636 294.912 
L 182.050909 294.912 
L 145.978182 294.912 
L 109.905455 294.912 
L 73.832727 305.0496 
z
" style="fill:#9467bd;"/>
   </g>
   <g id="PolyCollection_6">
    <path clip-path="url(#p4b751bfe82)" d="M 73.832727 304.54272 
L 73.832727 305.0496 
L 109.905455 294.912 
L 145.978182 294.912 
L 182.050909 294.912 
L 218.123636 294.912 
L 254.196364 294.912 
L 290.269091 294.912 
L 326.341818 294.912 
L 362.414545 294.912 
L 398.487273 294.912 
L 398.487273 292.3776 
L 398.487273 292.3776 
L 362.414545 292.3776 
L 326.341818 292.3776 
L 290.269091 292.3776 
L 254.196364 292.3776 
L 218.123636 292.3776 
L 182.050909 292.3776 
L 145.978182 292.3776 
L 109.905455 292.3776 
L 73.832727 304.54272 
z
" style="fill:#8c564b;"/>
   </g>
   <g id="PolyCollection_7">
    <path clip-path="url(#p4b751bfe82)" d="M 73.832727 304.03584 
L 73.832727 304.54272 
L 109.905455 292.3776 
L 145.978182 292.3776 
L 182.050909 292.3776 
L 218.123636 292.3776 
L 254.196364 292.3776 
L 290.269091 292.3776 
L 326.341818 292.3776 
L 362.414545 292.3776 
L 398.487273 292.3776 
L 398.487273 289.8432 
L 398.487273 289.8432 
L 362.414545 289.8432 
L 326.341818 289.8432 
L 290.269091 289.8432 
L 254.196364 289.8432 
L 218.123636 289.8432 
L 182.050909 289.8432 
L 145.978182 289.8432 
L 109.905455 289.8432 
L 73.832727 304.03584 
z
" style="fill:#e377c2;"/>
   </g>
   <g id="PolyCollection_8">
    <path clip-path="url(#p4b751bfe82)" d="M 73.832727 303.52896 
L 73.832727 304.03584 
L 109.905455 289.8432 
L 145.978182 289.8432 
L 182.050909 289.8432 
L 218.123636 289.8432 
L 254.196364 289.8432 
L 290.269091 289.8432 
L 326.341818 289.8432 
L 362.414545 289.8432 
L 398.487273 289.8432 
L 398.487273 287.3088 
L 398.487273 287.3088 
L 362.414545 287.3088 
L 326.341818 287.3088 
L 290.269091 287.3088 
L 254.196364 287.3088 
L 218.123636 287.3088 
L 182.050909 287.3088 
L 145.978182 287.3088 
L 109.905455 287.3088 
L 73.832727 303.52896 
z
" style="fill:#7f7f7f;"/>
   </g>
   <g id="PolyCollection_9">
    <path clip-path="url(#p4b751bfe82)" d="M 73.832727 303.02208 
L 73.832727 303.52896 
L 109.905455 287.3088 
L 145.978182 287.3088 
L 182.050909 287.3088 
L 218.123636 287.3088 
L 254.196364 287.3088 
L 290.269091 287.3088 
L 326.341818 287.3088 
L 362.414545 287.3088 
L 398.487273 287.3088 
L 398.487273 284.7744 
L 398.487273 284.7744 
L 362.414545 284.7744 
L 326.341818 284.7744 
L 290.269091 284.7744 
L 254.196364 284.7744 
L 218.123636 284.7744 
L 182.050909 284.7744 
L 145.978182 284.7744 
L 109.905455 284.7744 
L 73.832727 303.02208 
z
" style="fill:#bcbd22;"/>
   </g>
   <g id="PolyCollection_10">
    <path clip-path="url(#p4b751bfe82)" d="M 73.832727 302.5152 
L 73.832727 303.02208 
L 109.905455 284.7744 
L 145.978182 284.7744 
L 182.050909 284.7744 
L 218.123636 284.7744 
L 254.196364 284.7744 
L 290.269091 284.7744 
L 326.341818 284.7744 
L 362.414545 284.7744 
L 398.487273 284.7744 
L 398.487273 282.24 
L 398.487273 282.24 
L 362.414545 282.24 
L 326.341818 282.24 
L 290.269091 282.24 
L 254.196364 282.24 
L 218.123636 282.24 
L 182.050909 282.24 
L 145.978182 282.24 
L 109.905455 282.24 
L 73.832727 302.5152 
z
" style="fill:#17becf;"/>
   </g>
   <g id="PolyCollection_11">
    <path clip-path="url(#p4b751bfe82)" d="M 73.832727 302.00832 
L 73.832727 302.5152 
L 109.905455 282.24 
L 145.978182 282.24 
L 182.050909 282.24 
L 218.123636 282.24 
L 254.196364 282.24 
L 290.269091 282.24 
L 326.341818 282.24 
L 362.414545 282.24 
L 398.487273 282.24 
L 398.487273 279.7056 
L 398.487273 279.7056 
L 362.414545 279.7056 
L 326.341818 279.7056 
L 290.269091 279.7056 
L 254.196364 279.7056 
L 218.123636 279.7056 
L 182.050909 279.7056 
L 145.978182 279.7056 
L 109.905455 279.7056 
L 73.832727 302.00832 
z
" style="fill:#1f77b4;"/>
   </g>
   <g id="PolyCollection_12">
    <path clip-path="url(#p4b751bfe82)" d="M 73.832727 301.50144 
L 73.832727 302.00832 
L 109.905455 279.7056 
L 145.978182 279.7056 
L 182.050909 279.7056 
L 218.123636 279.7056 
L 254.196364 279.7056 
L 290.269091 279.7056 
L 326.341818 279.7056 
L 362.414545 279.7056 
L 398.487273 279.7056 
L 398.487273 277.1712 
L 398.487273 277.1712 
L 362.414545 277.1712 
L 326.341818 277.1712 
L 290.269091 277.1712 
L 254.196364 277.1712 
L 218.123636 277.1712 
L 182.050909 277.1712 
L 145.978182 277.1712 
L 109.905455 277.1712 
L 73.832727 301.50144 
z
" style="fill:#ff7f0e;"/>
   </g>
   <g id="PolyCollection_13">
    <path clip-path="url(#p4b751bfe82)" d="M 73.832727 300.99456 
L 73.832727 301.50144 
L 109.905455 277.1712 
L 145.978182 277.1712 
L 182.050909 277.1712 
L 218.123636 277.1712 
L 254.196364 277.1712 
L 290.269091 277.1712 
L 326.341818 277.1712 
L 362.414545 277.1712 
L 398.487273 277.1712 
L 398.487273 274.6368 
L 398.487273 274.6368 
L 362.414545 274.6368 
L 326.341818 274.6368 
L 290.269091 274.6368 
L 254.196364 274.6368 
L 218.123636 274.6368 
L 182.050909 274.6368 
L 145.978182 274.6368 
L 109.905455 274.6368 
L 73.832727 300.99456 
z
" style="fill:#2ca02c;"/>
   </g>
   <g id="PolyCollection_14">
    <path clip-path="url(#p4b751bfe82)" d="M 73.832727 300.48768 
L 73.832727 300.99456 
L 109.905455 274.6368 
L 145.978182 274.6368 
L 182.050909 274.6368 
L 218.123636 274.6368 
L 254.196364 274.6368 
L 290.269091 274.6368 
L 326.341818 274.6368 
L 362.414545 274.6368 
L 398.487273 274.6368 
L 398.487273 272.1024 
L 398.487273 272.1024 
L 362.414545 272.1024 
L 326.341818 272.1024 
L 290.269091 272.1024 
L 254.196364 272.1024 
L 218.123636 272.1024 
L 182.050909 272.1024 
L 145.978182 272.1024 
L 109.905455 272.1024 
L 73.832727 300.48768 
z
" style="fill:#d62728;"/>
   </g>
   <g id="PolyCollection_15">
    <path clip-path="url(#p4b751bfe82)" d="M 73.832727 299.9808 
L 73.832727 300.48768 
L 109.905455 272.1024 
L 145.978182 272.1024 
L 182.050909 272.1024 
L 218.123636 272.1024 
L 254.196364 272.1024 
L 290.269091 272.1024 
L 326.341818 272.1024 
L 362.414545 272.1024 
L 398.487273 272.1024 
L 398.487273 269.568 
L 398.487273 269.568 
L 362.414545 269.568 
L 326.341818 269.568 
L 290.269091 269.568 
L 254.196364 269.568 
L 218.123636 269.568 
L 182.050909 269.568 
L 145.978182 269.568 
L 109.905455 269.568 
L 73.832727 299.9808 
z
" style="fill:#9467bd;"/>
   </g>
   <g id="PolyCollection_16">
    <path clip-path="url(#p4b751bfe82)" d="M 73.832727 299.47392 
L 73.832727 299.9808 
L 109.905455 269.568 
L 145.978182 269.568 
L 182.050909 269.568 
L 218.123636 269.568 
L 254.196364 269.568 
L 290.269091 269.568 
L 326.341818 269.568 
L 362.414545 269.568 
L 398.487273 269.568 
L 398.487273 267.0336 
L 398.487273 267.0336 
L 362.414545 267.0336 
L 326.341818 267.0336 
L 290.269091 267.0336 
L 254.196364 267.0336 
L 218.123636 267.0336 
L 182.050909 267.0336 
L 145.978182 267.0336 
L 109.905455 267.0336 
L 73.832727 299.47392 
z
" style="fill:#8c564b;"/>
   </g>
   <g id="PolyCollection_17">
    <path clip-path="url(#p4b751bfe82)" d="M 73.832727 298.96704 
L 73.832727 299.47392 
L 109.905455 267.0336 
L 145.978182 267.0336 
L 182.050909 267.0336 
L 218.123636 267.0336 
L 254.196364 267.0336 
L 290.269091 267.0336 
L 326.341818 267.0336 
L 362.414545 267.0336 
L 398.487273 267.0336 
L 398.487273 264.4992 
L 398.487273 264.4992 
L 362.414545 264.4992 
L 326.341818 264.4992 
L 290.269091 264.4992 
L 254.196364 264.4992 
L 218.123636 264.4992 
L 182.050909 264.4992 
L 145.978182 264.4992 
L 109.905455 264.4992 
L 73.832727 298.96704 
z
" style="fill:#e377c2;"/>
   </g>
   <g id="PolyCollection_18">
    <path clip-path="url(#p4b751bfe82)" d="M 73.832727 298.46016 
L 73.832727 298.96704 
L 109.905455 264.4992 
L 145.978182 264.4992 
L 182.050909 264.4992 
L 218.123636 264.4992 
L 254.196364 264.4992 
L 290.269091 264.4992 
L 326.341818 264.4992 
L 362.414545 264.4992 
L 398.487273 264.4992 
L 398.487273 261.9648 
L 398.487273 261.9648 
L 362.414545 261.9648 
L 326.341818 261.9648 
L 290.269091 261.9648 
L 254.196364 261.9648 
L 218.123636 261.9648 
L 182.050909 261.9648 
L 145.978182 261.9648 
L 109.905455 261.9648 
L 73.832727 298.46016 
z
" style="fill:#7f7f7f;"/>
   </g>
   <g id="PolyCollection_19">
    <path clip-path="url(#p4b751bfe82)" d="M 73.832727 297.95328 
L 73.832727 298.46016 
L 109.905455 261.9648 
L 145.978182 261.9648 
L 182.050909 261.9648 
L 218.123636 261.9648 
L 254.196364 261.9648 
L 290.269091 261.9648 
L 326.341818 261.9648 
L 362.414545 261.9648 
L 398.487273 261.9648 
L 398.487273 259.4304 
L 398.487273 259.4304 
L 362.414545 259.4304 
L 326.341818 259.4304 
L 290.269091 259.4304 
L 254.196364 259.4304 
L 218.123636 259.4304 
L 182.050909 259.4304 
L 145.978182 259.4304 
L 109.905455 259.4304 
L 73.832727 297.95328 
z
" style="fill:#bcbd22;"/>
   </g>
   <g id="PolyCollection_20">
    <path clip-path="url(#p4b751bfe82)" d="M 73.832727 297.4464 
L 73.832727 297.95328 
L 109.905455 259.4304 
L 145.978182 259.4304 
L 182.050909 259.4304 
L 218.123636 259.4304 
L 254.196364 259.4304 
L 290.269091 259.4304 
L 326.341818 259.4304 
L 362.414545 259.4304 
L 398.487273 259.4304 
L 398.487273 256.896 
L 398.487273 256.896 
L 362.414545 256.896 
L 326.341818 256.896 
L 290.269091 256.896 
L 254.196364 256.896 
L 218.123636 256.896 
L 182.050909 256.896 
L 145.978182 256.896 
L 109.905455 256.896 
L 73.832727 297.4464 
z
" style="fill:#17becf;"/>
   </g>
   <g id="PolyCollection_21">
    <path clip-path="url(#p4b751bfe82)" d="M 73.832727 296.93952 
L 73.832727 297.4464 
L 109.905455 256.896 
L 145.978182 256.896 
L 182.050909 256.896 
L 218.123636 256.896 
L 254.196364 256.896 
L 290.269091 256.896 
L 326.341818 256.896 
L 362.414545 256.896 
L 398.487273 256.896 
L 398.487273 254.3616 
L 398.487273 254.3616 
L 362.414545 254.3616 
L 326.341818 254.3616 
L 290.269091 254.3616 
L 254.196364 254.3616 
L 218.123636 254.3616 
L 182.050909 254.3616 
L 145.978182 254.3616 
L 109.905455 254.3616 
L 73.832727 296.93952 
z
" style="fill:#1f77b4;"/>
   </g>
   <g id="PolyCollection_22">
    <path clip-path="url(#p4b751bfe82)" d="M 73.832727 296.43264 
L 73.832727 296.93952 
L 109.905455 254.3616 
L 145.978182 254.3616 
L 182.050909 254.3616 
L 218.123636 254.3616 
L 254.196364 254.3616 
L 290.269091 254.3616 
L 326.341818 254.3616 
L 362.414545 254.3616 
L 398.487273 254.3616 
L 398.487273 251.8272 
L 398.487273 251.8272 
L 362.414545 251.8272 
L 326.341818 251.8272 
L 290.269091 251.8272 
L 254.196364 251.8272 
L 218.123636 251.8272 
L 182.050909 251.8272 
L 145.978182 251.8272 
L 109.905455 251.8272 
L 73.832727 296.43264 
z
" style="fill:#ff7f0e;"/>
   </g>
   <g id="PolyCollection_23">
    <path clip-path="url(#p4b751bfe82)" d="M 73.832727 295.92576 
L 73.832727 296.43264 
L 109.905455 251.8272 
L 145.978182 251.8272 
L 182.050909 251.8272 
L 218.123636 251.8272 
L 254.196364 251.8272 
L 290.269091 251.8272 
L 326.341818 251.8272 
L 362.414545 251.8272 
L 398.487273 251.8272 
L 398.487273 249.2928 
L 398.487273 249.2928 
L 362.414545 249.2928 
L 326.341818 249.2928 
L 290.269091 249.2928 
L 254.196364 249.2928 
L 218.123636 249.2928 
L 182.050909 249.2928 
L 145.978182 249.2928 
L 109.905455 249.2928 
L 73.832727 295.92576 
z
" style="fill:#2ca02c;"/>
   </g>
   <g id="PolyCollection_24">
    <path clip-path="url(#p4b751bfe82)" d="M 73.832727 295.41888 
L 73.832727 295.92576 
L 109.905455 249.2928 
L 145.978182 249.2928 
L 182.050909 249.2928 
L 218.123636 249.2928 
L 254.196364 249.2928 
L 290.269091 249.2928 
L 326.341818 249.2928 
L 362.414545 249.2928 
L 398.487273 249.2928 
L 398.487273 246.7584 
L 398.487273 246.7584 
L 362.414545 246.7584 
L 326.341818 246.7584 
L 290.269091 246.7584 
L 254.196364 246.7584 
L 218.123636 246.7584 
L 182.050909 246.7584 
L 145.978182 246.7584 
L 109.905455 246.7584 
L 73.832727 295.41888 
z
" style="fill:#d62728;"/>
   </g>
   <g id="PolyCollection_25">
    <path clip-path="url(#p4b751bfe82)" d="M 73.832727 294.912 
L 73.832727 295.41888 
L 109.905455 246.7584 
L 145.978182 246.7584 
L 182.050909 246.7584 
L 218.123636 246.7584 
L 254.196364 246.7584 
L 290.269091 246.7584 
L 326.341818 246.7584 
L 362.414545 246.7584 
L 398.487273 246.7584 
L 398.487273 244.224 
L 398.487273 244.224 
L 362.414545 244.224 
L 326.341818 244.224 
L 290.269091 244.224 
L 254.196364 244.224 
L 218.123636 244.224 
L 182.050909 244.224 
L 145.978182 244.224 
L 109.905455 244.224 
L 73.832727 294.912 
z
" style="fill:#9467bd;"/>
   </g>
   <g id="PolyCollection_26">
    <path clip-path="url(#p4b751bfe82)" d="M 73.832727 294.40512 
L 73.832727 294.912 
L 109.905455 244.224 
L 145.978182 244.224 
L 182.050909 244.224 
L 218.123636 244.224 
L 254.196364 244.224 
L 290.269091 244.224 
L 326.341818 244.224 
L 362.414545 244.224 
L 398.487273 244.224 
L 398.487273 241.6896 
L 398.487273 241.6896 
L 362.414545 241.6896 
L 326.341818 241.6896 
L 290.269091 241.6896 
L 254.196364 241.6896 
L 218.123636 241.6896 
L 182.050909 241.6896 
L 145.978182 241.6896 
L 109.905455 241.6896 
L 73.832727 294.40512 
z
" style="fill:#8c564b;"/>
   </g>
   <g id="PolyCollection_27">
    <path clip-path="url(#p4b751bfe82)" d="M 73.832727 293.89824 
L 73.832727 294.40512 
L 109.905455 241.6896 
L 145.978182 241.6896 
L 182.050909 241.6896 
L 218.123636 241.6896 
L 254.196364 241.6896 
L 290.269091 241.6896 
L 326.341818 241.6896 
L 362.414545 241.6896 
L 398.487273 241.6896 
L 398.487273 239.1552 
L 398.487273 239.1552 
L 362.414545 239.1552 
L 326.341818 239.1552 
L 290.269091 239.1552 
L 254.196364 239.1552 
L 218.123636 239.1552 
L 182.050909 239.1552 
L 145.978182 239.1552 
L 109.905455 239.1552 
L 73.832727 293.89824 
z
" style="fill:#e377c2;"/>
   </g>
   <g id="PolyCollection_28">
    <path clip-path="url(#p4b751bfe82)" d="M 73.832727 293.39136 
L 73.832727 293.89824 
L 109.905455 239.1552 
L 145.978182 239.1552 
L 182.050909 239.1552 
L 218.123636 239.1552 
L 254.196364 239.1552 
L 290.269091 239.1552 
L 326.341818 239.1552 
L 362.414545 239.1552 
L 398.487273 239.1552 
L 398.487273 236.6208 
L 398.487273 236.6208 
L 362.414545 236.6208 
L 326.341818 236.6208 
L 290.269091 236.6208 
L 254.196364 236.6208 
L 218.123636 236.6208 
L 182.050909 236.6208 
L 145.978182 236.6208 
L 109.905455 236.6208 
L 73.832727 293.39136 
z
" style="fill:#7f7f7f;"/>
   </g>
   <g id="PolyCollection_29">
    <path clip-path="url(#p4b751bfe82)" d="M 73.832727 292.88448 
L 73.832727 293.39136 
L 109.905455 236.6208 
L 145.978182 236.6208 
L 182.050909 236.6208 
L 218.123636 236.6208 
L 254.196364 236.6208 
L 290.269091 236.6208 
L 326.341818 236.6208 
L 362.414545 236.6208 
L 398.487273 236.6208 
L 398.487273 234.0864 
L 398.487273 234.0864 
L 362.414545 234.0864 
L 326.341818 234.0864 
L 290.269091 234.0864 
L 254.196364 234.0864 
L 218.123636 234.0864 
L 182.050909 234.0864 
L 145.978182 234.0864 
L 109.905455 234.0864 
L 73.832727 292.88448 
z
" style="fill:#bcbd22;"/>
   </g>
   <g id="PolyCollection_30">
    <path clip-path="url(#p4b751bfe82)" d="M 73.832727 292.3776 
L 73.832727 292.88448 
L 109.905455 234.0864 
L 145.978182 234.0864 
L 182.050909 234.0864 
L 218.123636 234.0864 
L 254.196364 234.0864 
L 290.269091 234.0864 
L 326.341818 234.0864 
L 362.414545 234.0864 
L 398.487273 234.0864 
L 398.487273 231.552 
L 398.487273 231.552 
L 362.414545 231.552 
L 326.341818 231.552 
L 290.269091 231.552 
L 254.196364 231.552 
L 218.123636 231.552 
L 182.050909 231.552 
L 145.978182 231.552 
L 109.905455 231.552 
L 73.832727 292.3776 
z
" style="fill:#17becf;"/>
   </g>
   <g id="PolyCollection_31">
    <path clip-path="url(#p4b751bfe82)" d="M 73.832727 291.87072 
L 73.832727 292.3776 
L 109.905455 231.552 
L 145.978182 231.552 
L 182.050909 231.552 
L 218.123636 231.552 
L 254.196364 231.552 
L 290.269091 231.552 
L 326.341818 231.552 
L 362.414545 231.552 
L 398.487273 231.552 
L 398.487273 229.0176 
L 398.487273 229.0176 
L 362.414545 229.0176 
L 326.341818 229.0176 
L 290.269091 229.0176 
L 254.196364 229.0176 
L 218.123636 229.0176 
L 182.050909 229.0176 
L 145.978182 229.0176 
L 109.905455 229.0176 
L 73.832727 291.87072 
z
" style="fill:#1f77b4;"/>
   </g>
   <g id="PolyCollection_32">
    <path clip-path="url(#p4b751bfe82)" d="M 73.832727 291.36384 
L 73.832727 291.87072 
L 109.905455 229.0176 
L 145.978182 229.0176 
L 182.050909 229.0176 
L 218.123636 229.0176 
L 254.196364 229.0176 
L 290.269091 229.0176 
L 326.341818 229.0176 
L 362.414545 229.0176 
L 398.487273 229.0176 
L 398.487273 226.4832 
L 398.487273 226.4832 
L 362.414545 226.4832 
L 326.341818 226.4832 
L 290.269091 226.4832 
L 254.196364 226.4832 
L 218.123636 226.4832 
L 182.050909 226.4832 
L 145.978182 226.4832 
L 109.905455 226.4832 
L 73.832727 291.36384 
z
" style="fill:#ff7f0e;"/>
   </g>
   <g id="PolyCollection_33">
    <path clip-path="url(#p4b751bfe82)" d="M 73.832727 290.85696 
L 73.832727 291.36384 
L 109.905455 226.4832 
L 145.978182 226.4832 
L 182.050909 226.4832 
L 218.123636 226.4832 
L 254.196364 226.4832 
L 290.269091 226.4832 
L 326.341818 226.4832 
L 362.414545 226.4832 
L 398.487273 226.4832 
L 398.487273 223.9488 
L 398.487273 223.9488 
L 362.414545 223.9488 
L 326.341818 223.9488 
L 290.269091 223.9488 
L 254.196364 223.9488 
L 218.123636 223.9488 
L 182.050909 223.9488 
L 145.978182 223.9488 
L 109.905455 223.9488 
L 73.832727 290.85696 
z
" style="fill:#2ca02c;"/>
   </g>
   <g id="PolyCollection_34">
    <path clip-path="url(#p4b751bfe82)" d="M 73.832727 290.35008 
L 73.832727 290.85696 
L 109.905455 223.9488 
L 145.978182 223.9488 
L 182.050909 223.9488 
L 218.123636 223.9488 
L 254.196364 223.9488 
L 290.269091 223.9488 
L 326.341818 223.9488 
L 362.414545 223.9488 
L 398.487273 223.9488 
L 398.487273 221.4144 
L 398.487273 221.4144 
L 362.414545 221.4144 
L 326.341818 221.4144 
L 290.269091 221.4144 
L 254.196364 221.4144 
L 218.123636 221.4144 
L 182.050909 221.4144 
L 145.978182 221.4144 
L 109.905455 221.4144 
L 73.832727 290.35008 
z
" style="fill:#d62728;"/>
   </g>
   <g id="PolyCollection_35">
    <path clip-path="url(#p4b751bfe82)" d="M 73.832727 289.8432 
L 73.832727 290.35008 
L 109.905455 221.4144 
L 145.978182 221.4144 
L 182.050909 221.4144 
L 218.123636 221.4144 
L 254.196364 221.4144 
L 290.269091 221.4144 
L 326.341818 221.4144 
L 362.414545 221.4144 
L 398.487273 221.4144 
L 398.487273 218.88 
L 398.487273 218.88 
L 362.414545 218.88 
L 326.341818 218.88 
L 290.269091 218.88 
L 254.196364 218.88 
L 218.123636 218.88 
L 182.050909 218.88 
L 145.978182 218.88 
L 109.905455 218.88 
L 73.832727 289.8432 
z
" style="fill:#9467bd;"/>
   </g>
   <g id="PolyCollection_36">
    <path clip-path="url(#p4b751bfe82)" d="M 73.832727 289.33632 
L 73.832727 289.8432 
L 109.905455 218.88 
L 145.978182 218.88 
L 182.050909 218.88 
L 218.123636 218.88 
L 254.196364 218.88 
L 290.269091 218.88 
L 326.341818 218.88 
L 362.414545 218.88 
L 398.487273 218.88 
L 398.487273 216.3456 
L 398.487273 216.3456 
L 362.414545 216.3456 
L 326.341818 216.3456 
L 290.269091 216.3456 
L 254.196364 216.3456 
L 218.123636 216.3456 
L 182.050909 216.3456 
L 145.978182 216.3456 
L 109.905455 216.3456 
L 73.832727 289.33632 
z
" style="fill:#8c564b;"/>
   </g>
   <g id="PolyCollection_37">
    <path clip-path="url(#p4b751bfe82)" d="M 73.832727 288.82944 
L 73.832727 289.33632 
L 109.905455 216.3456 
L 145.978182 216.3456 
L 182.050909 216.3456 
L 218.123636 216.3456 
L 254.196364 216.3456 
L 290.269091 216.3456 
L 326.341818 216.3456 
L 362.414545 216.3456 
L 398.487273 216.3456 
L 398.487273 213.8112 
L 398.487273 213.8112 
L 362.414545 213.8112 
L 326.341818 213.8112 
L 290.269091 213.8112 
L 254.196364 213.8112 
L 218.123636 213.8112 
L 182.050909 213.8112 
L 145.978182 213.8112 
L 109.905455 213.8112 
L 73.832727 288.82944 
z
" style="fill:#e377c2;"/>
   </g>
   <g id="PolyCollection_38">
    <path clip-path="url(#p4b751bfe82)" d="M 73.832727 288.32256 
L 73.832727 288.82944 
L 109.905455 213.8112 
L 145.978182 213.8112 
L 182.050909 213.8112 
L 218.123636 213.8112 
L 254.196364 213.8112 
L 290.269091 213.8112 
L 326.341818 213.8112 
L 362.414545 213.8112 
L 398.487273 213.8112 
L 398.487273 211.2768 
L 398.487273 211.2768 
L 362.414545 211.2768 
L 326.341818 211.2768 
L 290.269091 211.2768 
L 254.196364 211.2768 
L 218.123636 211.2768 
L 182.050909 211.2768 
L 145.978182 211.2768 
L 109.905455 211.2768 
L 73.832727 288.32256 
z
" style="fill:#7f7f7f;"/>
   </g>
   <g id="PolyCollection_39">
    <path clip-path="url(#p4b751bfe82)" d="M 73.832727 287.81568 
L 73.832727 288.32256 
L 109.905455 211.2768 
L 145.978182 211.2768 
L 182.050909 211.2768 
L 218.123636 211.2768 
L 254.196364 211.2768 
L 290.269091 211.2768 
L 326.341818 211.2768 
L 362.414545 211.2768 
L 398.487273 211.2768 
L 398.487273 208.7424 
L 398.487273 208.7424 
L 362.414545 208.7424 
L 326.341818 208.7424 
L 290.269091 208.7424 
L 254.196364 208.7424 
L 218.123636 208.7424 
L 182.050909 208.7424 
L 145.978182 208.7424 
L 109.905455 208.7424 
L 73.832727 287.81568 
z
" style="fill:#bcbd22;"/>
   </g>
   <g id="PolyCollection_40">
    <path clip-path="url(#p4b751bfe82)" d="M 73.832727 287.3088 
L 73.832727 287.81568 
L 109.905455 208.7424 
L 145.978182 208.7424 
L 182.050909 208.7424 
L 218.123636 208.7424 
L 254.196364 208.7424 
L 290.269091 208.7424 
L 326.341818 208.7424 
L 362.414545 208.7424 
L 398.487273 208.7424 
L 398.487273 206.208 
L 398.487273 206.208 
L 362.414545 206.208 
L 326.341818 206.208 
L 290.269091 206.208 
L 254.196364 206.208 
L 218.123636 206.208 
L 182.050909 206.208 
L 145.978182 206.208 
L 109.905455 206.208 
L 73.832727 287.3088 
z
" style="fill:#17becf;"/>
   </g>
   <g id="PolyCollection_41">
    <path clip-path="url(#p4b751bfe82)" d="M 73.832727 286.80192 
L 73.832727 287.3088 
L 109.905455 206.208 
L 145.978182 206.208 
L 182.050909 206.208 
L 218.123636 206.208 
L 254.196364 206.208 
L 290.269091 206.208 
L 326.341818 206.208 
L 362.414545 206.208 
L 398.487273 206.208 
L 398.487273 203.6736 
L 398.487273 203.6736 
L 362.414545 203.6736 
L 326.341818 203.6736 
L 290.269091 203.6736 
L 254.196364 203.6736 
L 218.123636 203.6736 
L 182.050909 203.6736 
L 145.978182 203.6736 
L 109.905455 203.6736 
L 73.832727 286.80192 
z
" style="fill:#1f77b4;"/>
   </g>
   <g id="PolyCollection_42">
    <path clip-path="url(#p4b751bfe82)" d="M 73.832727 286.29504 
L 73.832727 286.80192 
L 109.905455 203.6736 
L 145.978182 203.6736 
L 182.050909 203.6736 
L 218.123636 203.6736 
L 254.196364 203.6736 
L 290.269091 203.6736 
L 326.341818 203.6736 
L 362.414545 203.6736 
L 398.487273 203.6736 
L 398.487273 201.1392 
L 398.487273 201.1392 
L 362.414545 201.1392 
L 326.341818 201.1392 
L 290.269091 201.1392 
L 254.196364 201.1392 
L 218.123636 201.1392 
L 182.050909 201.1392 
L 145.978182 201.1392 
L 109.905455 201.1392 
L 73.832727 286.29504 
z
" style="fill:#ff7f0e;"/>
   </g>
   <g id="PolyCollection_43">
    <path clip-path="url(#p4b751bfe82)" d="M 73.832727 285.78816 
L 73.832727 286.29504 
L 109.905455 201.1392 
L 145.978182 201.1392 
L 182.050909 201.1392 
L 218.123636 201.1392 
L 254.196364 201.1392 
L 290.269091 201.1392 
L 326.341818 201.1392 
L 362.414545 201.1392 
L 398.487273 201.1392 
L 398.487273 198.6048 
L 398.487273 198.6048 
L 362.414545 198.6048 
L 326.341818 198.6048 
L 290.269091 198.6048 
L 254.196364 198.6048 
L 218.123636 198.6048 
L 182.050909 198.6048 
L 145.978182 198.6048 
L 109.905455 198.6048 
L 73.832727 285.78816 
z
" style="fill:#2ca02c;"/>
   </g>
   <g id="PolyCollection_44">
    <path clip-path="url(#p4b751bfe82)" d="M 73.832727 285.28128 
L 73.832727 285.78816 
L 109.905455 198.6048 
L 145.978182 198.6048 
L 182.050909 198.6048 
L 218.123636 198.6048 
L 254.196364 198.6048 
L 290.269091 198.6048 
L 326.341818 198.6048 
L 362.414545 198.6048 
L 398.487273 198.6048 
L 398.487273 196.0704 
L 398.487273 196.0704 
L 362.414545 196.0704 
L 326.341818 196.0704 
L 290.269091 196.0704 
L 254.196364 196.0704 
L 218.123636 196.0704 
L 182.050909 196.0704 
L 145.978182 196.0704 
L 109.905455 196.0704 
L 73.832727 285.28128 
z
" style="fill:#d62728;"/>
   </g>
   <g id="PolyCollection_45">
    <path clip-path="url(#p4b751bfe82)" d="M 73.832727 284.7744 
L 73.832727 285.28128 
L 109.905455 196.0704 
L 145.978182 196.0704 
L 182.050909 196.0704 
L 218.123636 196.0704 
L 254.196364 196.0704 
L 290.269091 196.0704 
L 326.341818 196.0704 
L 362.414545 196.0704 
L 398.487273 196.0704 
L 398.487273 193.536 
L 398.487273 193.536 
L 362.414545 193.536 
L 326.341818 193.536 
L 290.269091 193.536 
L 254.196364 193.536 
L 218.123636 193.536 
L 182.050909 193.536 
L 145.978182 193.536 
L 109.905455 193.536 
L 73.832727 284.7744 
z
" style="fill:#9467bd;"/>
   </g>
   <g id="PolyCollection_46">
    <path clip-path="url(#p4b751bfe82)" d="M 73.832727 284.26752 
L 73.832727 284.7744 
L 109.905455 193.536 
L 145.978182 193.536 
L 182.050909 193.536 
L 218.123636 193.536 
L 254.196364 193.536 
L 290.269091 193.536 
L 326.341818 193.536 
L 362.414545 193.536 
L 398.487273 193.536 
L 398.487273 191.0016 
L 398.487273 191.0016 
L 362.414545 191.0016 
L 326.341818 191.0016 
L 290.269091 191.0016 
L 254.196364 191.0016 
L 218.123636 191.0016 
L 182.050909 191.0016 
L 145.978182 191.0016 
L 109.905455 191.0016 
L 73.832727 284.26752 
z
" style="fill:#8c564b;"/>
   </g>
   <g id="PolyCollection_47">
    <path clip-path="url(#p4b751bfe82)" d="M 73.832727 283.76064 
L 73.832727 284.26752 
L 109.905455 191.0016 
L 145.978182 191.0016 
L 182.050909 191.0016 
L 218.123636 191.0016 
L 254.196364 191.0016 
L 290.269091 191.0016 
L 326.341818 191.0016 
L 362.414545 191.0016 
L 398.487273 191.0016 
L 398.487273 188.4672 
L 398.487273 188.4672 
L 362.414545 188.4672 
L 326.341818 188.4672 
L 290.269091 188.4672 
L 254.196364 188.4672 
L 218.123636 188.4672 
L 182.050909 188.4672 
L 145.978182 188.4672 
L 109.905455 188.4672 
L 73.832727 283.76064 
z
" style="fill:#e377c2;"/>
   </g>
   <g id="PolyCollection_48">
    <path clip-path="url(#p4b751bfe82)" d="M 73.832727 283.25376 
L 73.832727 283.76064 
L 109.905455 188.4672 
L 145.978182 188.4672 
L 182.050909 188.4672 
L 218.123636 188.4672 
L 254.196364 188.4672 
L 290.269091 188.4672 
L 326.341818 188.4672 
L 362.414545 188.4672 
L 398.487273 188.4672 
L 398.487273 185.9328 
L 398.487273 185.9328 
L 362.414545 185.9328 
L 326.341818 185.9328 
L 290.269091 185.9328 
L 254.196364 185.9328 
L 218.123636 185.9328 
L 182.050909 185.9328 
L 145.978182 185.9328 
L 109.905455 185.9328 
L 73.832727 283.25376 
z
" style="fill:#7f7f7f;"/>
   </g>
   <g id="PolyCollection_49">
    <path clip-path="url(#p4b751bfe82)" d="M 73.832727 282.74688 
L 73.832727 283.25376 
L 109.905455 185.9328 
L 145.978182 185.9328 
L 182.050909 185.9328 
L 218.123636 185.9328 
L 254.196364 185.9328 
L 290.269091 185.9328 
L 326.341818 185.9328 
L 362.414545 185.9328 
L 398.487273 185.9328 
L 398.487273 183.3984 
L 398.487273 183.3984 
L 362.414545 183.3984 
L 326.341818 183.3984 
L 290.269091 183.3984 
L 254.196364 183.3984 
L 218.123636 183.3984 
L 182.050909 183.3984 
L 145.978182 183.3984 
L 109.905455 183.3984 
L 73.832727 282.74688 
z
" style="fill:#bcbd22;"/>
   </g>
   <g id="PolyCollection_50">
    <path clip-path="url(#p4b751bfe82)" d="M 73.832727 282.24 
L 73.832727 282.74688 
L 109.905455 183.3984 
L 145.978182 183.3984 
L 182.050909 183.3984 
L 218.123636 183.3984 
L 254.196364 183.3984 
L 290.269091 183.3984 
L 326.341818 183.3984 
L 362.414545 183.3984 
L 398.487273 183.3984 
L 398.487273 180.864 
L 398.487273 180.864 
L 362.414545 180.864 
L 326.341818 180.864 
L 290.269091 180.864 
L 254.196364 180.864 
L 218.123636 180.864 
L 182.050909 180.864 
L 145.978182 180.864 
L 109.905455 180.864 
L 73.832727 282.24 
z
" style="fill:#17becf;"/>
   </g>
   <g id="PolyCollection_51">
    <path clip-path="url(#p4b751bfe82)" d="M 73.832727 281.73312 
L 73.832727 282.24 
L 109.905455 180.864 
L 145.978182 180.864 
L 182.050909 180.864 
L 218.123636 180.864 
L 254.196364 180.864 
L 290.269091 180.864 
L 326.341818 180.864 
L 362.414545 180.864 
L 398.487273 180.864 
L 398.487273 178.3296 
L 398.487273 178.3296 
L 362.414545 178.3296 
L 326.341818 178.3296 
L 290.269091 178.3296 
L 254.196364 178.3296 
L 218.123636 178.3296 
L 182.050909 178.3296 
L 145.978182 178.3296 
L 109.905455 178.3296 
L 73.832727 281.73312 
z
" style="fill:#1f77b4;"/>
   </g>
   <g id="PolyCollection_52">
    <path clip-path="url(#p4b751bfe82)" d="M 73.832727 281.22624 
L 73.832727 281.73312 
L 109.905455 178.3296 
L 145.978182 178.3296 
L 182.050909 178.3296 
L 218.123636 178.3296 
L 254.196364 178.3296 
L 290.269091 178.3296 
L 326.341818 178.3296 
L 362.414545 178.3296 
L 398.487273 178.3296 
L 398.487273 175.7952 
L 398.487273 175.7952 
L 362.414545 175.7952 
L 326.341818 175.7952 
L 290.269091 175.7952 
L 254.196364 175.7952 
L 218.123636 175.7952 
L 182.050909 175.7952 
L 145.978182 175.7952 
L 109.905455 175.7952 
L 73.832727 281.22624 
z
" style="fill:#ff7f0e;"/>
   </g>
   <g id="PolyCollection_53">
    <path clip-path="url(#p4b751bfe82)" d="M 73.832727 280.71936 
L 73.832727 281.22624 
L 109.905455 175.7952 
L 145.978182 175.7952 
L 182.050909 175.7952 
L 218.123636 175.7952 
L 254.196364 175.7952 
L 290.269091 175.7952 
L 326.341818 175.7952 
L 362.414545 175.7952 
L 398.487273 175.7952 
L 398.487273 173.2608 
L 398.487273 173.2608 
L 362.414545 173.2608 
L 326.341818 173.2608 
L 290.269091 173.2608 
L 254.196364 173.2608 
L 218.123636 173.2608 
L 182.050909 173.2608 
L 145.978182 173.2608 
L 109.905455 173.2608 
L 73.832727 280.71936 
z
" style="fill:#2ca02c;"/>
   </g>
   <g id="PolyCollection_54">
    <path clip-path="url(#p4b751bfe82)" d="M 73.832727 280.21248 
L 73.832727 280.71936 
L 109.905455 173.2608 
L 145.978182 173.2608 
L 182.050909 173.2608 
L 218.123636 173.2608 
L 254.196364 173.2608 
L 290.269091 173.2608 
L 326.341818 173.2608 
L 362.414545 173.2608 
L 398.487273 173.2608 
L 398.487273 170.7264 
L 398.487273 170.7264 
L 362.414545 170.7264 
L 326.341818 170.7264 
L 290.269091 170.7264 
L 254.196364 170.7264 
L 218.123636 170.7264 
L 182.050909 170.7264 
L 145.978182 170.7264 
L 109.905455 170.7264 
L 73.832727 280.21248 
z
" style="fill:#d62728;"/>
   </g>
   <g id="PolyCollection_55">
    <path clip-path="url(#p4b751bfe82)" d="M 73.832727 279.7056 
L 73.832727 280.21248 
L 109.905455 170.7264 
L 145.978182 170.7264 
L 182.050909 170.7264 
L 218.123636 170.7264 
L 254.196364 170.7264 
L 290.269091 170.7264 
L 326.341818 170.7264 
L 362.414545 170.7264 
L 398.487273 170.7264 
L 398.487273 168.192 
L 398.487273 168.192 
L 362.414545 168.192 
L 326.341818 168.192 
L 290.269091 168.192 
L 254.196364 168.192 
L 218.123636 168.192 
L 182.050909 168.192 
L 145.978182 168.192 
L 109.905455 168.192 
L 73.832727 279.7056 
z
" style="fill:#9467bd;"/>
   </g>
   <g id="PolyCollection_56">
    <path clip-path="url(#p4b751bfe82)" d="M 73.832727 279.19872 
L 73.832727 279.7056 
L 109.905455 168.192 
L 145.978182 168.192 
L 182.050909 168.192 
L 218.123636 168.192 
L 254.196364 168.192 
L 290.269091 168.192 
L 326.341818 168.192 
L 362.414545 168.192 
L 398.487273 168.192 
L 398.487273 165.6576 
L 398.487273 165.6576 
L 362.414545 165.6576 
L 326.341818 165.6576 
L 290.269091 165.6576 
L 254.196364 165.6576 
L 218.123636 165.6576 
L 182.050909 165.6576 
L 145.978182 165.6576 
L 109.905455 165.6576 
L 73.832727 279.19872 
z
" style="fill:#8c564b;"/>
   </g>
   <g id="PolyCollection_57">
    <path clip-path="url(#p4b751bfe82)" d="M 73.832727 278.69184 
L 73.832727 279.19872 
L 109.905455 165.6576 
L 145.978182 165.6576 
L 182.050909 165.6576 
L 218.123636 165.6576 
L 254.196364 165.6576 
L 290.269091 165.6576 
L 326.341818 165.6576 
L 362.414545 165.6576 
L 398.487273 165.6576 
L 398.487273 163.1232 
L 398.487273 163.1232 
L 362.414545 163.1232 
L 326.341818 163.1232 
L 290.269091 163.1232 
L 254.196364 163.1232 
L 218.123636 163.1232 
L 182.050909 163.1232 
L 145.978182 163.1232 
L 109.905455 163.1232 
L 73.832727 278.69184 
z
" style="fill:#e377c2;"/>
   </g>
   <g id="PolyCollection_58">
    <path clip-path="url(#p4b751bfe82)" d="M 73.832727 278.18496 
L 73.832727 278.69184 
L 109.905455 163.1232 
L 145.978182 163.1232 
L 182.050909 163.1232 
L 218.123636 163.1232 
L 254.196364 163.1232 
L 290.269091 163.1232 
L 326.341818 163.1232 
L 362.414545 163.1232 
L 398.487273 163.1232 
L 398.487273 160.5888 
L 398.487273 160.5888 
L 362.414545 160.5888 
L 326.341818 160.5888 
L 290.269091 160.5888 
L 254.196364 160.5888 
L 218.123636 160.5888 
L 182.050909 160.5888 
L 145.978182 160.5888 
L 109.905455 160.5888 
L 73.832727 278.18496 
z
" style="fill:#7f7f7f;"/>
   </g>
   <g id="PolyCollection_59">
    <path clip-path="url(#p4b751bfe82)" d="M 73.832727 277.67808 
L 73.832727 278.18496 
L 109.905455 160.5888 
L 145.978182 160.5888 
L 182.050909 160.5888 
L 218.123636 160.5888 
L 254.196364 160.5888 
L 290.269091 160.5888 
L 326.341818 160.5888 
L 362.414545 160.5888 
L 398.487273 160.5888 
L 398.487273 158.0544 
L 398.487273 158.0544 
L 362.414545 158.0544 
L 326.341818 158.0544 
L 290.269091 158.0544 
L 254.196364 158.0544 
L 218.123636 158.0544 
L 182.050909 158.0544 
L 145.978182 158.0544 
L 109.905455 158.0544 
L 73.832727 277.67808 
z
" style="fill:#bcbd22;"/>
   </g>
   <g id="PolyCollection_60">
    <path clip-path="url(#p4b751bfe82)" d="M 73.832727 277.1712 
L 73.832727 277.67808 
L 109.905455 158.0544 
L 145.978182 158.0544 
L 182.050909 158.0544 
L 218.123636 158.0544 
L 254.196364 158.0544 
L 290.269091 158.0544 
L 326.341818 158.0544 
L 362.414545 158.0544 
L 398.487273 158.0544 
L 398.487273 155.52 
L 398.487273 155.52 
L 362.414545 155.52 
L 326.341818 155.52 
L 290.269091 155.52 
L 254.196364 155.52 
L 218.123636 155.52 
L 182.050909 155.52 
L 145.978182 155.52 
L 109.905455 155.52 
L 73.832727 277.1712 
z
" style="fill:#17becf;"/>
   </g>
   <g id="PolyCollection_61">
    <path clip-path="url(#p4b751bfe82)" d="M 73.832727 276.66432 
L 73.832727 277.1712 
L 109.905455 155.52 
L 145.978182 155.52 
L 182.050909 155.52 
L 218.123636 155.52 
L 254.196364 155.52 
L 290.269091 155.52 
L 326.341818 155.52 
L 362.414545 155.52 
L 398.487273 155.52 
L 398.487273 152.9856 
L 398.487273 152.9856 
L 362.414545 152.9856 
L 326.341818 152.9856 
L 290.269091 152.9856 
L 254.196364 152.9856 
L 218.123636 152.9856 
L 182.050909 152.9856 
L 145.978182 152.9856 
L 109.905455 152.9856 
L 73.832727 276.66432 
z
" style="fill:#1f77b4;"/>
   </g>
   <g id="PolyCollection_62">
    <path clip-path="url(#p4b751bfe82)" d="M 73.832727 276.15744 
L 73.832727 276.66432 
L 109.905455 152.9856 
L 145.978182 152.9856 
L 182.050909 152.9856 
L 218.123636 152.9856 
L 254.196364 152.9856 
L 290.269091 152.9856 
L 326.341818 152.9856 
L 362.414545 152.9856 
L 398.487273 152.9856 
L 398.487273 150.4512 
L 398.487273 150.4512 
L 362.414545 150.4512 
L 326.341818 150.4512 
L 290.269091 150.4512 
L 254.196364 150.4512 
L 218.123636 150.4512 
L 182.050909 150.4512 
L 145.978182 150.4512 
L 109.905455 150.4512 
L 73.832727 276.15744 
z
" style="fill:#ff7f0e;"/>
   </g>
   <g id="PolyCollection_63">
    <path clip-path="url(#p4b751bfe82)" d="M 73.832727 275.65056 
L 73.832727 276.15744 
L 109.905455 150.4512 
L 145.978182 150.4512 
L 182.050909 150.4512 
L 218.123636 150.4512 
L 254.196364 150.4512 
L 290.269091 150.4512 
L 326.341818 150.4512 
L 362.414545 150.4512 
L 398.487273 150.4512 
L 398.487273 147.9168 
L 398.487273 147.9168 
L 362.414545 147.9168 
L 326.341818 147.9168 
L 290.269091 147.9168 
L 254.196364 147.9168 
L 218.123636 147.9168 
L 182.050909 147.9168 
L 145.978182 147.9168 
L 109.905455 147.9168 
L 73.832727 275.65056 
z
" style="fill:#2ca02c;"/>
   </g>
   <g id="PolyCollection_64">
    <path clip-path="url(#p4b751bfe82)" d="M 73.832727 275.14368 
L 73.832727 275.65056 
L 109.905455 147.9168 
L 145.978182 147.9168 
L 182.050909 147.9168 
L 218.123636 147.9168 
L 254.196364 147.9168 
L 290.269091 147.9168 
L 326.341818 147.9168 
L 362.414545 147.9168 
L 398.487273 147.9168 
L 398.487273 145.3824 
L 398.487273 145.3824 
L 362.414545 145.3824 
L 326.341818 145.3824 
L 290.269091 145.3824 
L 254.196364 145.3824 
L 218.123636 145.3824 
L 182.050909 145.3824 
L 145.978182 145.3824 
L 109.905455 145.3824 
L 73.832727 275.14368 
z
" style="fill:#d62728;"/>
   </g>
   <g id="PolyCollection_65">
    <path clip-path="url(#p4b751bfe82)" d="M 73.832727 274.6368 
L 73.832727 275.14368 
L 109.905455 145.3824 
L 145.978182 145.3824 
L 182.050909 145.3824 
L 218.123636 145.3824 
L 254.196364 145.3824 
L 290.269091 145.3824 
L 326.341818 145.3824 
L 362.414545 145.3824 
L 398.487273 145.3824 
L 398.487273 142.848 
L 398.487273 142.848 
L 362.414545 142.848 
L 326.341818 142.848 
L 290.269091 142.848 
L 254.196364 142.848 
L 218.123636 142.848 
L 182.050909 142.848 
L 145.978182 142.848 
L 109.905455 142.848 
L 73.832727 274.6368 
z
" style="fill:#9467bd;"/>
   </g>
   <g id="PolyCollection_66">
    <path clip-path="url(#p4b751bfe82)" d="M 73.832727 274.12992 
L 73.832727 274.6368 
L 109.905455 142.848 
L 145.978182 142.848 
L 182.050909 142.848 
L 218.123636 142.848 
L 254.196364 142.848 
L 290.269091 142.848 
L 326.341818 142.848 
L 362.414545 142.848 
L 398.487273 142.848 
L 398.487273 140.3136 
L 398.487273 140.3136 
L 362.414545 140.3136 
L 326.341818 140.3136 
L 290.269091 140.3136 
L 254.196364 140.3136 
L 218.123636 140.3136 
L 182.050909 140.3136 
L 145.978182 140.3136 
L 109.905455 140.3136 
L 73.832727 274.12992 
z
" style="fill:#8c564b;"/>
   </g>
   <g id="PolyCollection_67">
    <path clip-path="url(#p4b751bfe82)" d="M 73.832727 273.62304 
L 73.832727 274.12992 
L 109.905455 140.3136 
L 145.978182 140.3136 
L 182.050909 140.3136 
L 218.123636 140.3136 
L 254.196364 140.3136 
L 290.269091 140.3136 
L 326.341818 140.3136 
L 362.414545 140.3136 
L 398.487273 140.3136 
L 398.487273 137.7792 
L 398.487273 137.7792 
L 362.414545 137.7792 
L 326.341818 137.7792 
L 290.269091 137.7792 
L 254.196364 137.7792 
L 218.123636 137.7792 
L 182.050909 137.7792 
L 145.978182 137.7792 
L 109.905455 137.7792 
L 73.832727 273.62304 
z
" style="fill:#e377c2;"/>
   </g>
   <g id="PolyCollection_68">
    <path clip-path="url(#p4b751bfe82)" d="M 73.832727 273.11616 
L 73.832727 273.62304 
L 109.905455 137.7792 
L 145.978182 137.7792 
L 182.050909 137.7792 
L 218.123636 137.7792 
L 254.196364 137.7792 
L 290.269091 137.7792 
L 326.341818 137.7792 
L 362.414545 137.7792 
L 398.487273 137.7792 
L 398.487273 135.2448 
L 398.487273 135.2448 
L 362.414545 135.2448 
L 326.341818 135.2448 
L 290.269091 135.2448 
L 254.196364 135.2448 
L 218.123636 135.2448 
L 182.050909 135.2448 
L 145.978182 135.2448 
L 109.905455 135.2448 
L 73.832727 273.11616 
z
" style="fill:#7f7f7f;"/>
   </g>
   <g id="PolyCollection_69">
    <path clip-path="url(#p4b751bfe82)" d="M 73.832727 272.60928 
L 73.832727 273.11616 
L 109.905455 135.2448 
L 145.978182 135.2448 
L 182.050909 135.2448 
L 218.123636 135.2448 
L 254.196364 135.2448 
L 290.269091 135.2448 
L 326.341818 135.2448 
L 362.414545 135.2448 
L 398.487273 135.2448 
L 398.487273 132.7104 
L 398.487273 132.7104 
L 362.414545 132.7104 
L 326.341818 132.7104 
L 290.269091 132.7104 
L 254.196364 132.7104 
L 218.123636 132.7104 
L 182.050909 132.7104 
L 145.978182 132.7104 
L 109.905455 132.7104 
L 73.832727 272.60928 
z
" style="fill:#bcbd22;"/>
   </g>
   <g id="PolyCollection_70">
    <path clip-path="url(#p4b751bfe82)" d="M 73.832727 272.1024 
L 73.832727 272.60928 
L 109.905455 132.7104 
L 145.978182 132.7104 
L 182.050909 132.7104 
L 218.123636 132.7104 
L 254.196364 132.7104 
L 290.269091 132.7104 
L 326.341818 132.7104 
L 362.414545 132.7104 
L 398.487273 132.7104 
L 398.487273 130.176 
L 398.487273 130.176 
L 362.414545 130.176 
L 326.341818 130.176 
L 290.269091 130.176 
L 254.196364 130.176 
L 218.123636 130.176 
L 182.050909 130.176 
L 145.978182 130.176 
L 109.905455 130.176 
L 73.832727 272.1024 
z
" style="fill:#17becf;"/>
   </g>
   <g id="PolyCollection_71">
    <path clip-path="url(#p4b751bfe82)" d="M 73.832727 271.59552 
L 73.832727 272.1024 
L 109.905455 130.176 
L 145.978182 130.176 
L 182.050909 130.176 
L 218.123636 130.176 
L 254.196364 130.176 
L 290.269091 130.176 
L 326.341818 130.176 
L 362.414545 130.176 
L 398.487273 130.176 
L 398.487273 127.6416 
L 398.487273 127.6416 
L 362.414545 127.6416 
L 326.341818 127.6416 
L 290.269091 127.6416 
L 254.196364 127.6416 
L 218.123636 127.6416 
L 182.050909 127.6416 
L 145.978182 127.6416 
L 109.905455 127.6416 
L 73.832727 271.59552 
z
" style="fill:#1f77b4;"/>
   </g>
   <g id="PolyCollection_72">
    <path clip-path="url(#p4b751bfe82)" d="M 73.832727 271.08864 
L 73.832727 271.59552 
L 109.905455 127.6416 
L 145.978182 127.6416 
L 182.050909 127.6416 
L 218.123636 127.6416 
L 254.196364 127.6416 
L 290.269091 127.6416 
L 326.341818 127.6416 
L 362.414545 127.6416 
L 398.487273 127.6416 
L 398.487273 125.1072 
L 398.487273 125.1072 
L 362.414545 125.1072 
L 326.341818 125.1072 
L 290.269091 125.1072 
L 254.196364 125.1072 
L 218.123636 125.1072 
L 182.050909 125.1072 
L 145.978182 125.1072 
L 109.905455 125.1072 
L 73.832727 271.08864 
z
" style="fill:#ff7f0e;"/>
   </g>
   <g id="PolyCollection_73">
    <path clip-path="url(#p4b751bfe82)" d="M 73.832727 270.58176 
L 73.832727 271.08864 
L 109.905455 125.1072 
L 145.978182 125.1072 
L 182.050909 125.1072 
L 218.123636 125.1072 
L 254.196364 125.1072 
L 290.269091 125.1072 
L 326.341818 125.1072 
L 362.414545 125.1072 
L 398.487273 125.1072 
L 398.487273 122.5728 
L 398.487273 122.5728 
L 362.414545 122.5728 
L 326.341818 122.5728 
L 290.269091 122.5728 
L 254.196364 122.5728 
L 218.123636 122.5728 
L 182.050909 122.5728 
L 145.978182 122.5728 
L 109.905455 122.5728 
L 73.832727 270.58176 
z
" style="fill:#2ca02c;"/>
   </g>
   <g id="PolyCollection_74">
    <path clip-path="url(#p4b751bfe82)" d="M 73.832727 270.07488 
L 73.832727 270.58176 
L 109.905455 122.5728 
L 145.978182 122.5728 
L 182.050909 122.5728 
L 218.123636 122.5728 
L 254.196364 122.5728 
L 290.269091 122.5728 
L 326.341818 122.5728 
L 362.414545 122.5728 
L 398.487273 122.5728 
L 398.487273 120.0384 
L 398.487273 120.0384 
L 362.414545 120.0384 
L 326.341818 120.0384 
L 290.269091 120.0384 
L 254.196364 120.0384 
L 218.123636 120.0384 
L 182.050909 120.0384 
L 145.978182 120.0384 
L 109.905455 120.0384 
L 73.832727 270.07488 
z
" style="fill:#d62728;"/>
   </g>
   <g id="PolyCollection_75">
    <path clip-path="url(#p4b751bfe82)" d="M 73.832727 269.568 
L 73.832727 270.07488 
L 109.905455 120.0384 
L 145.978182 120.0384 
L 182.050909 120.0384 
L 218.123636 120.0384 
L 254.196364 120.0384 
L 290.269091 120.0384 
L 326.341818 120.0384 
L 362.414545 120.0384 
L 398.487273 120.0384 
L 398.487273 117.504 
L 398.487273 117.504 
L 362.414545 117.504 
L 326.341818 117.504 
L 290.269091 117.504 
L 254.196364 117.504 
L 218.123636 117.504 
L 182.050909 117.504 
L 145.978182 117.504 
L 109.905455 117.504 
L 73.832727 269.568 
z
" style="fill:#9467bd;"/>
   </g>
   <g id="PolyCollection_76">
    <path clip-path="url(#p4b751bfe82)" d="M 73.832727 269.06112 
L 73.832727 269.568 
L 109.905455 117.504 
L 145.978182 117.504 
L 182.050909 117.504 
L 218.123636 117.504 
L 254.196364 117.504 
L 290.269091 117.504 
L 326.341818 117.504 
L 362.414545 117.504 
L 398.487273 117.504 
L 398.487273 114.9696 
L 398.487273 114.9696 
L 362.414545 114.9696 
L 326.341818 114.9696 
L 290.269091 114.9696 
L 254.196364 114.9696 
L 218.123636 114.9696 
L 182.050909 114.9696 
L 145.978182 114.9696 
L 109.905455 114.9696 
L 73.832727 269.06112 
z
" style="fill:#8c564b;"/>
   </g>
   <g id="PolyCollection_77">
    <path clip-path="url(#p4b751bfe82)" d="M 73.832727 268.55424 
L 73.832727 269.06112 
L 109.905455 114.9696 
L 145.978182 114.9696 
L 182.050909 114.9696 
L 218.123636 114.9696 
L 254.196364 114.9696 
L 290.269091 114.9696 
L 326.341818 114.9696 
L 362.414545 114.9696 
L 398.487273 114.9696 
L 398.487273 112.4352 
L 398.487273 112.4352 
L 362.414545 112.4352 
L 326.341818 112.4352 
L 290.269091 112.4352 
L 254.196364 112.4352 
L 218.123636 112.4352 
L 182.050909 112.4352 
L 145.978182 112.4352 
L 109.905455 112.4352 
L 73.832727 268.55424 
z
" style="fill:#e377c2;"/>
   </g>
   <g id="PolyCollection_78">
    <path clip-path="url(#p4b751bfe82)" d="M 73.832727 268.04736 
L 73.832727 268.55424 
L 109.905455 112.4352 
L 145.978182 112.4352 
L 182.050909 112.4352 
L 218.123636 112.4352 
L 254.196364 112.4352 
L 290.269091 112.4352 
L 326.341818 112.4352 
L 362.414545 112.4352 
L 398.487273 112.4352 
L 398.487273 109.9008 
L 398.487273 109.9008 
L 362.414545 109.9008 
L 326.341818 109.9008 
L 290.269091 109.9008 
L 254.196364 109.9008 
L 218.123636 109.9008 
L 182.050909 109.9008 
L 145.978182 109.9008 
L 109.905455 109.9008 
L 73.832727 268.04736 
z
" style="fill:#7f7f7f;"/>
   </g>
   <g id="PolyCollection_79">
    <path clip-path="url(#p4b751bfe82)" d="M 73.832727 267.54048 
L 73.832727 268.04736 
L 109.905455 109.9008 
L 145.978182 109.9008 
L 182.050909 109.9008 
L 218.123636 109.9008 
L 254.196364 109.9008 
L 290.269091 109.9008 
L 326.341818 109.9008 
L 362.414545 109.9008 
L 398.487273 109.9008 
L 398.487273 107.3664 
L 398.487273 107.3664 
L 362.414545 107.3664 
L 326.341818 107.3664 
L 290.269091 107.3664 
L 254.196364 107.3664 
L 218.123636 107.3664 
L 182.050909 107.3664 
L 145.978182 107.3664 
L 109.905455 107.3664 
L 73.832727 267.54048 
z
" style="fill:#bcbd22;"/>
   </g>
   <g id="PolyCollection_80">
    <path clip-path="url(#p4b751bfe82)" d="M 73.832727 267.0336 
L 73.832727 267.54048 
L 109.905455 107.3664 
L 145.978182 107.3664 
L 182.050909 107.3664 
L 218.123636 107.3664 
L 254.196364 107.3664 
L 290.269091 107.3664 
L 326.341818 107.3664 
L 362.414545 107.3664 
L 398.487273 107.3664 
L 398.487273 104.832 
L 398.487273 104.832 
L 362.414545 104.832 
L 326.341818 104.832 
L 290.269091 104.832 
L 254.196364 104.832 
L 218.123636 104.832 
L 182.050909 104.832 
L 145.978182 104.832 
L 109.905455 104.832 
L 73.832727 267.0336 
z
" style="fill:#17becf;"/>
   </g>
   <g id="PolyCollection_81">
    <path clip-path="url(#p4b751bfe82)" d="M 73.832727 266.52672 
L 73.832727 267.0336 
L 109.905455 104.832 
L 145.978182 104.832 
L 182.050909 104.832 
L 218.123636 104.832 
L 254.196364 104.832 
L 290.269091 104.832 
L 326.341818 104.832 
L 362.414545 104.832 
L 398.487273 104.832 
L 398.487273 102.2976 
L 398.487273 102.2976 
L 362.414545 102.2976 
L 326.341818 102.2976 
L 290.269091 102.2976 
L 254.196364 102.2976 
L 218.123636 102.2976 
L 182.050909 102.2976 
L 145.978182 102.2976 
L 109.905455 102.2976 
L 73.832727 266.52672 
z
" style="fill:#1f77b4;"/>
   </g>
   <g id="PolyCollection_82">
    <path clip-path="url(#p4b751bfe82)" d="M 73.832727 266.01984 
L 73.832727 266.52672 
L 109.905455 102.2976 
L 145.978182 102.2976 
L 182.050909 102.2976 
L 218.123636 102.2976 
L 254.196364 102.2976 
L 290.269091 102.2976 
L 326.341818 102.2976 
L 362.414545 102.2976 
L 398.487273 102.2976 
L 398.487273 99.7632 
L 398.487273 99.7632 
L 362.414545 99.7632 
L 326.341818 99.7632 
L 290.269091 99.7632 
L 254.196364 99.7632 
L 218.123636 99.7632 
L 182.050909 99.7632 
L 145.978182 99.7632 
L 109.905455 99.7632 
L 73.832727 266.01984 
z
" style="fill:#ff7f0e;"/>
   </g>
   <g id="PolyCollection_83">
    <path clip-path="url(#p4b751bfe82)" d="M 73.832727 265.51296 
L 73.832727 266.01984 
L 109.905455 99.7632 
L 145.978182 99.7632 
L 182.050909 99.7632 
L 218.123636 99.7632 
L 254.196364 99.7632 
L 290.269091 99.7632 
L 326.341818 99.7632 
L 362.414545 99.7632 
L 398.487273 99.7632 
L 398.487273 97.2288 
L 398.487273 97.2288 
L 362.414545 97.2288 
L 326.341818 97.2288 
L 290.269091 97.2288 
L 254.196364 97.2288 
L 218.123636 97.2288 
L 182.050909 97.2288 
L 145.978182 97.2288 
L 109.905455 97.2288 
L 73.832727 265.51296 
z
" style="fill:#2ca02c;"/>
   </g>
   <g id="PolyCollection_84">
    <path clip-path="url(#p4b751bfe82)" d="M 73.832727 265.00608 
L 73.832727 265.51296 
L 109.905455 97.2288 
L 145.978182 97.2288 
L 182.050909 97.2288 
L 218.123636 97.2288 
L 254.196364 97.2288 
L 290.269091 97.2288 
L 326.341818 97.2288 
L 362.414545 97.2288 
L 398.487273 97.2288 
L 398.487273 94.6944 
L 398.487273 94.6944 
L 362.414545 94.6944 
L 326.341818 94.6944 
L 290.269091 94.6944 
L 254.196364 94.6944 
L 218.123636 94.6944 
L 182.050909 94.6944 
L 145.978182 94.6944 
L 109.905455 94.6944 
L 73.832727 265.00608 
z
" style="fill:#d62728;"/>
   </g>
   <g id="PolyCollection_85">
    <path clip-path="url(#p4b751bfe82)" d="M 73.832727 264.4992 
L 73.832727 265.00608 
L 109.905455 94.6944 
L 145.978182 94.6944 
L 182.050909 94.6944 
L 218.123636 94.6944 
L 254.196364 94.6944 
L 290.269091 94.6944 
L 326.341818 94.6944 
L 362.414545 94.6944 
L 398.487273 94.6944 
L 398.487273 92.16 
L 398.487273 92.16 
L 362.414545 92.16 
L 326.341818 92.16 
L 290.269091 92.16 
L 254.196364 92.16 
L 218.123636 92.16 
L 182.050909 92.16 
L 145.978182 92.16 
L 109.905455 92.16 
L 73.832727 264.4992 
z
" style="fill:#9467bd;"/>
   </g>
   <g id="PolyCollection_86">
    <path clip-path="url(#p4b751bfe82)" d="M 73.832727 263.99232 
L 73.832727 264.4992 
L 109.905455 92.16 
L 145.978182 92.16 
L 182.050909 92.16 
L 218.123636 92.16 
L 254.196364 92.16 
L 290.269091 92.16 
L 326.341818 92.16 
L 362.414545 92.16 
L 398.487273 92.16 
L 398.487273 89.6256 
L 398.487273 89.6256 
L 362.414545 89.6256 
L 326.341818 89.6256 
L 290.269091 89.6256 
L 254.196364 89.6256 
L 218.123636 89.6256 
L 182.050909 89.6256 
L 145.978182 89.6256 
L 109.905455 89.6256 
L 73.832727 263.99232 
z
" style="fill:#8c564b;"/>
   </g>
   <g id="PolyCollection_87">
    <path clip-path="url(#p4b751bfe82)" d="M 73.832727 263.48544 
L 73.832727 263.99232 
L 109.905455 89.6256 
L 145.978182 89.6256 
L 182.050909 89.6256 
L 218.123636 89.6256 
L 254.196364 89.6256 
L 290.269091 89.6256 
L 326.341818 89.6256 
L 362.414545 89.6256 
L 398.487273 89.6256 
L 398.487273 87.0912 
L 398.487273 87.0912 
L 362.414545 87.0912 
L 326.341818 87.0912 
L 290.269091 87.0912 
L 254.196364 87.0912 
L 218.123636 87.0912 
L 182.050909 87.0912 
L 145.978182 87.0912 
L 109.905455 87.0912 
L 73.832727 263.48544 
z
" style="fill:#e377c2;"/>
   </g>
   <g id="PolyCollection_88">
    <path clip-path="url(#p4b751bfe82)" d="M 73.832727 262.97856 
L 73.832727 263.48544 
L 109.905455 87.0912 
L 145.978182 87.0912 
L 182.050909 87.0912 
L 218.123636 87.0912 
L 254.196364 87.0912 
L 290.269091 87.0912 
L 326.341818 87.0912 
L 362.414545 87.0912 
L 398.487273 87.0912 
L 398.487273 84.5568 
L 398.487273 84.5568 
L 362.414545 84.5568 
L 326.341818 84.5568 
L 290.269091 84.5568 
L 254.196364 84.5568 
L 218.123636 84.5568 
L 182.050909 84.5568 
L 145.978182 84.5568 
L 109.905455 84.5568 
L 73.832727 262.97856 
z
" style="fill:#7f7f7f;"/>
   </g>
   <g id="PolyCollection_89">
    <path clip-path="url(#p4b751bfe82)" d="M 73.832727 262.47168 
L 73.832727 262.97856 
L 109.905455 84.5568 
L 145.978182 84.5568 
L 182.050909 84.5568 
L 218.123636 84.5568 
L 254.196364 84.5568 
L 290.269091 84.5568 
L 326.341818 84.5568 
L 362.414545 84.5568 
L 398.487273 84.5568 
L 398.487273 82.0224 
L 398.487273 82.0224 
L 362.414545 82.0224 
L 326.341818 82.0224 
L 290.269091 82.0224 
L 254.196364 82.0224 
L 218.123636 82.0224 
L 182.050909 82.0224 
L 145.978182 82.0224 
L 109.905455 82.0224 
L 73.832727 262.47168 
z
" style="fill:#bcbd22;"/>
   </g>
   <g id="PolyCollection_90">
    <path clip-path="url(#p4b751bfe82)" d="M 73.832727 261.9648 
L 73.832727 262.47168 
L 109.905455 82.0224 
L 145.978182 82.0224 
L 182.050909 82.0224 
L 218.123636 82.0224 
L 254.196364 82.0224 
L 290.269091 82.0224 
L 326.341818 82.0224 
L 362.414545 82.0224 
L 398.487273 82.0224 
L 398.487273 79.488 
L 398.487273 79.488 
L 362.414545 79.488 
L 326.341818 79.488 
L 290.269091 79.488 
L 254.196364 79.488 
L 218.123636 79.488 
L 182.050909 79.488 
L 145.978182 79.488 
L 109.905455 79.488 
L 73.832727 261.9648 
z
" style="fill:#17becf;"/>
   </g>
   <g id="PolyCollection_91">
    <path clip-path="url(#p4b751bfe82)" d="M 73.832727 261.45792 
L 73.832727 261.9648 
L 109.905455 79.488 
L 145.978182 79.488 
L 182.050909 79.488 
L 218.123636 79.488 
L 254.196364 79.488 
L 290.269091 79.488 
L 326.341818 79.488 
L 362.414545 79.488 
L 398.487273 79.488 
L 398.487273 76.9536 
L 398.487273 76.9536 
L 362.414545 76.9536 
L 326.341818 76.9536 
L 290.269091 76.9536 
L 254.196364 76.9536 
L 218.123636 76.9536 
L 182.050909 76.9536 
L 145.978182 76.9536 
L 109.905455 76.9536 
L 73.832727 261.45792 
z
" style="fill:#1f77b4;"/>
   </g>
   <g id="PolyCollection_92">
    <path clip-path="url(#p4b751bfe82)" d="M 73.832727 260.95104 
L 73.832727 261.45792 
L 109.905455 76.9536 
L 145.978182 76.9536 
L 182.050909 76.9536 
L 218.123636 76.9536 
L 254.196364 76.9536 
L 290.269091 76.9536 
L 326.341818 76.9536 
L 362.414545 76.9536 
L 398.487273 76.9536 
L 398.487273 74.4192 
L 398.487273 74.4192 
L 362.414545 74.4192 
L 326.341818 74.4192 
L 290.269091 74.4192 
L 254.196364 74.4192 
L 218.123636 74.4192 
L 182.050909 74.4192 
L 145.978182 74.4192 
L 109.905455 74.4192 
L 73.832727 260.95104 
z
" style="fill:#ff7f0e;"/>
   </g>
   <g id="PolyCollection_93">
    <path clip-path="url(#p4b751bfe82)" d="M 73.832727 260.44416 
L 73.832727 260.95104 
L 109.905455 74.4192 
L 145.978182 74.4192 
L 182.050909 74.4192 
L 218.123636 74.4192 
L 254.196364 74.4192 
L 290.269091 74.4192 
L 326.341818 74.4192 
L 362.414545 74.4192 
L 398.487273 74.4192 
L 398.487273 71.8848 
L 398.487273 71.8848 
L 362.414545 71.8848 
L 326.341818 71.8848 
L 290.269091 71.8848 
L 254.196364 71.8848 
L 218.123636 71.8848 
L 182.050909 71.8848 
L 145.978182 71.8848 
L 109.905455 71.8848 
L 73.832727 260.44416 
z
" style="fill:#2ca02c;"/>
   </g>
   <g id="PolyCollection_94">
    <path clip-path="url(#p4b751bfe82)" d="M 73.832727 259.93728 
L 73.832727 260.44416 
L 109.905455 71.8848 
L 145.978182 71.8848 
L 182.050909 71.8848 
L 218.123636 71.8848 
L 254.196364 71.8848 
L 290.269091 71.8848 
L 326.341818 71.8848 
L 362.414545 71.8848 
L 398.487273 71.8848 
L 398.487273 69.3504 
L 398.487273 69.3504 
L 362.414545 69.3504 
L 326.341818 69.3504 
L 290.269091 69.3504 
L 254.196364 69.3504 
L 218.123636 69.3504 
L 182.050909 69.3504 
L 145.978182 69.3504 
L 109.905455 69.3504 
L 73.832727 259.93728 
z
" style="fill:#d62728;"/>
   </g>
   <g id="PolyCollection_95">
    <path clip-path="url(#p4b751bfe82)" d="M 73.832727 259.4304 
L 73.832727 259.93728 
L 109.905455 69.3504 
L 145.978182 69.3504 
L 182.050909 69.3504 
L 218.123636 69.3504 
L 254.196364 69.3504 
L 290.269091 69.3504 
L 326.341818 69.3504 
L 362.414545 69.3504 
L 398.487273 69.3504 
L 398.487273 66.816 
L 398.487273 66.816 
L 362.414545 66.816 
L 326.341818 66.816 
L 290.269091 66.816 
L 254.196364 66.816 
L 218.123636 66.816 
L 182.050909 66.816 
L 145.978182 66.816 
L 109.905455 66.816 
L 73.832727 259.4304 
z
" style="fill:#9467bd;"/>
   </g>
   <g id="PolyCollection_96">
    <path clip-path="url(#p4b751bfe82)" d="M 73.832727 258.92352 
L 73.832727 259.4304 
L 109.905455 66.816 
L 145.978182 66.816 
L 182.050909 66.816 
L 218.123636 66.816 
L 254.196364 66.816 
L 290.269091 66.816 
L 326.341818 66.816 
L 362.414545 66.816 
L 398.487273 66.816 
L 398.487273 64.2816 
L 398.487273 64.2816 
L 362.414545 64.2816 
L 326.341818 64.2816 
L 290.269091 64.2816 
L 254.196364 64.2816 
L 218.123636 64.2816 
L 182.050909 64.2816 
L 145.978182 64.2816 
L 109.905455 64.2816 
L 73.832727 258.92352 
z
" style="fill:#8c564b;"/>
   </g>
   <g id="PolyCollection_97">
    <path clip-path="url(#p4b751bfe82)" d="M 73.832727 258.41664 
L 73.832727 258.92352 
L 109.905455 64.2816 
L 145.978182 64.2816 
L 182.050909 64.2816 
L 218.123636 64.2816 
L 254.196364 64.2816 
L 290.269091 64.2816 
L 326.341818 64.2816 
L 362.414545 64.2816 
L 398.487273 64.2816 
L 398.487273 61.7472 
L 398.487273 61.7472 
L 362.414545 61.7472 
L 326.341818 61.7472 
L 290.269091 61.7472 
L 254.196364 61.7472 
L 218.123636 61.7472 
L 182.050909 61.7472 
L 145.978182 61.7472 
L 109.905455 61.7472 
L 73.832727 258.41664 
z
" style="fill:#e377c2;"/>
   </g>
   <g id="PolyCollection_98">
    <path clip-path="url(#p4b751bfe82)" d="M 73.832727 257.90976 
L 73.832727 258.41664 
L 109.905455 61.7472 
L 145.978182 61.7472 
L 182.050909 61.7472 
L 218.123636 61.7472 
L 254.196364 61.7472 
L 290.269091 61.7472 
L 326.341818 61.7472 
L 362.414545 61.7472 
L 398.487273 61.7472 
L 398.487273 59.2128 
L 398.487273 59.2128 
L 362.414545 59.2128 
L 326.341818 59.2128 
L 290.269091 59.2128 
L 254.196364 59.2128 
L 218.123636 59.2128 
L 182.050909 59.2128 
L 145.978182 59.2128 
L 109.905455 59.2128 
L 73.832727 257.90976 
z
" style="fill:#7f7f7f;"/>
   </g>
   <g id="PolyCollection_99">
    <path clip-path="url(#p4b751bfe82)" d="M 73.832727 257.40288 
L 73.832727 257.90976 
L 109.905455 59.2128 
L 145.978182 59.2128 
L 182.050909 59.2128 
L 218.123636 59.2128 
L 254.196364 59.2128 
L 290.269091 59.2128 
L 326.341818 59.2128 
L 362.414545 59.2128 
L 398.487273 59.2128 
L 398.487273 56.6784 
L 398.487273 56.6784 
L 362.414545 56.6784 
L 326.341818 56.6784 
L 290.269091 56.6784 
L 254.196364 56.6784 
L 218.123636 56.6784 
L 182.050909 56.6784 
L 145.978182 56.6784 
L 109.905455 56.6784 
L 73.832727 257.40288 
z
" style="fill:#bcbd22;"/>
   </g>
   <g id="PolyCollection_100">
    <path clip-path="url(#p4b751bfe82)" d="M 73.832727 256.896 
L 73.832727 257.40288 
L 109.905455 56.6784 
L 145.978182 56.6784 
L 182.050909 56.6784 
L 218.123636 56.6784 
L 254.196364 56.6784 
L 290.269091 56.6784 
L 326.341818 56.6784 
L 362.414545 56.6784 
L 398.487273 56.6784 
L 398.487273 54.144 
L 398.487273 54.144 
L 362.414545 54.144 
L 326.341818 54.144 
L 290.269091 54.144 
L 254.196364 54.144 
L 218.123636 54.144 
L 182.050909 54.144 
L 145.978182 54.144 
L 109.905455 54.144 
L 73.832727 256.896 
z
" style="fill:#17becf;"/>
   </g>
   <g id="matplotlib.axis_1">
    <g id="xtick_1">
     <g id="line2d_1">
      <defs>
       <path d="M 0 0 
L 0 3.5 
" id="mebf18f6640" style="stroke:#000000;stroke-width:0.8;"/>
      </defs>
      <g>
       <use style="stroke:#000000;stroke-width:0.8;" x="73.832727" xlink:href="#mebf18f6640" y="307.584"/>
      </g>
     </g>
     <g id="text_1">
      <!-- 0 -->
      <g transform="translate(70.651477 322.182437)scale(0.1 -0.1)">
       <defs>
        <path d="M 31.78125 66.40625 
Q 24.171875 66.40625 20.328125 58.90625 
Q 16.5 51.421875 16.5 36.375 
Q 16.5 21.390625 20.328125 13.890625 
Q 24.171875 6.390625 31.78125 6.390625 
Q 39.453125 6.390625 43.28125 13.890625 
Q 47.125 21.390625 47.125 36.375 
Q 47.125 51.421875 43.28125 58.90625 
Q 39.453125 66.40625 31.78125 66.40625 
z
M 31.78125 74.21875 
Q 44.046875 74.21875 50.515625 64.515625 
Q 56.984375 54.828125 56.984375 36.375 
Q 56.984375 17.96875 50.515625 8.265625 
Q 44.046875 -1.421875 31.78125 -1.421875 
Q 19.53125 -1.421875 13.0625 8.265625 
Q 6.59375 17.96875 6.59375 36.375 
Q 6.59375 54.828125 13.0625 64.515625 
Q 19.53125 74.21875 31.78125 74.21875 
z
" id="DejaVuSans-48"/>
       </defs>
       <use xlink:href="#DejaVuSans-48"/>
      </g>
     </g>
    </g>
    <g id="xtick_2">
     <g id="line2d_2">
      <g>
       <use style="stroke:#000000;stroke-width:0.8;" x="145.978182" xlink:href="#mebf18f6640" y="307.584"/>
      </g>
     </g>
     <g id="text_2">
      <!-- 2 -->
      <g transform="translate(142.796932 322.182437)scale(0.1 -0.1)">
       <defs>
        <path d="M 19.1875 8.296875 
L 53.609375 8.296875 
L 53.609375 0 
L 7.328125 0 
L 7.328125 8.296875 
Q 12.9375 14.109375 22.625 23.890625 
Q 32.328125 33.6875 34.8125 36.53125 
Q 39.546875 41.84375 41.421875 45.53125 
Q 43.3125 49.21875 43.3125 52.78125 
Q 43.3125 58.59375 39.234375 62.25 
Q 35.15625 65.921875 28.609375 65.921875 
Q 23.96875 65.921875 18.8125 64.3125 
Q 13.671875 62.703125 7.8125 59.421875 
L 7.8125 69.390625 
Q 13.765625 71.78125 18.9375 73 
Q 24.125 74.21875 28.421875 74.21875 
Q 39.75 74.21875 46.484375 68.546875 
Q 53.21875 62.890625 53.21875 53.421875 
Q 53.21875 48.921875 51.53125 44.890625 
Q 49.859375 40.875 45.40625 35.40625 
Q 44.1875 33.984375 37.640625 27.21875 
Q 31.109375 20.453125 19.1875 8.296875 
z
" id="DejaVuSans-50"/>
       </defs>
       <use xlink:href="#DejaVuSans-50"/>
      </g>
     </g>
    </g>
    <g id="xtick_3">
     <g id="line2d_3">
      <g>
       <use style="stroke:#000000;stroke-width:0.8;" x="218.123636" xlink:href="#mebf18f6640" y="307.584"/>
      </g>
     </g>
     <g id="text_3">
      <!-- 4 -->
      <g transform="translate(214.942386 322.182437)scale(0.1 -0.1)">
       <defs>
        <path d="M 37.796875 64.3125 
L 12.890625 25.390625 
L 37.796875 25.390625 
z
M 35.203125 72.90625 
L 47.609375 72.90625 
L 47.609375 25.390625 
L 58.015625 25.390625 
L 58.015625 17.1875 
L 47.609375 17.1875 
L 47.609375 0 
L 37.796875 0 
L 37.796875 17.1875 
L 4.890625 17.1875 
L 4.890625 26.703125 
z
" id="DejaVuSans-52"/>
       </defs>
       <use xlink:href="#DejaVuSans-52"/>
      </g>
     </g>
    </g>
    <g id="xtick_4">
     <g id="line2d_4">
      <g>
       <use style="stroke:#000000;stroke-width:0.8;" x="290.269091" xlink:href="#mebf18f6640" y="307.584"/>
      </g>
     </g>
     <g id="text_4">
      <!-- 6 -->
      <g transform="translate(287.087841 322.182437)scale(0.1 -0.1)">
       <defs>
        <path d="M 33.015625 40.375 
Q 26.375 40.375 22.484375 35.828125 
Q 18.609375 31.296875 18.609375 23.390625 
Q 18.609375 15.53125 22.484375 10.953125 
Q 26.375 6.390625 33.015625 6.390625 
Q 39.65625 6.390625 43.53125 10.953125 
Q 47.40625 15.53125 47.40625 23.390625 
Q 47.40625 31.296875 43.53125 35.828125 
Q 39.65625 40.375 33.015625 40.375 
z
M 52.59375 71.296875 
L 52.59375 62.3125 
Q 48.875 64.0625 45.09375 64.984375 
Q 41.3125 65.921875 37.59375 65.921875 
Q 27.828125 65.921875 22.671875 59.328125 
Q 17.53125 52.734375 16.796875 39.40625 
Q 19.671875 43.65625 24.015625 45.921875 
Q 28.375 48.1875 33.59375 48.1875 
Q 44.578125 48.1875 50.953125 41.515625 
Q 57.328125 34.859375 57.328125 23.390625 
Q 57.328125 12.15625 50.6875 5.359375 
Q 44.046875 -1.421875 33.015625 -1.421875 
Q 20.359375 -1.421875 13.671875 8.265625 
Q 6.984375 17.96875 6.984375 36.375 
Q 6.984375 53.65625 15.1875 63.9375 
Q 23.390625 74.21875 37.203125 74.21875 
Q 40.921875 74.21875 44.703125 73.484375 
Q 48.484375 72.75 52.59375 71.296875 
z
" id="DejaVuSans-54"/>
       </defs>
       <use xlink:href="#DejaVuSans-54"/>
      </g>
     </g>
    </g>
    <g id="xtick_5">
     <g id="line2d_5">
      <g>
       <use style="stroke:#000000;stroke-width:0.8;" x="362.414545" xlink:href="#mebf18f6640" y="307.584"/>
      </g>
     </g>
     <g id="text_5">
      <!-- 8 -->
      <g transform="translate(359.233295 322.182437)scale(0.1 -0.1)">
       <defs>
        <path d="M 31.78125 34.625 
Q 24.75 34.625 20.71875 30.859375 
Q 16.703125 27.09375 16.703125 20.515625 
Q 16.703125 13.921875 20.71875 10.15625 
Q 24.75 6.390625 31.78125 6.390625 
Q 38.8125 6.390625 42.859375 10.171875 
Q 46.921875 13.96875 46.921875 20.515625 
Q 46.921875 27.09375 42.890625 30.859375 
Q 38.875 34.625 31.78125 34.625 
z
M 21.921875 38.8125 
Q 15.578125 40.375 12.03125 44.71875 
Q 8.5 49.078125 8.5 55.328125 
Q 8.5 64.0625 14.71875 69.140625 
Q 20.953125 74.21875 31.78125 74.21875 
Q 42.671875 74.21875 48.875 69.140625 
Q 55.078125 64.0625 55.078125 55.328125 
Q 55.078125 49.078125 51.53125 44.71875 
Q 48 40.375 41.703125 38.8125 
Q 48.828125 37.15625 52.796875 32.3125 
Q 56.78125 27.484375 56.78125 20.515625 
Q 56.78125 9.90625 50.3125 4.234375 
Q 43.84375 -1.421875 31.78125 -1.421875 
Q 19.734375 -1.421875 13.25 4.234375 
Q 6.78125 9.90625 6.78125 20.515625 
Q 6.78125 27.484375 10.78125 32.3125 
Q 14.796875 37.15625 21.921875 38.8125 
z
M 18.3125 54.390625 
Q 18.3125 48.734375 21.84375 45.5625 
Q 25.390625 42.390625 31.78125 42.390625 
Q 38.140625 42.390625 41.71875 45.5625 
Q 45.3125 48.734375 45.3125 54.390625 
Q 45.3125 60.0625 41.71875 63.234375 
Q 38.140625 66.40625 31.78125 66.40625 
Q 25.390625 66.40625 21.84375 63.234375 
Q 18.3125 60.0625 18.3125 54.390625 
z
" id="DejaVuSans-56"/>
       </defs>
       <use xlink:href="#DejaVuSans-56"/>
      </g>
     </g>
    </g>
    <g id="text_6">
     <!-- Generations -->
     <g transform="translate(205.662344 335.860562)scale(0.1 -0.1)">
      <defs>
       <path d="M 59.515625 10.40625 
L 59.515625 29.984375 
L 43.40625 29.984375 
L 43.40625 38.09375 
L 69.28125 38.09375 
L 69.28125 6.78125 
Q 63.578125 2.734375 56.6875 0.65625 
Q 49.8125 -1.421875 42 -1.421875 
Q 24.90625 -1.421875 15.25 8.5625 
Q 5.609375 18.5625 5.609375 36.375 
Q 5.609375 54.25 15.25 64.234375 
Q 24.90625 74.21875 42 74.21875 
Q 49.125 74.21875 55.546875 72.453125 
Q 61.96875 70.703125 67.390625 67.28125 
L 67.390625 56.78125 
Q 61.921875 61.421875 55.765625 63.765625 
Q 49.609375 66.109375 42.828125 66.109375 
Q 29.4375 66.109375 22.71875 58.640625 
Q 16.015625 51.171875 16.015625 36.375 
Q 16.015625 21.625 22.71875 14.15625 
Q 29.4375 6.6875 42.828125 6.6875 
Q 48.046875 6.6875 52.140625 7.59375 
Q 56.25 8.5 59.515625 10.40625 
z
" id="DejaVuSans-71"/>
       <path d="M 56.203125 29.59375 
L 56.203125 25.203125 
L 14.890625 25.203125 
Q 15.484375 15.921875 20.484375 11.0625 
Q 25.484375 6.203125 34.421875 6.203125 
Q 39.59375 6.203125 44.453125 7.46875 
Q 49.3125 8.734375 54.109375 11.28125 
L 54.109375 2.78125 
Q 49.265625 0.734375 44.1875 -0.34375 
Q 39.109375 -1.421875 33.890625 -1.421875 
Q 20.796875 -1.421875 13.15625 6.1875 
Q 5.515625 13.8125 5.515625 26.8125 
Q 5.515625 40.234375 12.765625 48.109375 
Q 20.015625 56 32.328125 56 
Q 43.359375 56 49.78125 48.890625 
Q 56.203125 41.796875 56.203125 29.59375 
z
M 47.21875 32.234375 
Q 47.125 39.59375 43.09375 43.984375 
Q 39.0625 48.390625 32.421875 48.390625 
Q 24.90625 48.390625 20.390625 44.140625 
Q 15.875 39.890625 15.1875 32.171875 
z
" id="DejaVuSans-101"/>
       <path d="M 54.890625 33.015625 
L 54.890625 0 
L 45.90625 0 
L 45.90625 32.71875 
Q 45.90625 40.484375 42.875 44.328125 
Q 39.84375 48.1875 33.796875 48.1875 
Q 26.515625 48.1875 22.3125 43.546875 
Q 18.109375 38.921875 18.109375 30.90625 
L 18.109375 0 
L 9.078125 0 
L 9.078125 54.6875 
L 18.109375 54.6875 
L 18.109375 46.1875 
Q 21.34375 51.125 25.703125 53.5625 
Q 30.078125 56 35.796875 56 
Q 45.21875 56 50.046875 50.171875 
Q 54.890625 44.34375 54.890625 33.015625 
z
" id="DejaVuSans-110"/>
       <path d="M 41.109375 46.296875 
Q 39.59375 47.171875 37.8125 47.578125 
Q 36.03125 48 33.890625 48 
Q 26.265625 48 22.1875 43.046875 
Q 18.109375 38.09375 18.109375 28.8125 
L 18.109375 0 
L 9.078125 0 
L 9.078125 54.6875 
L 18.109375 54.6875 
L 18.109375 46.1875 
Q 20.953125 51.171875 25.484375 53.578125 
Q 30.03125 56 36.53125 56 
Q 37.453125 56 38.578125 55.875 
Q 39.703125 55.765625 41.0625 55.515625 
z
" id="DejaVuSans-114"/>
       <path d="M 34.28125 27.484375 
Q 23.390625 27.484375 19.1875 25 
Q 14.984375 22.515625 14.984375 16.5 
Q 14.984375 11.71875 18.140625 8.90625 
Q 21.296875 6.109375 26.703125 6.109375 
Q 34.1875 6.109375 38.703125 11.40625 
Q 43.21875 16.703125 43.21875 25.484375 
L 43.21875 27.484375 
z
M 52.203125 31.203125 
L 52.203125 0 
L 43.21875 0 
L 43.21875 8.296875 
Q 40.140625 3.328125 35.546875 0.953125 
Q 30.953125 -1.421875 24.3125 -1.421875 
Q 15.921875 -1.421875 10.953125 3.296875 
Q 6 8.015625 6 15.921875 
Q 6 25.140625 12.171875 29.828125 
Q 18.359375 34.515625 30.609375 34.515625 
L 43.21875 34.515625 
L 43.21875 35.40625 
Q 43.21875 41.609375 39.140625 45 
Q 35.0625 48.390625 27.6875 48.390625 
Q 23 48.390625 18.546875 47.265625 
Q 14.109375 46.140625 10.015625 43.890625 
L 10.015625 52.203125 
Q 14.9375 54.109375 19.578125 55.046875 
Q 24.21875 56 28.609375 56 
Q 40.484375 56 46.34375 49.84375 
Q 52.203125 43.703125 52.203125 31.203125 
z
" id="DejaVuSans-97"/>
       <path d="M 18.3125 70.21875 
L 18.3125 54.6875 
L 36.8125 54.6875 
L 36.8125 47.703125 
L 18.3125 47.703125 
L 18.3125 18.015625 
Q 18.3125 11.328125 20.140625 9.421875 
Q 21.96875 7.515625 27.59375 7.515625 
L 36.8125 7.515625 
L 36.8125 0 
L 27.59375 0 
Q 17.1875 0 13.234375 3.875 
Q 9.28125 7.765625 9.28125 18.015625 
L 9.28125 47.703125 
L 2.6875 47.703125 
L 2.6875 54.6875 
L 9.28125 54.6875 
L 9.28125 70.21875 
z
" id="DejaVuSans-116"/>
       <path d="M 9.421875 54.6875 
L 18.40625 54.6875 
L 18.40625 0 
L 9.421875 0 
z
M 9.421875 75.984375 
L 18.40625 75.984375 
L 18.40625 64.59375 
L 9.421875 64.59375 
z
" id="DejaVuSans-105"/>
       <path d="M 30.609375 48.390625 
Q 23.390625 48.390625 19.1875 42.75 
Q 14.984375 37.109375 14.984375 27.296875 
Q 14.984375 17.484375 19.15625 11.84375 
Q 23.34375 6.203125 30.609375 6.203125 
Q 37.796875 6.203125 41.984375 11.859375 
Q 46.1875 17.53125 46.1875 27.296875 
Q 46.1875 37.015625 41.984375 42.703125 
Q 37.796875 48.390625 30.609375 48.390625 
z
M 30.609375 56 
Q 42.328125 56 49.015625 48.375 
Q 55.71875 40.765625 55.71875 27.296875 
Q 55.71875 13.875 49.015625 6.21875 
Q 42.328125 -1.421875 30.609375 -1.421875 
Q 18.84375 -1.421875 12.171875 6.21875 
Q 5.515625 13.875 5.515625 27.296875 
Q 5.515625 40.765625 12.171875 48.375 
Q 18.84375 56 30.609375 56 
z
" id="DejaVuSans-111"/>
       <path d="M 44.28125 53.078125 
L 44.28125 44.578125 
Q 40.484375 46.53125 36.375 47.5 
Q 32.28125 48.484375 27.875 48.484375 
Q 21.1875 48.484375 17.84375 46.4375 
Q 14.5 44.390625 14.5 40.28125 
Q 14.5 37.15625 16.890625 35.375 
Q 19.28125 33.59375 26.515625 31.984375 
L 29.59375 31.296875 
Q 39.15625 29.25 43.1875 25.515625 
Q 47.21875 21.78125 47.21875 15.09375 
Q 47.21875 7.46875 41.1875 3.015625 
Q 35.15625 -1.421875 24.609375 -1.421875 
Q 20.21875 -1.421875 15.453125 -0.5625 
Q 10.6875 0.296875 5.421875 2 
L 5.421875 11.28125 
Q 10.40625 8.6875 15.234375 7.390625 
Q 20.0625 6.109375 24.8125 6.109375 
Q 31.15625 6.109375 34.5625 8.28125 
Q 37.984375 10.453125 37.984375 14.40625 
Q 37.984375 18.0625 35.515625 20.015625 
Q 33.0625 21.96875 24.703125 23.78125 
L 21.578125 24.515625 
Q 13.234375 26.265625 9.515625 29.90625 
Q 5.8125 33.546875 5.8125 39.890625 
Q 5.8125 47.609375 11.28125 51.796875 
Q 16.75 56 26.8125 56 
Q 31.78125 56 36.171875 55.265625 
Q 40.578125 54.546875 44.28125 53.078125 
z
" id="DejaVuSans-115"/>
      </defs>
      <use xlink:href="#DejaVuSans-71"/>
      <use x="77.490234" xlink:href="#DejaVuSans-101"/>
      <use x="139.013672" xlink:href="#DejaVuSans-110"/>
      <use x="202.392578" xlink:href="#DejaVuSans-101"/>
      <use x="263.916016" xlink:href="#DejaVuSans-114"/>
      <use x="305.029297" xlink:href="#DejaVuSans-97"/>
      <use x="366.308594" xlink:href="#DejaVuSans-116"/>
      <use x="405.517578" xlink:href="#DejaVuSans-105"/>
      <use x="433.300781" xlink:href="#DejaVuSans-111"/>
      <use x="494.482422" xlink:href="#DejaVuSans-110"/>
      <use x="557.861328" xlink:href="#DejaVuSans-115"/>
     </g>
    </g>
   </g>
   <g id="matplotlib.axis_2">
    <g id="ytick_1">
     <g id="line2d_6">
      <defs>
       <path d="M 0 0 
L -3.5 0 
" id="m3661eced3a" style="stroke:#000000;stroke-width:0.8;"/>
      </defs>
      <g>
       <use style="stroke:#000000;stroke-width:0.8;" x="57.6" xlink:href="#m3661eced3a" y="307.584"/>
      </g>
     </g>
     <g id="text_7">
      <!-- 0 -->
      <g transform="translate(44.2375 311.383219)scale(0.1 -0.1)">
       <use xlink:href="#DejaVuSans-48"/>
      </g>
     </g>
    </g>
    <g id="ytick_2">
     <g id="line2d_7">
      <g>
       <use style="stroke:#000000;stroke-width:0.8;" x="57.6" xlink:href="#m3661eced3a" y="256.896"/>
      </g>
     </g>
     <g id="text_8">
      <!-- 100 -->
      <g transform="translate(31.5125 260.695219)scale(0.1 -0.1)">
       <defs>
        <path d="M 12.40625 8.296875 
L 28.515625 8.296875 
L 28.515625 63.921875 
L 10.984375 60.40625 
L 10.984375 69.390625 
L 28.421875 72.90625 
L 38.28125 72.90625 
L 38.28125 8.296875 
L 54.390625 8.296875 
L 54.390625 0 
L 12.40625 0 
z
" id="DejaVuSans-49"/>
       </defs>
       <use xlink:href="#DejaVuSans-49"/>
       <use x="63.623047" xlink:href="#DejaVuSans-48"/>
       <use x="127.246094" xlink:href="#DejaVuSans-48"/>
      </g>
     </g>
    </g>
    <g id="ytick_3">
     <g id="line2d_8">
      <g>
       <use style="stroke:#000000;stroke-width:0.8;" x="57.6" xlink:href="#m3661eced3a" y="206.208"/>
      </g>
     </g>
     <g id="text_9">
      <!-- 200 -->
      <g transform="translate(31.5125 210.007219)scale(0.1 -0.1)">
       <use xlink:href="#DejaVuSans-50"/>
       <use x="63.623047" xlink:href="#DejaVuSans-48"/>
       <use x="127.246094" xlink:href="#DejaVuSans-48"/>
      </g>
     </g>
    </g>
    <g id="ytick_4">
     <g id="line2d_9">
      <g>
       <use style="stroke:#000000;stroke-width:0.8;" x="57.6" xlink:href="#m3661eced3a" y="155.52"/>
      </g>
     </g>
     <g id="text_10">
      <!-- 300 -->
      <g transform="translate(31.5125 159.319219)scale(0.1 -0.1)">
       <defs>
        <path d="M 40.578125 39.3125 
Q 47.65625 37.796875 51.625 33 
Q 55.609375 28.21875 55.609375 21.1875 
Q 55.609375 10.40625 48.1875 4.484375 
Q 40.765625 -1.421875 27.09375 -1.421875 
Q 22.515625 -1.421875 17.65625 -0.515625 
Q 12.796875 0.390625 7.625 2.203125 
L 7.625 11.71875 
Q 11.71875 9.328125 16.59375 8.109375 
Q 21.484375 6.890625 26.8125 6.890625 
Q 36.078125 6.890625 40.9375 10.546875 
Q 45.796875 14.203125 45.796875 21.1875 
Q 45.796875 27.640625 41.28125 31.265625 
Q 36.765625 34.90625 28.71875 34.90625 
L 20.21875 34.90625 
L 20.21875 43.015625 
L 29.109375 43.015625 
Q 36.375 43.015625 40.234375 45.921875 
Q 44.09375 48.828125 44.09375 54.296875 
Q 44.09375 59.90625 40.109375 62.90625 
Q 36.140625 65.921875 28.71875 65.921875 
Q 24.65625 65.921875 20.015625 65.03125 
Q 15.375 64.15625 9.8125 62.3125 
L 9.8125 71.09375 
Q 15.4375 72.65625 20.34375 73.4375 
Q 25.25 74.21875 29.59375 74.21875 
Q 40.828125 74.21875 47.359375 69.109375 
Q 53.90625 64.015625 53.90625 55.328125 
Q 53.90625 49.265625 50.4375 45.09375 
Q 46.96875 40.921875 40.578125 39.3125 
z
" id="DejaVuSans-51"/>
       </defs>
       <use xlink:href="#DejaVuSans-51"/>
       <use x="63.623047" xlink:href="#DejaVuSans-48"/>
       <use x="127.246094" xlink:href="#DejaVuSans-48"/>
      </g>
     </g>
    </g>
    <g id="ytick_5">
     <g id="line2d_10">
      <g>
       <use style="stroke:#000000;stroke-width:0.8;" x="57.6" xlink:href="#m3661eced3a" y="104.832"/>
      </g>
     </g>
     <g id="text_11">
      <!-- 400 -->
      <g transform="translate(31.5125 108.631219)scale(0.1 -0.1)">
       <use xlink:href="#DejaVuSans-52"/>
       <use x="63.623047" xlink:href="#DejaVuSans-48"/>
       <use x="127.246094" xlink:href="#DejaVuSans-48"/>
      </g>
     </g>
    </g>
    <g id="ytick_6">
     <g id="line2d_11">
      <g>
       <use style="stroke:#000000;stroke-width:0.8;" x="57.6" xlink:href="#m3661eced3a" y="54.144"/>
      </g>
     </g>
     <g id="text_12">
      <!-- 500 -->
      <g transform="translate(31.5125 57.943219)scale(0.1 -0.1)">
       <defs>
        <path d="M 10.796875 72.90625 
L 49.515625 72.90625 
L 49.515625 64.59375 
L 19.828125 64.59375 
L 19.828125 46.734375 
Q 21.96875 47.46875 24.109375 47.828125 
Q 26.265625 48.1875 28.421875 48.1875 
Q 40.625 48.1875 47.75 41.5 
Q 54.890625 34.8125 54.890625 23.390625 
Q 54.890625 11.625 47.5625 5.09375 
Q 40.234375 -1.421875 26.90625 -1.421875 
Q 22.3125 -1.421875 17.546875 -0.640625 
Q 12.796875 0.140625 7.71875 1.703125 
L 7.71875 11.625 
Q 12.109375 9.234375 16.796875 8.0625 
Q 21.484375 6.890625 26.703125 6.890625 
Q 35.15625 6.890625 40.078125 11.328125 
Q 45.015625 15.765625 45.015625 23.390625 
Q 45.015625 31 40.078125 35.4375 
Q 35.15625 39.890625 26.703125 39.890625 
Q 22.75 39.890625 18.8125 39.015625 
Q 14.890625 38.140625 10.796875 36.28125 
z
" id="DejaVuSans-53"/>
       </defs>
       <use xlink:href="#DejaVuSans-53"/>
       <use x="63.623047" xlink:href="#DejaVuSans-48"/>
       <use x="127.246094" xlink:href="#DejaVuSans-48"/>
      </g>
     </g>
    </g>
    <g id="text_13">
     <!-- Size per Species -->
     <g transform="translate(25.432812 215.520969)rotate(-90)scale(0.1 -0.1)">
      <defs>
       <path d="M 53.515625 70.515625 
L 53.515625 60.890625 
Q 47.90625 63.578125 42.921875 64.890625 
Q 37.9375 66.21875 33.296875 66.21875 
Q 25.25 66.21875 20.875 63.09375 
Q 16.5 59.96875 16.5 54.203125 
Q 16.5 49.359375 19.40625 46.890625 
Q 22.3125 44.4375 30.421875 42.921875 
L 36.375 41.703125 
Q 47.40625 39.59375 52.65625 34.296875 
Q 57.90625 29 57.90625 20.125 
Q 57.90625 9.515625 50.796875 4.046875 
Q 43.703125 -1.421875 29.984375 -1.421875 
Q 24.8125 -1.421875 18.96875 -0.25 
Q 13.140625 0.921875 6.890625 3.21875 
L 6.890625 13.375 
Q 12.890625 10.015625 18.65625 8.296875 
Q 24.421875 6.59375 29.984375 6.59375 
Q 38.421875 6.59375 43.015625 9.90625 
Q 47.609375 13.234375 47.609375 19.390625 
Q 47.609375 24.75 44.3125 27.78125 
Q 41.015625 30.8125 33.5 32.328125 
L 27.484375 33.5 
Q 16.453125 35.6875 11.515625 40.375 
Q 6.59375 45.0625 6.59375 53.421875 
Q 6.59375 63.09375 13.40625 68.65625 
Q 20.21875 74.21875 32.171875 74.21875 
Q 37.3125 74.21875 42.625 73.28125 
Q 47.953125 72.359375 53.515625 70.515625 
z
" id="DejaVuSans-83"/>
       <path d="M 5.515625 54.6875 
L 48.1875 54.6875 
L 48.1875 46.484375 
L 14.40625 7.171875 
L 48.1875 7.171875 
L 48.1875 0 
L 4.296875 0 
L 4.296875 8.203125 
L 38.09375 47.515625 
L 5.515625 47.515625 
z
" id="DejaVuSans-122"/>
       <path id="DejaVuSans-32"/>
       <path d="M 18.109375 8.203125 
L 18.109375 -20.796875 
L 9.078125 -20.796875 
L 9.078125 54.6875 
L 18.109375 54.6875 
L 18.109375 46.390625 
Q 20.953125 51.265625 25.265625 53.625 
Q 29.59375 56 35.59375 56 
Q 45.5625 56 51.78125 48.09375 
Q 58.015625 40.1875 58.015625 27.296875 
Q 58.015625 14.40625 51.78125 6.484375 
Q 45.5625 -1.421875 35.59375 -1.421875 
Q 29.59375 -1.421875 25.265625 0.953125 
Q 20.953125 3.328125 18.109375 8.203125 
z
M 48.6875 27.296875 
Q 48.6875 37.203125 44.609375 42.84375 
Q 40.53125 48.484375 33.40625 48.484375 
Q 26.265625 48.484375 22.1875 42.84375 
Q 18.109375 37.203125 18.109375 27.296875 
Q 18.109375 17.390625 22.1875 11.75 
Q 26.265625 6.109375 33.40625 6.109375 
Q 40.53125 6.109375 44.609375 11.75 
Q 48.6875 17.390625 48.6875 27.296875 
z
" id="DejaVuSans-112"/>
       <path d="M 48.78125 52.59375 
L 48.78125 44.1875 
Q 44.96875 46.296875 41.140625 47.34375 
Q 37.3125 48.390625 33.40625 48.390625 
Q 24.65625 48.390625 19.8125 42.84375 
Q 14.984375 37.3125 14.984375 27.296875 
Q 14.984375 17.28125 19.8125 11.734375 
Q 24.65625 6.203125 33.40625 6.203125 
Q 37.3125 6.203125 41.140625 7.25 
Q 44.96875 8.296875 48.78125 10.40625 
L 48.78125 2.09375 
Q 45.015625 0.34375 40.984375 -0.53125 
Q 36.96875 -1.421875 32.421875 -1.421875 
Q 20.0625 -1.421875 12.78125 6.34375 
Q 5.515625 14.109375 5.515625 27.296875 
Q 5.515625 40.671875 12.859375 48.328125 
Q 20.21875 56 33.015625 56 
Q 37.15625 56 41.109375 55.140625 
Q 45.0625 54.296875 48.78125 52.59375 
z
" id="DejaVuSans-99"/>
      </defs>
      <use xlink:href="#DejaVuSans-83"/>
      <use x="63.476562" xlink:href="#DejaVuSans-105"/>
      <use x="91.259766" xlink:href="#DejaVuSans-122"/>
      <use x="143.75" xlink:href="#DejaVuSans-101"/>
      <use x="205.273438" xlink:href="#DejaVuSans-32"/>
      <use x="237.060547" xlink:href="#DejaVuSans-112"/>
      <use x="300.537109" xlink:href="#DejaVuSans-101"/>
      <use x="362.060547" xlink:href="#DejaVuSans-114"/>
      <use x="403.173828" xlink:href="#DejaVuSans-32"/>
      <use x="434.960938" xlink:href="#DejaVuSans-83"/>
      <use x="498.4375" xlink:href="#DejaVuSans-112"/>
      <use x="561.914062" xlink:href="#DejaVuSans-101"/>
      <use x="623.4375" xlink:href="#DejaVuSans-99"/>
      <use x="678.417969" xlink:href="#DejaVuSans-105"/>
      <use x="706.201172" xlink:href="#DejaVuSans-101"/>
      <use x="767.724609" xlink:href="#DejaVuSans-115"/>
     </g>
    </g>
   </g>
   <g id="patch_3">
    <path d="M 57.6 307.584 
L 57.6 41.472 
" style="fill:none;stroke:#000000;stroke-linecap:square;stroke-linejoin:miter;stroke-width:0.8;"/>
   </g>
   <g id="patch_4">
    <path d="M 414.72 307.584 
L 414.72 41.472 
" style="fill:none;stroke:#000000;stroke-linecap:square;stroke-linejoin:miter;stroke-width:0.8;"/>
   </g>
   <g id="patch_5">
    <path d="M 57.6 307.584 
L 414.72 307.584 
" style="fill:none;stroke:#000000;stroke-linecap:square;stroke-linejoin:miter;stroke-width:0.8;"/>
   </g>
   <g id="patch_6">
    <path d="M 57.6 41.472 
L 414.72 41.472 
" style="fill:none;stroke:#000000;stroke-linecap:square;stroke-linejoin:miter;stroke-width:0.8;"/>
   </g>
   <g id="text_14">
    <!-- Speciation -->
    <g transform="translate(204.714375 35.472)scale(0.12 -0.12)">
     <use xlink:href="#DejaVuSans-83"/>
     <use x="63.476562" xlink:href="#DejaVuSans-112"/>
     <use x="126.953125" xlink:href="#DejaVuSans-101"/>
     <use x="188.476562" xlink:href="#DejaVuSans-99"/>
     <use x="243.457031" xlink:href="#DejaVuSans-105"/>
     <use x="271.240234" xlink:href="#DejaVuSans-97"/>
     <use x="332.519531" xlink:href="#DejaVuSans-116"/>
     <use x="371.728516" xlink:href="#DejaVuSans-105"/>
     <use x="399.511719" xlink:href="#DejaVuSans-111"/>
     <use x="460.693359" xlink:href="#DejaVuSans-110"/>
    </g>
   </g>
  </g>
 </g>
 <defs>
  <clipPath id="p4b751bfe82">
   <rect height="266.112" width="357.12" x="57.6" y="41.472"/>
  </clipPath>
 </defs>
</svg>
